{
.appVersion = "3227";
.formatVersion = 3;
classes = (
{
automatic = 1;
code = "A Aacute Abreve Abreveacute Abrevedotbelow Abrevegrave Abrevehookabove Abrevetilde Acircumflex Acircumflexacute Acircumflexdotbelow Acircumflexgrave Acircumflexhookabove Acircumflextilde Adblgrave Adieresis Adotbelow Agrave Ahookabove Ainvertedbreve Amacron Aogonek Aring Aringacute Atilde AE AEacute B C Cacute Ccaron Ccedilla Ccircumflex Cdotaccent D DZcaron Dcaron Dcroat Dzcaron Eth E Eacute Ebreve Ecaron Ecircumflex Ecircumflexacute Ecircumflexdotbelow Ecircumflexgrave Ecircumflexhookabove Ecircumflextilde Edblgrave Edieresis Edotaccent Edotbelow Egrave Ehookabove Einvertedbreve Emacron Eogonek Etilde Schwa F G Gbreve Gcaron Gcircumflex Gcommaaccent Gdotaccent H Hbar Hcircumflex I IJ Iacute Ibreve Icircumflex Idblgrave Idieresis Idotaccent Idotbelow Igrave Ihookabove Iinvertedbreve Imacron Iogonek Itilde J Jcircumflex K Kcommaaccent L LJ Lacute Lcaron Lcommaaccent Ldot Lj Lslash M N NJ Nacute Ncaron Ncommaaccent Nj Ntilde Eng O Oacute Obreve Ocircumflex Ocircumflexacute Ocircumflexdotbelow Ocircumflexgrave Ocircumflexhookabove Ocircumflextilde Odblgrave Odieresis Odieresismacron Odotaccentmacron Odotbelow Ograve Ohookabove Ohorn Ohornacute Ohorndotbelow Ohorngrave Ohornhookabove Ohorntilde Ohungarumlaut Oinvertedbreve Omacron Oogonek Oslash Oslashacute Otilde Otildemacron OE P Thorn Q R Racute Rcaron Rcommaaccent Rdblgrave Rinvertedbreve S Sacute Scaron Scedilla Scircumflex Scommaaccent Germandbls T Tbar Tcaron Tcedilla Tcommaaccent U Uacute Ubreve Ucircumflex Udblgrave Udieresis Udotbelow Ugrave Uhookabove Uhorn Uhornacute Uhorndotbelow Uhorngrave Uhornhookabove Uhorntilde Uhungarumlaut Uinvertedbreve Umacron Uogonek Uring Utilde V W Wacute Wcircumflex Wdieresis Wgrave X Y Yacute Ycircumflex Ydieresis Ydotbelow Ygrave Yhookabove Ymacron Ytilde Z Zacute Zcaron Zdotaccent";
name = Uppercase;
}
);
customParameters = (
{
name = unicodeRanges;
value = (
0,
1,
2
);
},
{
name = fsType;

glyphs = (
{
color = 4;
glyphname = A;
kernLeft = A;
kernRight = A;
lastChange = "2023-11-24 14:34:08 +0000";
layers = (
{
anchors = (
{
name = bottom;
pos = (296,-35);
},
{
name = ogonek;
pos = (473,10);
},
{
name = top.case;
pos = (295,740);
}
);
background = {
anchors = (
{
name = bottom.case;
pos = (228.721,730.932);
},
{
name = ogonek;
pos = (126.032,8.157);
},
{
name = top;
pos = (112.355,-35.282);
}
);
hints = (
{
horizontal = 1;
origin = (0,3);
target = up;
type = BottomGhost;
},
{
horizontal = 1;
origin = (0,3);
target = down;
type = TopGhost;
},
{
origin = (0,3);
place = (322,192.789);
type = Stem;
}
);
shapes = (
{
closed = 1;
nodes = (
(129,726,l),
(21,14,l),
(214,-15,l),
(322,697,l)
);
}
);
};
guides = (
{
angle = 90;
pos = (575,-37);
}
);
hints = (
{
horizontal = 1;
place = (0,21);
target = up;
type = BottomGhost;
},
{
horizontal = 1;
place = (97,155);
type = Stem;
},
{
horizontal = 1;
place = (728,-20);
target = down;
type = TopGhost;
}
);
layerId = "C10BC21D-E45C-40C5-B032-7ED8CDD0420E";
shapes = (
{
closed = 1;
nodes = (
(359,97,l),
(378,0,l),
(585,0,l),
(428,728,l),
(126,728,l),
(149,630,l),
(5,0,l),
(214,0,l),
(233,97,l)
);
},
{
closed = 1;
nodes = (
(296,514,l),
(338,252,l),
(253,252,l)
);
}
);
width = 590;
}
);
note = A;
unicode = 65;
},
{
color = 4;
glyphname = Abrevedotbelow;
lastChange = "2023-11-24 15:18:31 +0000";
layers = (
{
background = {
anchors = (
{
name = top.case;
pos = (285,889);
}
);
hints = (
{
horizontal = 1;
place = (761,120);
type = Stem;
}
);
shapes = (
{
closed = 1;
nodes = (
(240,771,l),
(285,812,l),
(330,771,l),
(454,771,l),
(346,891,l),
(224,891,l),
(116,771,l)
);
}
);
};
layerId = "C10BC21D-E45C-40C5-B032-7ED8CDD0420E";
shapes = (
{
ref = A;
},
{
pos = (296,0);
ref = dotbelowcomb;
},
{
pos = (295,0);
ref = brevecomb.case;
}
);
width = 590;
}
);
unicode = 7862;
},
{
color = 4;
glyphname = Aringacute;
kernLeft = A;
kernRight = A;
lastChange = "2023-11-24 15:20:23 +0000";
layers = (
{
hints = (
{
horizontal = 1;
place = (0,21);
target = up;
type = BottomGhost;
},
{
horizontal = 1;
place = (97,155);
type = Stem;
},
{
horizontal = 1;
place = (728,-20);
target = down;
type = TopGhost;
},
{
horizontal = 1;
place = (758,39);
type = Stem;
},
{
horizontal = 1;
place = (882,39);
type = Stem;
},
{
place = (154,100);
type = Stem;
},
{
place = (298,100);
type = Stem;
},
{
horizontal = 1;
place = (875,120);
type = Stem;
}
);
layerId = "C10BC21D-E45C-40C5-B032-7ED8CDD0420E";
shapes = (
{
closed = 1;
nodes = (
(204,0,l),
(223,97,l),
(349,97,l),
(368,0,l),
(565,0,l),
(388,728,l),
(136,728,l),
(159,630,l),
(5,0,l)
);
},
{
closed = 1;
nodes = (
(286,514,l),
(328,252,l),
(243,252,l)
);
},
{
closed = 1;
nodes = (
(361,758,o),
(398,782,o),
(398,837,cs),
(398,871,o),
(386,893,o),
(361,906,c),
(420,995,l),
(234,995,l),
(202,911,l),
(169,899,o),
(154,875,o),
(154,837,cs),
(154,782,o),
(191,758,o),
(277,758,cs)
);
},
{
closed = 1;
nodes = (
(262,808,o),
(249,815,o),
(249,838,cs),
(249,864,o),
(262,870,o),
(277,870,cs),
(289,870,o),
(304,864,o),
(304,838,cs),
(304,815,o),
(289,808,o),
(277,808,cs)
);
}
);
width = 570;
}
);
note = Aringacute;
unicode = 506;
},
{
color = 4;
glyphname = AE;
kernLeft = A;
kernRight = E;
lastChange = "2023-11-24 15:20:28 +0000";
layers = (
{
anchors = (
{
name = top.case;
pos = (438,740);
}
);
hints = (
{
horizontal = 1;
place = (97,155);
type = Stem;
},
{
horizontal = 1;
place = (290,160);
type = Stem;
},
{
horizontal = 1;
place = (560,160);
type = Stem;
},
{
place = (327,195);
type = Stem;
},
{
horizontal = 1;
place = (0,160);
type = Stem;
}
);
layerId = "C10BC21D-E45C-40C5-B032-7ED8CDD0420E";
shapes = (
{
closed = 1;
nodes = (
(196,0,l),
(221,97,l),
(327,97,l),
(327,0,l),
(708,0,l),
(738,160,l),
(522,160,l),
(522,290,l),
(659,290,l),
(689,450,l),
(522,450,l),
(522,560,l),
(701,560,l),
(731,720,l),
(182,720,l),
(210,615,l),
(6,0,l)
);
},
{
closed = 1;
nodes = (
(325,519,l),
(327,519,l),
(327,252,l),
(260,252,l)
);
}
);
width = 753;
}
);
metricRight = E;
note = AE;
unicode = 198;
},
{
color = 4;
glyphname = B;
kernLeft = B;
lastChange = "2023-11-24 15:20:28 +0000";
layers = (
{
hints = (
{
horizontal = 1;
place = (132,0);
type = Stem;
},
{
horizontal = 1;
place = (301,123);
type = Stem;
},
{
horizontal = 1;
place = (583,137);
type = Stem;
},
{
place = (75,195);
type = Stem;
},
{
place = (381,74);
type = Stem;
},
{
place = (260,273);
type = Stem;
}
);
layerId = "C10BC21D-E45C-40C5-B032-7ED8CDD0420E";
shapes = (
{
closed = 1;
nodes = (
(285,0,ls),
(470,0,o),
(560,69,o),
(560,193,cs),
(560,286,o),
(526,341,o),
(435,371,c),
(435,373,l),
(509,411,o),
(531,470,o),
(531,541,cs),
(531,650,o),
(461,720,o),
(300,720,cs),
(0,720,l),
(55,583,l),
(55,0,l)
);
},
{
closed = 1;
nodes = (
(250,301,l),
(260,301,ls),
(326,301,o),
(357,280,o),
(357,216,cs),
(357,153,o),
(326,132,o),
(260,132,cs),
(250,132,l)
);
},
{
closed = 1;
nodes = (
(250,583,l),
(259,583,ls),
(319,583,o),
(345,563,o),
(345,503,cs),
(345,444,o),
(319,424,o),
(259,424,cs),
(250,424,l)
);
}
);
width = 584;
}
);
note = B;
unicode = 66;
},
{
color = 4;
glyphname = C;
kernLeft = C;
kernRight = C;
lastChange = "2023-04-27 15:02:43 +0000";
layers = (
{
anchors = (
{
name = bottom;
pos = (316,-35);
},
{
name = cedilla;
pos = (292,10);
},
{
name = top.case;
pos = (318,740);
}
);
hints = (
{
horizontal = 1;
place = (-10,155);
type = Stem;
},
{
horizontal = 1;
place = (152,296);
type = Stem;
},
{
horizontal = 1;
place = (573,155);
type = Stem;
},
{
place = (-605,210);
type = Stem;
},
{
place = (-269,210);
type = Stem;
},
{
place = (323,62);
type = Stem;
},
{
place = (337,0);
type = Stem;
},
{
place = (356,210);
type = Stem;
}
);
layerId = "C10BC21D-E45C-40C5-B032-7ED8CDD0420E";
shapes = (
{
closed = 1;
nodes = (
(20,113,o),
(109,-10,o),
(337,-10,cs),
(380,-10,o),
(441,-5,o),
(480,4,c),
(480,162,l),
(447,156,o),
(419,152,o),
(387,152,cs),
(279,152,o),
(230,200,o),
(230,356,cs),
(230,549,o),
(264,569,o),
(335,569,c),
(351,448,l),
(472,448,l),
(472,712,l),
(420,724,o),
(361,728,o),
(318,728,cs),
(120,728,o),
(20,639,o),
(20,355,cs)
);
}
);
width = 505;
}
);
note = C;
unicode = 67;
},
{
color = 4;
glyphname = D;
kernLeft = B;
kernRight = D;
lastChange = "2023-04-27 15:23:50 +0000";
layers = (
{
anchors = (
{
name = top.case;
pos = (281,740);
}
);
hints = (
{
horizontal = 1;
place = (0,160);
type = Stem;
},
{
horizontal = 1;
place = (560,160);
type = Stem;
},
{
place = (55,195);
type = Stem;
},
{
place = (370,210);
type = Stem;
}
);
layerId = "C10BC21D-E45C-40C5-B032-7ED8CDD0420E";
shapes = (
{
closed = 1;
nodes = (
(0,720,l),
(55,583,l),
(55,0,l),
(293,0,ls),
(499,0,o),
(580,89,o),
(580,374,cs),
(580,637,o),
(499,720,o),
(293,720,cs)
);
},
{
closed = 1;
nodes = (
(250,160,l),
(250,560,l),
(281,560,ls),
(350,560,o),
(370,524,o),
(370,374,cs),
(370,210,o),
(345,160,o),
(281,160,cs)
);
}
);
width = 600;
}
);
note = D;
unicode = 68;
},
{
color = 4;
glyphname = Eth;
kernLeft = Dcroat;
kernRight = D;
lastChange = "2023-11-24 15:46:07 +0000";
layers = (
{
background = {
shapes = (
{
closed = 1;
nodes = (
(0,720,l),
(55,583,l),
(55,406,l),
(13,406,l),
(13,323,l),
(55,323,l),
(55,0,l),
(293,0,ls),
(499,0,o),
(580,89,o),
(580,374,cs),
(580,637,o),
(499,720,o),
(293,720,cs)
);
},
{
closed = 1;
nodes = (
(250,160,l),
(250,323,l),
(326,323,l),
(326,406,l),
(250,406,l),
(250,560,l),
(281,560,ls),
(350,560,o),
(370,524,o),
(370,374,cs),
(370,210,o),
(345,160,o),
(281,160,cs)
);
}
);
};
hints = (
{
horizontal = 1;
place = (0,160);
type = Stem;
},
{
horizontal = 1;
place = (323,83);
type = Stem;
},
{
horizontal = 1;
place = (560,160);
type = Stem;
},
{
place = (63,195);
type = Stem;
},
{
place = (378,210);
type = Stem;
}
);
layerId = "C10BC21D-E45C-40C5-B032-7ED8CDD0420E";
shapes = (
{
closed = 1;
nodes = (
(319,323,l),
(319,406,l),
(13,406,l),
(13,323,l)
);
},
{
ref = D;
}
);
width = 600;
}
);
metricRight = D;
note = Eth;
unicode = 208;
},
{
color = 4;
glyphname = E;
kernLeft = B;
kernRight = E;
lastChange = "2023-04-27 15:36:44 +0000";
layers = (
{
anchors = (
{
name = bottom;
pos = (276,-35);
},
{
name = ogonek;
pos = (384,10);
},
{
name = top.case;
pos = (259,740);
}
);
guides = (
{
angle = 90;
pos = (486,-38);
}
);
hints = (
{
horizontal = 1;
place = (0,160);
type = Stem;
},
{
horizontal = 1;
place = (290,160);
type = Stem;
},
{
horizontal = 1;
place = (560,160);
type = Stem;
},
{
place = (55,195);
type = Stem;
}
);
layerId = "C10BC21D-E45C-40C5-B032-7ED8CDD0420E";
shapes = (
{
closed = 1;
nodes = (
(55,583,l),
(55,0,l),
(456,0,l),
(486,160,l),
(250,160,l),
(250,290,l),
(407,290,l),
(437,450,l),
(250,450,l),
(250,560,l),
(449,560,l),
(479,720,l),
(0,720,l)
);
}
);
width = 501;
}
);
note = E;
unicode = 69;
},
{
color = 4;
glyphname = Ecircumflexhookabove;
lastChange = "2023-11-24 15:18:31 +0000";
layers = (
{
background = {
anchors = (
{
name = top.case;
pos = (259,889);
}
);
hints = (
{
horizontal = 1;
place = (761,120);
type = Stem;
}
);
shapes = (
{
closed = 1;
nodes = (
(214,771,l),
(259,812,l),
(304,771,l),
(428,771,l),
(320,891,l),
(198,891,l),
(90,771,l)
);
},
{
closed = 1;
nodes = (
(422,901,o),
(378,879,c),
(421,827,l),
(567,865,o),
(566,1044,o),
(410,1044,cs),
(384,1044,o),
(354,1039,o),
(331,1031,c),
(324,945,l),
(334,949,o),
(356,953,o),
(376,953,cs),
(430,953,o)
);
}
);
};
layerId = "C10BC21D-E45C-40C5-B032-7ED8CDD0420E";
shapes = (
{
ref = E;
},
{
pos = (259,0);
ref = circumflexcomb.case;
},
{
alignment = -1;
pos = (426,70);
ref = hookabovecomb.case;
}
);
width = 501;
}
);
unicode = 7874;
},
{
color = 4;
glyphname = Schwa;
lastChange = "2023-11-24 15:46:07 +0000";
layers = (
{
background = {
anchors = (
{
name = bottom;
pos = (205,-35);
},
{
name = top.case;
pos = (201,740);
}
);
hints = (
{
horizontal = 1;
origin = (0,25);
place = (356,160);
type = Stem;
},
{
horizontal = 1;
origin = (0,25);
place = (356,168);
type = Stem;
},
{
origin = (0,25);
place = (307,210);
type = Stem;
},
{
origin = (0,25);
place = (307,180);
type = Stem;
}
);
shapes = (
{
closed = 1;
nodes = (
(307,207,o),
(279,158,o),
(185,150,c),
(185,219,l),
(240,356,l),
(5,356,l),
(5,34,l),
(48,6,o),
(117,-10,o),
(205,-10,cs),
(397,-10,o),
(517,90,o),
(517,355,cs),
(517,620,o),
(385,728,o),
(189,728,cs),
(142,728,o),
(91,719,o),
(38,708,c),
(56,544,l),
(100,552,o),
(128,557,o),
(160,557,cs),
(265,557,o),
(307,515,o),
(307,356,cs)
);
}
);
};
hints = (
{
horizontal = 1;
place = (707,-336);
type = Stem;
},
{
place = (454,-330);
type = Stem;
},
{
horizontal = 1;
place = (488,-206);
type = Stem;
},
{
place = (135,0);
type = Stem;
}
);
layerId = "C10BC21D-E45C-40C5-B032-7ED8CDD0420E";
shapes = (
{
closed = 1;
nodes = (
(469,-10,o),
(553,99,o),
(553,357,cs),
(553,587,o),
(441,728,o),
(225,728,cs),
(168,728,o),
(111,721,o),
(38,707,c),
(65,457,l),
(11,536,l),
(74,550,o),
(131,557,o),
(179,557,cs),
(290,557,o),
(348,522,o),
(348,353,cs),
(348,210,o),
(330,143,o),
(278,143,cs),
(227,143,o),
(213,217,o),
(213,275,cs),
(213,304,o),
(212,330,o),
(212,340,c),
(114,289,l),
(386,289,l),
(386,427,l),
(23,427,l),
(18,385,o),
(15,345,o),
(15,307,cs),
(15,122,o),
(84,-10,o),
(267,-10,cs)
);
}
);
width = 573;
}
);
metricRight = O;
unicode = 399;
},
{
color = 4;
glyphname = F;
kernLeft = B;
lastChange = "2023-04-27 15:46:43 +0000";
layers = (
{
hints = (
{
horizontal = 1;
place = (0,21);
target = up;
type = BottomGhost;
},
{
horizontal = 1;
place = (264,160);
type = Stem;
},
{
horizontal = 1;
place = (560,160);
type = Stem;
},
{
place = (55,195);
type = Stem;
}
);
layerId = "C10BC21D-E45C-40C5-B032-7ED8CDD0420E";
shapes = (
{
closed = 1;
nodes = (
(0,720,l),
(55,583,l),
(55,0,l),
(250,0,l),
(250,264,l),
(386,264,l),
(416,424,l),
(250,424,l),
(250,560,l),
(434,560,l),
(464,720,l)
);
}
);
width = 474;
}
);
note = F;
unicode = 70;
},
{
color = 4;
glyphname = G;
kernLeft = C;
kernRight = G;
lastChange = "2023-11-24 14:34:08 +0000";
layers = (
{
anchors = (
{
name = bottom;
pos = (332,-35);
},
{
name = top.case;
pos = (336,740);
}
);
background = {
anchors = (
{
name = bottom;
pos = (316,-35);
},
{
name = cedilla;
pos = (292,10);
},
{
name = top.case;
pos = (318,740);
}
);
hints = (
{
horizontal = 1;
place = (-10,155);
type = Stem;
},
{
horizontal = 1;
place = (152,296);
type = Stem;
},
{
horizontal = 1;
place = (573,155);
type = Stem;
},
{
place = (-605,210);
type = Stem;
},
{
place = (-269,210);
type = Stem;
},
{
place = (323,62);
type = Stem;
},
{
place = (337,0);
type = Stem;
},
{
place = (356,210);
type = Stem;
}
);
shapes = (
{
closed = 1;
nodes = (
(20,113,o),
(109,-10,o),
(337,-10,cs),
(380,-10,o),
(441,-5,o),
(480,4,c),
(480,162,l),
(447,156,o),
(419,152,o),
(387,152,cs),
(279,152,o),
(230,200,o),
(230,356,cs),
(230,549,o),
(264,569,o),
(335,569,c),
(351,448,l),
(472,448,l),
(472,712,l),
(420,724,o),
(361,728,o),
(318,728,cs),
(120,728,o),
(20,639,o),
(20,355,cs)
);
}
);
};
hints = (
{
horizontal = 1;
place = (-10,160);
type = Stem;
},
{
horizontal = 1;
place = (560,168);
type = Stem;
},
{
place = (20,210);
type = Stem;
},
{
place = (352,180);
type = Stem;
}
);
layerId = "C10BC21D-E45C-40C5-B032-7ED8CDD0420E";
shapes = (
{
closed = 1;
nodes = (
(230,515,o),
(272,557,o),
(377,557,cs),
(409,557,o),
(437,552,o),
(481,544,c),
(499,708,l),
(446,719,o),
(395,728,o),
(348,728,cs),
(152,728,o),
(20,620,o),
(20,355,cs),
(20,90,o),
(140,-10,o),
(332,-10,cs),
(420,-10,o),
(489,6,o),
(532,34,c),
(532,356,l),
(297,356,l),
(352,219,l),
(352,150,l),
(258,158,o),
(230,207,o),
(230,356,cs)
);
}
);
width = 547;
}
);
note = G;
unicode = 71;
},
{
color = 4;
glyphname = H;
kernLeft = H;
lastChange = "2023-04-28 09:52:01 +0000";
layers = (
{
anchors = (
{
name = top.case;
pos = (290,740);
}
);
hints = (
{
horizontal = 1;
place = (0,21);
target = up;
type = BottomGhost;
},
{
horizontal = 1;
place = (720,-20);
target = down;
type = TopGhost;
},
{
place = (45,195);
type = Stem;
},
{
place = (340,195);
type = Stem;
}
);
layerId = "C10BC21D-E45C-40C5-B032-7ED8CDD0420E";
shapes = (
{
closed = 1;
nodes = (
(240,0,l),
(240,283,l),
(340,283,l),
(340,0,l),
(535,0,l),
(535,720,l),
(340,720,l),
(340,443,l),
(240,443,l),
(240,720,l),
(45,720,l),
(45,0,l)
);
}
);
width = 580;
}
);
note = H;
unicode = 72;
},
{
color = 4;
glyphname = Hbar;
kernLeft = H;
lastChange = "2023-04-28 09:52:10 +0000";
layers = (
{
background = {
shapes = (
{
closed = 1;
nodes = (
(340,0,l),
(535,0,l),
(535,525,l),
(565,525,l),
(565,608,l),
(535,608,l),
(535,720,l),
(340,720,l),
(340,608,l),
(240,608,l),
(240,720,l),
(45,720,l),
(45,608,l),
(15,608,l),
(15,525,l),
(45,525,l),
(45,0,l),
(240,0,l),
(240,283,l),
(340,283,l)
);
},
{
closed = 1;
nodes = (
(240,443,l),
(240,525,l),
(340,525,l),
(340,443,l)
);
}
);
};
hints = (
{
horizontal = 1;
place = (0,21);
target = up;
type = BottomGhost;
},
{
horizontal = 1;
place = (525,83);
type = Stem;
},
{
horizontal = 1;
place = (720,-20);
target = down;
type = TopGhost;
},
{
place = (45,195);
type = Stem;
},
{
place = (340,195);
type = Stem;
}
);
layerId = "C10BC21D-E45C-40C5-B032-7ED8CDD0420E";
shapes = (
{
closed = 1;
nodes = (
(565,525,l),
(565,608,l),
(15,608,l),
(15,525,l)
);
},
{
ref = H;
}
);
width = 580;
}
);
note = Hbar;
unicode = 294;
},
{
color = 4;
glyphname = I;
kernLeft = H;
lastChange = "2023-04-28 09:53:04 +0000";
layers = (
{
anchors = (
{
name = bottom;
pos = (142,-35);
},
{
name = ogonek;
pos = (135,10);
},
{
name = top.case;
pos = (142,740);
}
);
hints = (
{
horizontal = 1;
place = (0,21);
target = up;
type = BottomGhost;
},
{
horizontal = 1;
place = (720,-20);
target = down;
type = TopGhost;
},
{
place = (45,195);
type = Stem;
}
);
layerId = "C10BC21D-E45C-40C5-B032-7ED8CDD0420E";
shapes = (
{
closed = 1;
nodes = (
(45,0,l),
(240,0,l),
(240,720,l),
(45,720,l)
);
}
);
width = 285;
}
);
note = I;
unicode = 73;
},
{
color = 4;
glyphname = J;
kernLeft = J;
kernRight = J;
lastChange = "2023-04-28 09:59:12 +0000";
layers = (
{
anchors = (
{
name = top.case;
pos = (280,740);
}
);
hints = (
{
horizontal = 1;
place = (-10,168);
type = Stem;
},
{
horizontal = 1;
place = (720,-20);
target = down;
type = TopGhost;
},
{
place = (188,195);
type = Stem;
}
);
layerId = "C10BC21D-E45C-40C5-B032-7ED8CDD0420E";
shapes = (
{
closed = 1;
nodes = (
(188,281,ls),
(188,183,o),
(176,158,o),
(98,158,cs),
(75,158,o),
(50,163,o),
(29,169,c),
(10,10,l),
(45,-1,o),
(124,-10,o),
(162,-10,cs),
(327,-10,o),
(383,24,o),
(383,215,cs),
(383,720,l),
(133,720,l),
(188,583,l)
);
}
);
width = 423;
}
);
note = J;
unicode = 74;
},
{
color = 4;
glyphname = K;
kernLeft = H;
kernRight = K;
lastChange = "2023-04-28 09:59:12 +0000";
layers = (
{
anchors = (
{
name = bottom;
pos = (280,-35);
},
{
name = top;
pos = (290,740);
}
);
hints = (
{
horizontal = 1;
place = (0,21);
target = up;
type = BottomGhost;
},
{
horizontal = 1;
place = (720,-20);
target = down;
type = TopGhost;
},
{
place = (45,195);
type = Stem;
}
);
layerId = "C10BC21D-E45C-40C5-B032-7ED8CDD0420E";
shapes = (
{
closed = 1;
nodes = (
(45,0,l),
(240,0,l),
(240,305,l),
(340,0,l),
(550,0,l),
(423,371,l),
(557,720,l),
(347,720,l),
(240,431,l),
(240,720,l),
(45,720,l)
);
}
);
width = 565;
}
);
note = K;
unicode = 75;
},
{
color = 4;
glyphname = L;
kernLeft = H;
kernRight = L;
lastChange = "2023-04-28 09:59:12 +0000";
layers = (
{
anchors = (
{
name = bottom;
pos = (231,-35);
},
{
name = caron;
pos = (342,560);
},
{
name = top.case;
pos = (145,740);
}
);
hints = (
{
horizontal = 1;
place = (0,170);
type = Stem;
},
{
horizontal = 1;
place = (720,-20);
target = down;
type = TopGhost;
},
{
place = (45,195);
type = Stem;
}
);
layerId = "C10BC21D-E45C-40C5-B032-7ED8CDD0420E";
shapes = (
{
closed = 1;
nodes = (
(45,0,l),
(430,0,l),
(461,170,l),
(240,170,l),
(240,720,l),
(45,720,l)
);
}
);
width = 466;
}
);
note = L;
unicode = 76;
},
{
color = 4;
glyphname = Ldot;
lastChange = "2023-11-24 15:18:31 +0000";
layers = (
{
background = {
shapes = (
{
closed = 1;
nodes = (
(45,0,l),
(430,0,l),
(461,170,l),
(240,170,l),
(240,720,l),
(45,720,l)
);
},
{
closed = 1;
nodes = (
(359,224,l),
(549,224,l),
(549,414,l),
(359,414,l)
);
}
);
};
hints = (
{
horizontal = 1;
place = (0,170);
type = Stem;
},
{
horizontal = 1;
place = (224,190);
type = Stem;
},
{
horizontal = 1;
place = (720,-20);
target = down;
type = TopGhost;
},
{
place = (45,195);
type = Stem;
},
{
place = (352,204);
type = Stem;
}
);
layerId = "C10BC21D-E45C-40C5-B032-7ED8CDD0420E";
shapes = (
{
alignment = -1;
ref = L;
},
{
alignment = -1;
pos = (310,0);
ref = periodcentered;
}
);
width = 573;
}
);
metricLeft = L;
note = Ldot;
unicode = 319;
},
{
color = 4;
glyphname = Lslash;
kernLeft = Dcroat;
kernRight = L;
lastChange = "2023-11-24 15:46:07 +0000";
layers = (
{
background = {
shapes = (
{
closed = 1;
nodes = (
(0,408,l),
(0,308,l),
(331,448,l),
(331,546,l)
);
}
);
};
hints = (
{
horizontal = 1;
place = (0,170);
type = Stem;
},
{
horizontal = 1;
place = (308,21);
target = up;
type = BottomGhost;
},
{
horizontal = 1;
place = (546,-20);
target = down;
type = TopGhost;
},
{
horizontal = 1;
place = (720,-20);
target = down;
type = TopGhost;
},
{
place = (44,195);
type = Stem;
}
);
layerId = "C10BC21D-E45C-40C5-B032-7ED8CDD0420E";
shapes = (
{
closed = 1;
nodes = (
(135,353,l),
(331,435,l),
(331,533,l),
(135,452,l)
);
},
{
closed = 1;
nodes = (
(135,465,l),
(-18,401,l),
(-18,301,l),
(135,366,l)
);
},
{
ref = L;
}
);
width = 466;
}
);
metricRight = L;
note = Lslash;
unicode = 321;
},
{
color = 4;
glyphname = M;
kernLeft = B;
lastChange = "2023-04-28 10:04:14 +0000";
layers = (
{
background = {
shapes = (
{
closed = 1;
nodes = (
(414,196,l),
(492,380,l),
(492,0,l),
(682,0,l),
(682,720,l),
(478,720,l),
(368,475,l),
(258,720,l),
(0,720,l),
(55,583,l),
(55,0,l),
(245,0,l),
(245,381,l),
(323,196,l)
);
}
);
};
guides = (
{
angle = 90;
pos = (323,296);
},
{
angle = 90;
pos = (413,290);
}
);
hints = (
{
horizontal = 1;
place = (0,21);
target = up;
type = BottomGhost;
},
{
horizontal = 1;
place = (720,-20);
target = down;
type = TopGhost;
},
{
place = (55,190);
type = Stem;
},
{
place = (492,180);
type = Stem;
}
);
layerId = "C10BC21D-E45C-40C5-B032-7ED8CDD0420E";
shapes = (
{
closed = 1;
nodes = (
(414,148,l),
(544,455,l),
(502,461,l),
(502,0,l),
(692,0,l),
(692,720,l),
(508,720,l),
(355,391,l),
(381,391,l),
(228,720,l),
(-10,720,l),
(45,583,l),
(45,0,l),
(235,0,l),
(235,462,l),
(194,456,l),
(323,148,l)
);
}
);
width = 737;
}
);
note = M;
unicode = 77;
},
{
color = 4;
glyphname = N;
kernLeft = B;
lastChange = "2023-04-28 10:04:14 +0000";
layers = (
{
anchors = (
{
name = bottom;
pos = (342,-35);
},
{
name = top.case;
pos = (339,740);
}
);
background = {
shapes = (
{
closed = 1;
nodes = (
(40,720,l),
(81,617,l),
(81,0,l),
(271,0,l),
(271,414,l),
(217,414,l),
(327,178,l),
(419,0,l),
(593,0,l),
(593,720,l),
(403,720,l),
(403,389,l),
(401,389,l),
(349,503,l),
(242,720,l)
);
}
);
};
hints = (
{
horizontal = 1;
place = (0,21);
target = up;
type = BottomGhost;
},
{
horizontal = 1;
place = (720,-20);
target = down;
type = TopGhost;
},
{
place = (61,190);
type = Stem;
},
{
place = (383,190);
type = Stem;
}
);
layerId = "C10BC21D-E45C-40C5-B032-7ED8CDD0420E";
shapes = (
{
closed = 1;
nodes = (
(0,720,l),
(41,617,l),
(41,0,l),
(231,0,l),
(231,541,l),
(182,517,l),
(359,0,l),
(593,0,l),
(593,720,l),
(403,720,l),
(403,130,l),
(440,201,l),
(262,720,l)
);
}
);
width = 638;
}
);
note = N;
unicode = 78;
},
{
color = 4;
glyphname = Eng;
kernLeft = B;
lastChange = "2023-11-24 15:18:31 +0000";
layers = (
{
background = {
shapes = (
{
closed = 1;
nodes = (
(40,720,l),
(81,617,l),
(81,0,l),
(261,0,l),
(261,282,l),
(463,-54,l),
(424,113,l),
(424,54,ls),
(424,-28,o),
(412,-49,o),
(346,-49,cs),
(326,-49,o),
(305,-45,o),
(287,-43,c),
(276,-145,l),
(305,-154,o),
(373,-162,o),
(405,-162,cs),
(546,-162,o),
(593,-133,o),
(593,30,cs),
(593,720,l),
(413,720,l),
(413,412,l),
(229,720,l)
);
}
);
};
hints = (
{
horizontal = 1;
place = (-162,113);
type = Stem;
},
{
horizontal = 1;
place = (0,21);
target = up;
type = BottomGhost;
},
{
horizontal = 1;
place = (720,-20);
target = down;
type = TopGhost;
},
{
place = (36,170);
type = Stem;
},
{
place = (327,171);
type = Stem;
}
);
layerId = "C10BC21D-E45C-40C5-B032-7ED8CDD0420E";
shapes = (
{
closed = 1;
nodes = (
(424,54,ls),
(424,-28,o),
(412,-49,o),
(346,-49,cs),
(326,-49,o),
(305,-45,o),
(287,-43,c),
(276,-145,l),
(305,-154,o),
(373,-162,o),
(405,-162,cs),
(546,-162,o),
(593,-133,o),
(593,30,cs),
(593,720,l),
(403,720,l),
(403,130,l),
(490,201,l),
(232,720,l),
(0,720,l),
(41,617,l),
(41,0,l),
(231,0,l),
(231,541,l),
(152,517,l),
(442,-67,l),
(424,113,l)
);
}
);
width = 638;
}
);
metricLeft = N;
metricRight = N;
note = Eng;
unicode = 330;
},
{
color = 4;
glyphname = O;
kernLeft = C;
kernRight = D;
lastChange = "2023-04-28 10:25:31 +0000";
layers = (
{
anchors = (
{
name = bottom;
pos = (293,-35);
},
{
name = horn;
pos = (445,728);
},
{
name = ogonek;
pos = (353,10);
},
{
name = top.case;
pos = (293,740);
}
);
hints = (
{
horizontal = 1;
place = (-10,155);
type = Stem;
},
{
horizontal = 1;
place = (573,155);
type = Stem;
},
{
place = (20,210);
type = Stem;
},
{
place = (356,210);
type = Stem;
}
);
layerId = "C10BC21D-E45C-40C5-B032-7ED8CDD0420E";
shapes = (
{
closed = 1;
nodes = (
(489,-10,o),
(566,78,o),
(566,359,cs),
(566,640,o),
(489,728,o),
(293,728,cs),
(97,728,o),
(20,640,o),
(20,359,cs),
(20,78,o),
(97,-10,o),
(293,-10,cs)
);
},
{
closed = 1;
nodes = (
(356,190,o),
(342,145,o),
(293,145,cs),
(244,145,o),
(230,190,o),
(230,361,cs),
(230,532,o),
(244,573,o),
(293,573,cs),
(342,573,o),
(356,532,o),
(356,361,cs)
);
}
);
width = 586;
}
);
note = O;
unicode = 79;
},
{
color = 4;
glyphname = Ohorn;
lastChange = "2023-04-28 10:25:41 +0000";
layers = (
{
anchors = (
{
name = bottom;
pos = (293,-35);
},
{
name = ogonek;
pos = (353,10);
},
{
name = top.case;
pos = (293,740);
}
);
background = {
shapes = (
{
closed = 1;
nodes = (
(489,-10,o),
(566,78,o),
(566,359,cs),
(566,640,o),
(489,728,o),
(293,728,cs),
(97,728,o),
(20,640,o),
(20,359,cs),
(20,78,o),
(97,-10,o),
(293,-10,cs)
);
},
{
closed = 1;
nodes = (
(356,190,o),
(342,145,o),
(293,145,cs),
(244,145,o),
(230,190,o),
(230,361,cs),
(230,532,o),
(244,573,o),
(293,573,cs),
(342,573,o),
(356,532,o),
(356,361,cs)
);
},
{
closed = 1;
nodes = (
(605,578,o),
(661,613,o),
(661,792,cs),
(661,861,l),
(509,861,l),
(509,789,ls),
(509,749,o),
(494,728,o),
(460,728,cs),
(293,728,l),
(445,589,l)
);
}
);
};
hints = (
{
horizontal = 1;
place = (-10,155);
type = Stem;
},
{
horizontal = 1;
place = (573,155);
type = Stem;
},
{
place = (20,210);
type = Stem;
},
{
place = (356,210);
type = Stem;
}
);
layerId = "C10BC21D-E45C-40C5-B032-7ED8CDD0420E";
shapes = (
{
closed = 1;
nodes = (
(489,-10,o),
(566,78,o),
(566,359,cs),
(566,467,o),
(555,547,o),
(529,604,c),
(625,592,o),
(661,649,o),
(661,792,cs),
(661,861,l),
(509,861,l),
(509,789,ls),
(509,749,o),
(494,728,o),
(460,728,cs),
(293,728,ls),
(97,728,o),
(20,640,o),
(20,359,cs),
(20,78,o),
(97,-10,o),
(293,-10,cs)
);
},
{
closed = 1;
nodes = (
(244,145,o),
(230,190,o),
(230,361,cs),
(230,532,o),
(244,573,o),
(293,573,cs),
(342,573,o),
(356,532,o),
(356,361,cs),
(356,190,o),
(342,145,o),
(293,145,cs)
);
}
);
width = 586;
}
);
unicode = 416;
},
{
color = 4;
glyphname = Oslash;
kernLeft = C;
kernRight = D;
lastChange = "2023-04-28 10:25:31 +0000";
layers = (
{
anchors = (
{
name = top.case;
pos = (293,740);
}
);
background = {
shapes = (
{
closed = 1;
nodes = (
(546,701,l),
(473,745,l),
(40,15,l),
(114,-28,l)
);
}
);
};
guides = (
{
angle = 90;
pos = (20,652);
},
{
angle = 90;
pos = (566,618);
}
);
hints = (
{
horizontal = 1;
place = (-10,155);
type = Stem;
},
{
horizontal = 1;
place = (558,-20);
target = down;
type = TopGhost;
},
{
horizontal = 1;
place = (573,155);
type = Stem;
},
{
place = (20,210);
type = Stem;
},
{
place = (356,210);
type = Stem;
},
{
horizontal = 1;
place = (38,21);
target = up;
type = BottomGhost;
}
);
layerId = "C10BC21D-E45C-40C5-B032-7ED8CDD0420E";
shapes = (
{
closed = 1;
nodes = (
(118,146,l),
(29,-5,l),
(103,-48,l),
(193,103,l)
);
},
{
closed = 1;
nodes = (
(459,553,l),
(559,721,l),
(486,765,l),
(386,597,l)
);
},
{
closed = 1;
nodes = (
(202,100,l),
(452,559,l),
(377,600,l),
(125,140,l)
);
},
{
ref = O;
}
);
width = 586;
}
);
metricLeft = O;
metricRight = O;
note = Oslash;
unicode = 216;
},
{
color = 4;
glyphname = Oslashacute;
kernLeft = C;
kernRight = D;
lastChange = "2023-11-24 15:20:23 +0000";
layers = (
{
hints = (
{
horizontal = 1;
place = (-76,21);
target = up;
type = BottomGhost;
},
{
horizontal = 1;
place = (-10,155);
type = Stem;
},
{
horizontal = 1;
place = (573,155);
type = Stem;
},
{
horizontal = 1;
place = (772,-20);
target = down;
type = TopGhost;
},
{
place = (20,210);
type = Stem;
},
{
place = (356,210);
type = Stem;
},
{
horizontal = 1;
place = (761,120);
type = Stem;
}
);
layerId = "C10BC21D-E45C-40C5-B032-7ED8CDD0420E";
shapes = (
{
closed = 1;
nodes = (
(114,37,l),
(157,3,o),
(215,-10,o),
(293,-10,cs),
(489,-10,o),
(566,78,o),
(566,359,cs),
(566,470,o),
(554,551,o),
(527,609,c),
(575,678,l),
(506,728,l),
(473,680,l),
(430,714,o),
(371,728,o),
(293,728,cs),
(97,728,o),
(20,640,o),
(20,359,cs),
(20,246,o),
(32,165,o),
(59,107,c),
(11,38,l),
(81,-11,l)
);
},
{
closed = 1;
nodes = (
(265,145,o),
(248,160,o),
(239,205,c),
(356,375,l),
(356,361,ls),
(356,190,o),
(342,145,o),
(293,145,cs)
);
},
{
closed = 1;
nodes = (
(230,361,ls),
(230,532,o),
(244,573,o),
(293,573,cs),
(322,573,o),
(338,558,o),
(347,512,c),
(230,340,l)
);
},
{
closed = 1;
nodes = (
(367,761,l),
(447,881,l),
(261,881,l),
(216,761,l)
);
}
);
width = 586;
}
);
note = Oslashacute;
unicode = 510;
},
{
color = 4;
glyphname = OE;
kernLeft = C;
kernRight = E;
lastChange = "2023-11-24 15:18:31 +0000";
layers = (
{
hints = (
{
horizontal = 1;
place = (-10,369);
type = Stem;
},
{
horizontal = 1;
place = (560,160);
type = Stem;
},
{
place = (230,63);
type = Stem;
},
{
place = (361,195);
type = Stem;
},
{
horizontal = 1;
place = (0,160);
type = Stem;
},
{
horizontal = 1;
place = (290,160);
type = Stem;
},
{
place = (293,63);
type = Stem;
},
{
place = (392,155);
type = Stem;
},
{
horizontal = 1;
place = (361,212);
type = Stem;
}
);
layerId = "C10BC21D-E45C-40C5-B032-7ED8CDD0420E";
shapes = (
{
closed = 1;
nodes = (
(330,-10,o),
(363,-6,o),
(392,1,c),
(392,0,l),
(762,0,l),
(792,160,l),
(547,160,l),
(547,290,l),
(713,290,l),
(743,450,l),
(547,450,l),
(547,560,l),
(755,560,l),
(785,720,l),
(379,720,l),
(354,725,o),
(325,728,o),
(293,728,cs),
(97,728,o),
(20,640,o),
(20,359,cs),
(20,78,o),
(97,-10,o),
(293,-10,cs)
);
},
{
closed = 1;
nodes = (
(244,145,o),
(230,190,o),
(230,361,cs),
(230,532,o),
(244,573,o),
(293,573,cs),
(342,573,o),
(356,532,o),
(356,361,cs),
(356,190,o),
(342,145,o),
(293,145,cs)
);
}
);
width = 807;
}
);
metricLeft = O;
metricRight = E;
note = OE;
unicode = 338;
},
{
color = 4;
glyphname = P;
kernLeft = B;
lastChange = "2023-04-28 10:36:49 +0000";
layers = (
{
hints = (
{
horizontal = 1;
place = (0,21);
target = up;
type = BottomGhost;
},
{
horizontal = 1;
place = (195,144);
type = Stem;
},
{
horizontal = 1;
place = (577,143);
type = Stem;
},
{
place = (32,205);
type = Stem;
},
{
place = (227,76);
type = Stem;
}
);
layerId = "C10BC21D-E45C-40C5-B032-7ED8CDD0420E";
shapes = (
{
closed = 1;
nodes = (
(250,0,l),
(250,195,l),
(288,195,ls),
(467,195,o),
(554,271,o),
(554,455,cs),
(554,655,o),
(467,720,o),
(288,720,cs),
(0,720,l),
(55,583,l),
(55,0,l)
);
},
{
closed = 1;
nodes = (
(250,579,l),
(324,579,o),
(345,559,o),
(345,457,cs),
(345,368,o),
(314,338,o),
(250,338,c)
);
}
);
width = 569;
}
);
note = P;
unicode = 80;
},
{
color = 4;
glyphname = Thorn;
kernLeft = H;
lastChange = "2023-11-24 15:46:07 +0000";
layers = (
{
background = {
hints = (
{
horizontal = 1;
place = (-89,21);
target = up;
type = BottomGhost;
},
{
horizontal = 1;
place = (106,144);
type = Stem;
},
{
horizontal = 1;
place = (488,143);
type = Stem;
},
{
place = (22,205);
type = Stem;
},
{
place = (217,76);
type = Stem;
}
);
shapes = (
{
closed = 1;
nodes = (
(-10,631,l),
(45,494,l),
(45,-89,l),
(240,-89,l),
(240,106,l),
(278,106,ls),
(457,106,o),
(544,182,o),
(544,366,cs),
(544,566,o),
(457,631,o),
(278,631,cs)
);
},
{
closed = 1;
nodes = (
(240,490,l),
(314,490,o),
(335,470,o),
(335,368,cs),
(335,279,o),
(304,249,o),
(240,249,c)
);
}
);
};
hints = (
{
horizontal = 1;
place = (0,21);
target = up;
type = BottomGhost;
},
{
horizontal = 1;
place = (195,144);
type = Stem;
},
{
horizontal = 1;
place = (487,145);
type = Stem;
},
{
horizontal = 1;
place = (721,-20);
target = down;
type = TopGhost;
},
{
place = (45,195);
type = Stem;
},
{
place = (321,210);
type = Stem;
},
{
horizontal = 1;
place = (107,146);
type = Stem;
},
{
place = (218,76);
type = Stem;
},
{
horizontal = 1;
place = (577,143);
type = Stem;
}
);
layerId = "C10BC21D-E45C-40C5-B032-7ED8CDD0420E";
shapes = (
{
closed = 1;
nodes = (
(241,0,l),
(241,106,l),
(279,106,ls),
(458,106,o),
(544,183,o),
(544,367,cs),
(544,567,o),
(458,631,o),
(279,631,cs),
(239,631,l),
(239,721,l),
(45,721,l),
(45,0,l)
);
},
{
closed = 1;
nodes = (
(240,490,l),
(314,490,o),
(335,470,o),
(335,368,cs),
(335,279,o),
(304,249,o),
(240,249,c)
);
}
);
width = 559;
}
);
metricLeft = "=H";
metricRight = P;
note = Thorn;
unicode = 222;
},
{
color = 4;
glyphname = Q;
kernLeft = C;
kernRight = D;
lastChange = "2023-04-28 10:36:49 +0000";
layers = (
{
hints = (
{
horizontal = 1;
place = (-151,21);
target = up;
type = BottomGhost;
},
{
horizontal = 1;
place = (73,-20);
target = down;
type = TopGhost;
},
{
horizontal = 1;
place = (573,155);
type = Stem;
},
{
place = (20,210);
type = Stem;
},
{
place = (356,210);
type = Stem;
},
{
horizontal = 1;
place = (-10,155);
type = Stem;
}
);
layerId = "C10BC21D-E45C-40C5-B032-7ED8CDD0420E";
shapes = (
{
closed = 1;
nodes = (
(368,-151,l),
(553,-45,l),
(537,-7,o),
(510,22,o),
(480,44,c),
(540,97,o),
(566,196,o),
(566,359,cs),
(566,640,o),
(489,728,o),
(293,728,cs),
(97,728,o),
(20,640,o),
(20,359,cs),
(20,80,o),
(95,-8,o),
(288,-10,c)
);
},
{
closed = 1;
nodes = (
(356,190,o),
(342,145,o),
(293,145,cs),
(244,145,o),
(230,190,o),
(230,361,cs),
(230,532,o),
(244,573,o),
(293,573,cs),
(342,573,o),
(356,532,o),
(356,361,cs)
);
}
);
width = 586;
}
);
note = Q;
unicode = 81;
},
{
color = 4;
glyphname = R;
kernLeft = B;
kernRight = R;
lastChange = "2023-04-28 10:36:49 +0000";
layers = (
{
anchors = (
{
name = bottom;
pos = (301,-35);
},
{
name = top.case;
pos = (283,740);
}
);
hints = (
{
horizontal = 1;
place = (0,21);
target = up;
type = BottomGhost;
},
{
horizontal = 1;
place = (246,80);
type = Stem;
},
{
horizontal = 1;
place = (579,141);
type = Stem;
},
{
place = (55,195);
type = Stem;
},
{
place = (331,200);
type = Stem;
},
{
horizontal = 1;
place = (234,92);
type = Stem;
},
{
horizontal = 1;
place = (246,122);
type = Stem;
}
);
layerId = "C10BC21D-E45C-40C5-B032-7ED8CDD0420E";
shapes = (
{
closed = 1;
nodes = (
(0,720,l),
(55,583,l),
(55,0,l),
(250,0,l),
(250,234,l),
(282,234,l),
(361,0,l),
(578,0,l),
(456,277,l),
(519,316,o),
(549,378,o),
(549,479,cs),
(549,661,o),
(460,720,o),
(284,720,cs)
);
},
{
closed = 1;
nodes = (
(250,579,l),
(320,579,o),
(340,563,o),
(340,472,cs),
(340,394,o),
(311,368,o),
(250,368,c)
);
}
);
width = 583;
}
);
note = R;
unicode = 82;
},
{
color = 4;
glyphname = S;
kernLeft = S;
kernRight = S;
lastChange = "2023-04-28 10:51:23 +0000";
layers = (
{
anchors = (
{
name = bottom;
pos = (244,-35);
},
{
name = cedilla;
pos = (247,10);
},
{
name = top.case;
pos = (294,740);
}
);
background = {
shapes = (
{
closed = 1;
nodes = (
(458,708,l),
(458,708,o),
(377,729,o),
(279,729,cs),
(102,728,o),
(31,656,o),
(31,509,cs),
(31,394,o),
(71,342,o),
(143,306,cs),
(240,257,ls),
(269,242,o),
(281,232,o),
(281,210,cs),
(281,176,o),
(255,163,o),
(207,163,cs),
(118,163,o),
(43,179,o),
(43,179,c),
(25,18,l),
(79,3,o),
(149,-10,o),
(229,-10,cs),
(406,-9,o),
(478,74,o),
(478,222,cs),
(478,331,o),
(437,378,o),
(365,415,cs),
(276,460,ls),
(247,475,o),
(230,486,o),
(230,508,cs),
(230,546,o),
(255,558,o),
(303,558,cs),
(362,558,o),
(440,547,o),
(440,547,c)
);
}
);
};
hints = (
{
horizontal = 1;
place = (-10,174);
type = Stem;
},
{
horizontal = 1;
place = (568,160);
type = Stem;
},
{
place = (20,191);
type = Stem;
},
{
place = (277,212);
type = Stem;
}
);
layerId = "C10BC21D-E45C-40C5-B032-7ED8CDD0420E";
shapes = (
{
closed = 1;
nodes = (
(127,163,o),
(45,179,o),
(45,179,c),
(25,18,l),
(84,3,o),
(161,-10,o),
(249,-10,cs),
(426,-9,o),
(498,74,o),
(498,222,cs),
(498,331,o),
(459,383,o),
(368,423,cs),
(283,460,ls),
(250,474,o),
(230,486,o),
(230,508,cs),
(230,546,o),
(255,558,o),
(303,558,cs),
(371,558,o),
(458,547,o),
(458,547,c),
(478,708,l),
(478,708,o),
(388,729,o),
(279,729,cs),
(102,728,o),
(31,656,o),
(31,509,cs),
(31,394,o),
(75,342,o),
(154,306,cs),
(260,257,ls),
(290,243,o),
(301,232,o),
(301,210,cs),
(301,176,o),
(275,163,o),
(225,163,cs)
);
}
);
width = 523;
}
);
note = S;
unicode = 83;
},
{
color = 4;
glyphname = Germandbls;
lastChange = "2023-04-28 10:51:14 +0000";
layers = (
{
background = {
shapes = (
{
closed = 1;
nodes = (
(280,6,l),
(321,-4,o),
(364,-10,o),
(405,-10,cs),
(546,-10,o),
(667,53,o),
(667,194,cs),
(667,296,o),
(604,382,o),
(405,382,c),
(496,329,l),
(628,539,l),
(628,660,l),
(544,707,o),
(444,728,o),
(350,728,cs),
(165,728,o),
(40,640,o),
(40,511,cs),
(40,0,l),
(235,0,l),
(235,500,ls),
(235,548,o),
(262,578,o),
(356,578,cs),
(399,578,o),
(447,572,o),
(490,551,c),
(467,608,l),
(337,398,l),
(337,286,l),
(365,286,ls),
(437,286,o),
(465,263,o),
(465,217,cs),
(465,167,o),
(425,148,o),
(371,148,cs),
(348,148,o),
(321,152,o),
(295,158,c),
(324,258,l),
(288,-56,l)
);
}
);
};
guides = (
{
angle = 90;
pos = (323,664);
},
{
pos = (342,573);
},
{
pos = (134,457);
}
);
layerId = "C10BC21D-E45C-40C5-B032-7ED8CDD0420E";
shapes = (
{
closed = 1;
nodes = (
(246,6,l),
(276,-4,o),
(319,-10,o),
(360,-10,cs),
(501,-10,o),
(622,53,o),
(622,194,cs),
(622,296,o),
(559,382,o),
(360,382,c),
(451,329,l),
(583,539,l),
(583,653,l),
(502,703,o),
(406,728,o),
(319,728,cs),
(162,728,o),
(40,651,o),
(40,499,cs),
(40,0,l),
(235,0,l),
(235,498,ls),
(235,553,o),
(271,576,o),
(318,576,cs),
(354,576,o),
(395,563,o),
(431,538,c),
(422,608,l),
(292,398,l),
(292,286,l),
(320,286,ls),
(392,286,o),
(420,263,o),
(420,217,cs),
(420,167,o),
(380,148,o),
(326,148,cs),
(303,148,o),
(276,152,o),
(250,158,c),
(294,200,l),
(275,-41,l)
);
}
);
width = 637;
}
);
unicode = 7838;
},
{
color = 4;
glyphname = T;
kernLeft = T;
kernRight = T;
lastChange = "2023-04-28 10:51:46 +0000";
layers = (
{
anchors = (
{
name = bottom;
pos = (246,-35);
},
{
name = cedilla;
pos = (249,10);
},
{
name = top.case;
pos = (260,740);
}
);
hints = (
{
horizontal = 1;
place = (0,21);
target = up;
type = BottomGhost;
},
{
horizontal = 1;
place = (560,160);
type = Stem;
},
{
place = (156,196);
type = Stem;
}
);
layerId = "C10BC21D-E45C-40C5-B032-7ED8CDD0420E";
shapes = (
{
closed = 1;
nodes = (
(514,720,l),
(10,720,l),
(10,560,l),
(156,560,l),
(156,0,l),
(352,0,l),
(352,560,l),
(484,560,l)
);
}
);
width = 519;
}
);
note = T;
unicode = 84;
},
{
color = 4;
glyphname = Tbar;
kernLeft = T;
kernRight = T;
lastChange = "2023-11-24 15:18:31 +0000";
layers = (
{
background = {
anchors = (
{
name = bottom;
pos = (237,15);
},
{
name = caron;
pos = (385,648);
},
{
name = cedilla;
pos = (224,60);
}
);
hints = (
{
horizontal = 1;
place = (40,-20);
target = down;
type = TopGhost;
},
{
horizontal = 1;
place = (201,424);
type = Stem;
},
{
place = (260,109);
type = Stem;
},
{
horizontal = 1;
place = (351,75);
type = Stem;
},
{
horizontal = 1;
place = (625,21);
target = up;
type = BottomGhost;
},
{
horizontal = 1;
place = (40,-20);
target = down;
type = TopGhost;
},
{
horizontal = 1;
place = (201,424);
type = Stem;
},
{
horizontal = 1;
place = (625,21);
target = up;
type = BottomGhost;
},
{
place = (260,109);
type = Stem;
}
);
shapes = (
{
closed = 1;
nodes = (
(373,331,l),
(373,426,l),
(10,426,l),
(10,331,l)
);
},
{
closed = 1;
nodes = (
(265,751,l),
(85,751,l),
(85,625,l),
(10,625,l),
(10,490,l),
(85,490,l),
(85,221,ls),
(85,85,o),
(147,40,o),
(270,40,cs),
(331,40,o),
(393,62,o),
(434,89,c),
(374,20,l),
(374,241,l),
(390,196,l),
(381,194,o),
(362,187,o),
(326,187,cs),
(283,187,o),
(265,203,o),
(265,241,cs),
(265,490,l),
(374,490,l),
(374,625,l),
(265,625,l)
);
}
);
};
hints = (
{
horizontal = 1;
place = (0,21);
target = up;
type = BottomGhost;
},
{
horizontal = 1;
place = (338,83);
type = Stem;
},
{
horizontal = 1;
place = (560,160);
type = Stem;
},
{
place = (156,196);
type = Stem;
}
);
layerId = "C10BC21D-E45C-40C5-B032-7ED8CDD0420E";
shapes = (
{
closed = 1;
nodes = (
(458,331,l),
(458,426,l),
(49,426,l),
(49,331,l)
);
},
{
ref = T;
}
);
width = 519;
}
);
metricLeft = T;
metricRight = T;
note = Tbar;
unicode = 358;
},
{
color = 4;
glyphname = U;
kernLeft = U;
kernRight = J;
lastChange = "2023-04-28 11:00:04 +0000";
layers = (
{
anchors = (
{
name = bottom;
pos = (285,-35);
},
{
name = horn;
pos = (482,720);
},
{
name = ogonek;
pos = (346,10);
},
{
name = top.case;
pos = (285,740);
}
);
hints = (
{
horizontal = 1;
place = (-10,155);
type = Stem;
},
{
horizontal = 1;
place = (720,-20);
target = down;
type = TopGhost;
},
{
place = (40,195);
type = Stem;
},
{
place = (335,195);
type = Stem;
}
);
layerId = "C10BC21D-E45C-40C5-B032-7ED8CDD0420E";
shapes = (
{
closed = 1;
nodes = (
(235,720,l),
(40,720,l),
(40,254,ls),
(40,69,o),
(119,-10,o),
(285,-10,cs),
(451,-10,o),
(530,69,o),
(530,254,cs),
(530,720,l),
(335,720,l),
(335,245,ls),
(335,174,o),
(321,145,o),
(285,145,cs),
(250,145,o),
(235,174,o),
(235,245,cs)
);
}
);
width = 570;
}
);
note = U;
unicode = 85;
},
{
color = 4;
glyphname = V;
kernLeft = V;
kernRight = V;
lastChange = "2023-04-28 11:09:01 +0000";
layers = (
{
hints = (
{
horizontal = 1;
place = (0,21);
target = up;
type = BottomGhost;
},
{
horizontal = 1;
place = (720,-20);
target = down;
type = TopGhost;
}
);
layerId = "C10BC21D-E45C-40C5-B032-7ED8CDD0420E";
shapes = (
{
closed = 1;
nodes = (
(169,0,l),
(401,0,l),
(565,720,l),
(368,720,l),
(323,419,l),
(289,213,l),
(258,419,l),
(213,720,l),
(5,720,l)
);
}
);
width = 570;
}
);
note = V;
unicode = 86;
},
{
color = 4;
glyphname = W;
kernLeft = V;
kernRight = V;
lastChange = "2023-11-24 15:21:41 +0000";
layers = (
{
anchors = (
{
name = top.case;
pos = (423,740);
}
);
background = {
shapes = (
{
closed = 1;
nodes = (
(299,278,l),
(258,720,l),
(50,720,l),
(174,0,l),
(355,0,l),
(423,249,l),
(491,0,l),
(672,0,l),
(796,720,l),
(588,720,l),
(547,278,l),
(476,527,l),
(370,527,l)
);
}
);
};
guides = (
{
angle = 90;
pos = (423,640);
}
);
hints = (
{
horizontal = 1;
place = (0,21);
target = up;
type = BottomGhost;
},
{
horizontal = 1;
place = (720,-20);
target = down;
type = TopGhost;
}
);
layerId = "C10BC21D-E45C-40C5-B032-7ED8CDD0420E";
shapes = (
{
closed = 1;
nodes = (
(325,0,l),
(425,424,l),
(521,0,l),
(712,0,l),
(826,720,l),
(618,720,l),
(585,277,l),
(501,622,l),
(345,622,l),
(262,280,l),
(228,720,l),
(20,720,l),
(134,0,l)
);
}
);
width = 846;
}
);
note = W;
unicode = 87;
},
{
color = 4;
glyphname = X;
kernRight = K;
lastChange = "2023-04-28 11:09:01 +0000";
layers = (
{
hints = (
{
horizontal = 1;
place = (0,21);
target = up;
type = BottomGhost;
},
{
horizontal = 1;
place = (720,-20);
target = down;
type = TopGhost;
}
);
layerId = "C10BC21D-E45C-40C5-B032-7ED8CDD0420E";
shapes = (
{
closed = 1;
nodes = (
(8,720,l),
(149,356,l),
(9,0,l),
(198,0,l),
(278,214,l),
(355,0,l),
(555,0,l),
(423,346,l),
(555,720,l),
(365,720,l),
(293,493,l),
(208,720,l)
);
}
);
width = 563;
}
);
note = X;
unicode = 88;
},
{
color = 4;
glyphname = Y;
kernLeft = Y;
kernRight = Y;
lastChange = "2023-04-28 11:09:01 +0000";
layers = (
{
anchors = (
{
name = bottom;
pos = (284,-35);
},
{
name = top.case;
pos = (285,740);
}
);
hints = (
{
horizontal = 1;
place = (0,21);
target = up;
type = BottomGhost;
},
{
horizontal = 1;
place = (220,162);
type = Stem;
},
{
horizontal = 1;
place = (720,-20);
target = down;
type = TopGhost;
},
{
place = (187,195);
type = Stem;
}
);
layerId = "C10BC21D-E45C-40C5-B032-7ED8CDD0420E";
shapes = (
{
closed = 1;
nodes = (
(187,0,l),
(382,0,l),
(382,220,l),
(565,720,l),
(365,720,l),
(307,508,l),
(291,420,l),
(289,420,l),
(273,508,l),
(215,720,l),
(5,720,l),
(187,220,l)
);
}
);
width = 570;
}
);
note = Y;
unicode = 89;
},
{
color = 4;
glyphname = Z;
kernLeft = Z;
kernRight = Z;
lastChange = "2023-04-28 11:09:01 +0000";
layers = (
{
anchors = (
{
name = bottom;
pos = (264,-35);
},
{
name = top.case;
pos = (253,740);
}
);
hints = (
{
horizontal = 1;
place = (0,160);
type = Stem;
},
{
horizontal = 1;
place = (560,160);
type = Stem;
}
);
layerId = "C10BC21D-E45C-40C5-B032-7ED8CDD0420E";
shapes = (
{
closed = 1;
nodes = (
(25,560,l),
(244,560,l),
(15,121,l),
(15,0,l),
(491,0,l),
(491,160,l),
(256,160,l),
(486,599,l),
(486,720,l),
(25,720,l)
);
}
);
width = 506;
}
);
note = Z;
unicode = 90;
},
{
color = 4;
glyphname = a;
kernLeft = a;
kernRight = a;
lastChange = "2023-04-28 14:12:04 +0000";
layers = (
{
anchors = (
{
name = bottom;
pos = (270,-35);
},
{
name = ogonek;
pos = (357,10);
},
{
name = top;
pos = (258,605);
}
);
background = {
shapes = (
{
closed = 1;
nodes = (
(263,687,o),
(203,657,c),
(236,618,l),
(375,654,o),
(374,825,o),
(225,825,cs),
(200,825,o),
(172,820,o),
(150,813,c),
(150,747,l),
(160,753,o),
(181,758,o),
(200,758,cs),
(272,758,o)
);
}
);
};
hints = (
{
horizontal = 1;
place = (-10,132);
type = Stem;
},
{
horizontal = 1;
place = (140,24);
type = Stem;
},
{
horizontal = 1;
place = (338,86);
type = Stem;
},
{
place = (195,42);
type = Stem;
},
{
place = (267,25);
type = Stem;
},
{
horizontal = 1;
place = (421,21);
target = up;
type = BottomGhost;
}
);
layerId = "C10BC21D-E45C-40C5-B032-7ED8CDD0420E";
shapes = (
{
closed = 1;
nodes = (
(215,-10,o),
(258,7,o),
(292,43,c),
(304,0,l),
(460,0,l),
(460,421,ls),
(460,550,o),
(366,583,o),
(257,583,cs),
(191,583,o),
(126,569,o),
(66,556,c),
(66,416,l),
(112,433,o),
(158,443,o),
(209,443,cs),
(250,443,o),
(280,432,o),
(280,393,cs),
(280,338,l),
(237,338,ls),
(109,338,o),
(20,278,o),
(20,164,cs),
(20,53,o),
(94,-10,o),
(174,-10,cs)
);
},
{
closed = 1;
nodes = (
(218,122,o),
(195,143,o),
(195,181,cs),
(195,219,o),
(227,239,o),
(267,239,cs),
(280,239,l),
(280,140,l),
(269,128,o),
(256,122,o),
(244,122,cs)
);
}
);
width = 495;
}
);
note = a;
unicode = 97;
},
{
color = 4;
glyphname = aringacute;
kernLeft = a;
kernRight = a;
lastChange = "2023-11-24 15:18:31 +0000";
layers = (
{
background = {
shapes = (
{
closed = 1;
nodes = (
(280,140,l),
(269,128,o),
(256,122,o),
(244,122,cs),
(218,122,o),
(195,143,o),
(195,181,cs),
(195,219,o),
(227,239,o),
(267,239,cs),
(280,239,l)
);
},
{
closed = 1;
nodes = (
(191,583,o),
(126,569,o),
(66,556,c),
(66,416,l),
(112,433,o),
(158,443,o),
(209,443,cs),
(250,443,o),
(280,432,o),
(280,393,cs),
(280,338,l),
(237,338,ls),
(109,338,o),
(20,278,o),
(20,164,cs),
(20,53,o),
(94,-10,o),
(174,-10,cs),
(215,-10,o),
(258,7,o),
(292,43,c),
(304,0,l),
(460,0,l),
(460,421,ls),
(460,550,o),
(366,583,o),
(257,583,cs)
);
},
{
closed = 1;
nodes = (
(398,756,o),
(357,783,o),
(262,783,cs),
(164,783,o),
(123,756,o),
(123,689,cs),
(123,626,o),
(164,599,o),
(262,599,cs),
(357,599,o),
(398,626,o),
(398,689,cs)
);
},
{
closed = 1;
nodes = (
(229,718,o),
(244,726,o),
(262,726,cs),
(276,726,o),
(293,718,o),
(293,690,cs),
(293,664,o),
(276,656,o),
(262,656,cs),
(244,656,o),
(229,664,o),
(229,690,cs)
);
},
{
closed = 1;
nodes = (
(179,793,l),
(330,793,l),
(420,928,l),
(230,928,l)
);
}
);
};
hints = (
{
horizontal = 1;
place = (-10,132);
type = Stem;
},
{
horizontal = 1;
place = (140,24);
type = Stem;
},
{
horizontal = 1;
place = (338,86);
type = Stem;
},
{
horizontal = 1;
place = (599,57);
type = Stem;
},
{
horizontal = 1;
place = (726,57);
type = Stem;
},
{
horizontal = 1;
place = (793,135);
type = Stem;
},
{
place = (195,42);
type = Stem;
},
{
place = (267,25);
type = Stem;
},
{
place = (293,105);
type = Stem;
},
{
horizontal = 1;
place = (421,21);
target = up;
type = BottomGhost;
},
{
place = (123,106);
type = Stem;
}
);
layerId = "C10BC21D-E45C-40C5-B032-7ED8CDD0420E";
shapes = (
{
ref = a;
},
{
pos = (258,0);
ref = ringcomb;
},
{
alignment = -1;
pos = (290,123);
ref = acutecomb;
}
);
width = 495;
}
);
note = aringacute;
unicode = 507;
},
{
color = 4;
glyphname = ae;
kernLeft = a;
kernRight = e;
lastChange = "2023-11-24 14:34:08 +0000";
layers = (
{
anchors = (
{
name = top;
pos = (387,605);
}
);
background = {
anchors = (
{
name = bottom;
pos = (532,-35);
},
{
name = ogonek;
pos = (581,10);
},
{
name = top;
pos = (499,605);
}
);
hints = (
{
horizontal = 1;
place = (7,336);
type = Stem;
},
{
place = (269,330);
type = Stem;
},
{
horizontal = 1;
place = (232,206);
type = Stem;
},
{
place = (588,0);
type = Stem;
}
);
shapes = (
{
closed = 1;
nodes = (
(583,-10,o),
(636,-2,o),
(683,7,c),
(683,143,l),
(652,136,o),
(619,130,o),
(588,130,cs),
(481,130,o),
(458,161,o),
(458,291,cs),
(458,401,o),
(473,451,o),
(506,451,cs),
(554,451,o),
(537,320,o),
(542,301,c),
(622,343,l),
(436,343,l),
(436,232,l),
(699,232,l),
(705,264,o),
(708,305,o),
(708,343,cs),
(708,501,o),
(646,583,o),
(499,583,cs),
(337,583,o),
(269,483,o),
(269,288,cs),
(269,48,o),
(376,-10,o),
(533,-10,cs)
);
}
);
};
hints = (
{
horizontal = 1;
place = (0,21);
type = Stem;
},
{
horizontal = 1;
place = (140,24);
type = Stem;
},
{
horizontal = 1;
place = (288,295);
type = Stem;
},
{
place = (-337,42);
type = Stem;
},
{
place = (-265,25);
type = Stem;
},
{
place = (0,21);
type = Stem;
},
{
place = (195,42);
type = Stem;
},
{
place = (267,25);
type = Stem;
},
{
place = (499,0);
type = Stem;
},
{
place = (512,0);
type = Stem;
},
{
place = (565,125);
type = Stem;
},
{
horizontal = 1;
place = (232,56);
type = Stem;
},
{
horizontal = 1;
place = (338,86);
type = Stem;
},
{
horizontal = 1;
place = (-10,132);
type = Stem;
},
{
horizontal = 1;
place = (421,21);
target = up;
type = BottomGhost;
},
{
horizontal = 1;
place = (7,336);
type = Stem;
},
{
place = (683,0);
type = Stem;
},
{
horizontal = 1;
place = (232,206);
type = Stem;
}
);
layerId = "C10BC21D-E45C-40C5-B032-7ED8CDD0420E";
shapes = (
{
closed = 1;
nodes = (
(227,-10,o),
(290,17,o),
(331,69,c),
(412,-29,o),
(561,-16,o),
(683,7,c),
(683,143,l),
(644,135,o),
(610,130,o),
(581,130,cs),
(475,130,o),
(458,174,o),
(458,292,cs),
(458,393,o),
(471,451,o),
(507,451,cs),
(538,451,o),
(543,385,o),
(542,343,c),
(426,343,l),
(426,232,l),
(697,232,l),
(703,264,o),
(708,305,o),
(708,343,cs),
(708,458,o),
(677,583,o),
(499,583,cs),
(456,583,o),
(419,574,o),
(387,557,c),
(351,576,o),
(306,583,o),
(257,583,cs),
(191,583,o),
(126,569,o),
(66,556,c),
(66,416,l),
(112,433,o),
(154,443,o),
(205,443,cs),
(246,443,o),
(280,432,o),
(280,393,cs),
(280,338,l),
(237,338,ls),
(109,338,o),
(20,278,o),
(20,164,cs),
(20,53,o),
(94,-10,o),
(174,-10,cs)
);
},
{
closed = 1;
nodes = (
(218,122,o),
(195,143,o),
(195,181,cs),
(195,219,o),
(227,239,o),
(267,239,cs),
(280,239,l),
(280,140,l),
(269,128,o),
(256,122,o),
(244,122,cs)
);
}
);
width = 723;
}
);
metricLeft = a;
metricRight = e;
note = ae;
unicode = 230;
},
{
color = 4;
glyphname = b;
kernLeft = b;
kernRight = b;
lastChange = "2023-11-24 15:20:28 +0000";
layers = (
{
hints = (
{
horizontal = 1;
place = (0,21);
target = up;
type = BottomGhost;
},
{
horizontal = 1;
place = (443,140);
type = Stem;
},
{
horizontal = 1;
place = (755,-20);
target = down;
type = TopGhost;
},
{
place = (40,180);
type = Stem;
},
{
place = (336,186);
type = Stem;
},
{
horizontal = 1;
place = (-10,139);
type = Stem;
}
);
layerId = "C10BC21D-E45C-40C5-B032-7ED8CDD0420E";
shapes = (
{
closed = 1;
nodes = (
(428,-10,o),
(518,75,o),
(518,294,cs),
(518,445,o),
(480,583,o),
(334,583,cs),
(290,583,o),
(249,567,o),
(220,541,c),
(220,755,l),
(40,729,l),
(40,34,l),
(96,6,o),
(176,-10,o),
(259,-10,cs)
);
},
{
closed = 1;
nodes = (
(249,130,o),
(235,132,o),
(220,136,c),
(220,426,l),
(242,438,o),
(261,443,o),
(275,443,cs),
(319,443,o),
(332,404,o),
(332,299,cs),
(332,186,o),
(322,130,o),
(261,130,cs)
);
}
);
width = 538;
}
);
note = b;
unicode = 98;
},
{
color = 4;
glyphname = c;
kernLeft = c;
kernRight = c;
lastChange = "2023-04-28 11:18:11 +0000";
layers = (
{
anchors = (
{
name = bottom;
pos = (271,-35);
},
{
name = cedilla;
pos = (267,10);
},
{
name = top;
pos = (294,605);
}
);
background = {
shapes = (
{
closed = 1;
nodes = (
(319,-10,o),
(381,-4,o),
(423,8,c),
(423,150,l),
(297,117,o),
(206,119,o),
(206,286,cs),
(206,403,o),
(236,442,o),
(296,442,c),
(316,338,l),
(419,338,l),
(419,565,l),
(377,577,o),
(316,583,o),
(270,583,cs),
(145,583,o),
(20,505,o),
(20,288,cs),
(20,53,o),
(130,-10,o),
(273,-10,cs)
);
}
);
};
hints = (
{
horizontal = 1;
place = (148,295);
type = Stem;
},
{
place = (424,0);
type = Stem;
},
{
horizontal = 1;
place = (-10,575);
type = Stem;
}
);
layerId = "C10BC21D-E45C-40C5-B032-7ED8CDD0420E";
shapes = (
{
closed = 1;
nodes = (
(319,-10,o),
(381,-4,o),
(423,8,c),
(423,150,l),
(297,117,o),
(206,119,o),
(206,286,cs),
(206,403,o),
(236,442,o),
(296,442,c),
(316,338,l),
(419,338,l),
(419,563,l),
(377,576,o),
(341,583,o),
(295,583,cs),
(152,583,o),
(20,516,o),
(20,288,cs),
(20,53,o),
(130,-10,o),
(273,-10,cs)
);
}
);
width = 445;
}
);
note = c;
unicode = 99;
},
{
color = 4;
glyphname = cdotaccent;
kernLeft = c;
kernRight = c;
lastChange = "2023-04-28 11:18:20 +0000";
layers = (
{
hints = (
{
horizontal = 1;
place = (148,295);
type = Stem;
},
{
horizontal = 1;
place = (606,173);
type = Stem;
},
{
place = (171,190);
type = Stem;
},
{
place = (424,0);
type = Stem;
},
{
horizontal = 1;
place = (-10,575);
type = Stem;
}
);
layerId = "C10BC21D-E45C-40C5-B032-7ED8CDD0420E";
shapes = (
{
closed = 1;
nodes = (
(316,338,l),
(419,338,l),
(419,565,l),
(377,577,o),
(316,583,o),
(270,583,cs),
(145,583,o),
(20,505,o),
(20,288,cs),
(20,53,o),
(130,-10,o),
(273,-10,cs),
(319,-10,o),
(381,-4,o),
(423,8,c),
(423,150,l),
(297,117,o),
(206,119,o),
(206,286,cs),
(206,403,o),
(236,442,o),
(296,442,c)
);
},
{
closed = 1;
nodes = (
(171,619,l),
(361,619,l),
(361,755,l),
(171,755,l)
);
}
);
width = 445;
}
);
note = cdotaccent;
unicode = 267;
},
{
color = 4;
glyphname = d;
kernLeft = c;
kernRight = d;
lastChange = "2023-04-28 11:18:11 +0000";
layers = (
{
anchors = (
{
name = caron;
pos = (601,568);
}
);
hints = (
{
horizontal = 1;
place = (0,21);
target = up;
type = BottomGhost;
},
{
horizontal = 1;
place = (444,139);
type = Stem;
},
{
horizontal = 1;
place = (755,-20);
target = down;
type = TopGhost;
},
{
place = (16,186);
type = Stem;
},
{
place = (318,180);
type = Stem;
},
{
horizontal = 1;
place = (-10,138);
type = Stem;
}
);
layerId = "C10BC21D-E45C-40C5-B032-7ED8CDD0420E";
shapes = (
{
closed = 1;
nodes = (
(255,-10,o),
(300,10,o),
(330,44,c),
(345,0,l),
(498,0,l),
(498,755,l),
(318,728,l),
(318,565,l),
(282,577,o),
(250,583,o),
(220,583,cs),
(90,583,o),
(20,498,o),
(20,279,cs),
(20,128,o),
(58,-10,o),
(204,-10,cs)
);
},
{
closed = 1;
nodes = (
(219,130,o),
(206,169,o),
(206,274,cs),
(206,387,o),
(216,443,o),
(277,443,cs),
(289,443,o),
(303,441,o),
(318,437,c),
(318,147,l),
(296,135,o),
(277,130,o),
(263,130,cs)
);
}
);
width = 538;
}
);
note = d;
unicode = 100;
},
{
color = 4;
glyphname = dcroat;
kernLeft = c;
kernRight = d;
lastChange = "2023-11-24 15:18:31 +0000";
layers = (
{
background = {
shapes = (
{
closed = 1;
nodes = (
(90,530,o),
(20,448,o),
(20,238,cs),
(20,93,o),
(58,-40,o),
(204,-40,cs),
(255,-40,o),
(300,-20,o),
(330,14,c),
(345,-30,l),
(498,-30,l),
(498,586,l),
(543,586,l),
(543,661,l),
(498,661,l),
(498,725,l),
(318,698,l),
(318,661,l),
(239,661,l),
(239,586,l),
(318,586,l),
(318,512,l),
(282,524,o),
(250,530,o),
(220,530,cs)
);
},
{
closed = 1;
nodes = (
(289,389,o),
(303,387,o),
(318,383,c),
(318,117,l),
(296,105,o),
(277,100,o),
(263,100,cs),
(219,100,o),
(206,136,o),
(206,233,cs),
(206,337,o),
(216,389,o),
(277,389,cs)
);
}
);
};
guides = (
{
pos = (-40,530);
}
);
hints = (
{
horizontal = 1;
place = (-10,138);
type = Stem;
},
{
horizontal = 1;
place = (444,139);
type = Stem;
},
{
horizontal = 1;
place = (616,75);
type = Stem;
},
{
horizontal = 1;
place = (755,-20);
target = down;
type = TopGhost;
},
{
place = (20,186);
type = Stem;
},
{
place = (322,180);
type = Stem;
},
{
horizontal = 1;
place = (0,21);
target = up;
type = BottomGhost;
}
);
layerId = "C10BC21D-E45C-40C5-B032-7ED8CDD0420E";
shapes = (
{
closed = 1;
nodes = (
(255,-10,o),
(300,10,o),
(330,44,c),
(345,0,l),
(498,0,l),
(498,616,l),
(543,616,l),
(543,691,l),
(498,691,l),
(498,755,l),
(318,728,l),
(318,691,l),
(239,691,l),
(239,616,l),
(318,616,l),
(318,513,l),
(282,524,o),
(250,530,o),
(220,530,cs),
(90,530,o),
(20,452,o),
(20,253,cs),
(20,116,o),
(58,-10,o),
(204,-10,cs)
);
},
{
closed = 1;
nodes = (
(219,130,o),
(206,162,o),
(206,249,cs),
(206,342,o),
(216,388,o),
(277,388,cs),
(289,388,o),
(303,386,o),
(318,383,c),
(318,145,l),
(296,134,o),
(277,130,o),
(263,130,cs)
);
}
);
width = 543;
}
);
metricLeft = d;
note = dcroat;
unicode = 273;
},
{
color = 4;
glyphname = eth;
kernLeft = c;
kernRight = b;
lastChange = "2023-04-28 11:18:11 +0000";
layers = (
{
hints = (
{
horizontal = 1;
place = (-10,141);
type = Stem;
},
{
horizontal = 1;
place = (442,141);
type = Stem;
},
{
horizontal = 1;
place = (763,-20);
target = down;
type = TopGhost;
},
{
place = (20,186);
type = Stem;
},
{
place = (329,185);
type = Stem;
},
{
horizontal = 1;
place = (398,114);
type = Stem;
},
{
place = (20,188);
type = Stem;
}
);
layerId = "C10BC21D-E45C-40C5-B032-7ED8CDD0420E";
shapes = (
{
closed = 1;
nodes = (
(20,78,o),
(88,-10,o),
(257,-10,cs),
(459,-10,o),
(514,86,o),
(514,321,cs),
(514,401,o),
(504,503,o),
(402,610,c),
(467,680,l),
(375,763,l),
(308,690,l),
(273,714,o),
(233,739,o),
(186,763,c),
(93,621,l),
(161,586,o),
(209,549,o),
(244,512,c),
(115,504,o),
(20,408,o),
(20,259,cs)
);
},
{
closed = 1;
nodes = (
(329,184,o),
(305,131,o),
(267,131,cs),
(215,131,o),
(208,193,o),
(208,261,cs),
(208,333,o),
(233,389,o),
(313,398,c),
(327,356,o),
(329,316,o),
(329,282,cs)
);
}
);
width = 534;
}
);
note = eth;
unicode = 240;
},
{
color = 4;
glyphname = e;
kernLeft = c;
kernRight = e;
lastChange = "2023-04-28 11:18:11 +0000";
layers = (
{
anchors = (
{
name = bottom;
pos = (283,-35);
},
{
name = ogonek;
pos = (332,10);
},
{
name = top;
pos = (250,605);
}
);
background = {
shapes = (
{
closed = 1;
nodes = (
(446,-10,o),
(514,75,o),
(514,287,cs),
(514,498,o),
(446,583,o),
(267,583,cs),
(88,583,o),
(20,498,o),
(20,287,cs),
(20,75,o),
(88,-10,o),
(267,-10,cs)
);
},
{
closed = 1;
nodes = (
(222,131,o),
(206,176,o),
(206,286,cs),
(206,397,o),
(222,442,o),
(266,442,cs),
(311,442,o),
(328,397,o),
(328,286,cs),
(328,176,o),
(311,131,o),
(266,131,cs)
);
}
);
};
guides = (
{
angle = 90;
pos = (434,-44);
}
);
hints = (
{
horizontal = 1;
place = (7,336);
type = Stem;
},
{
place = (20,330);
type = Stem;
},
{
horizontal = 1;
place = (232,206);
type = Stem;
},
{
place = (339,0);
type = Stem;
}
);
layerId = "C10BC21D-E45C-40C5-B032-7ED8CDD0420E";
shapes = (
{
closed = 1;
nodes = (
(334,-10,o),
(387,-2,o),
(434,7,c),
(434,143,l),
(403,136,o),
(370,130,o),
(339,130,cs),
(232,130,o),
(209,161,o),
(209,291,cs),
(209,401,o),
(224,451,o),
(257,451,cs),
(305,451,o),
(288,320,o),
(293,301,c),
(373,343,l),
(187,343,l),
(187,232,l),
(450,232,l),
(456,264,o),
(459,305,o),
(459,343,cs),
(459,501,o),
(397,583,o),
(250,583,cs),
(88,583,o),
(20,483,o),
(20,288,cs),
(20,48,o),
(127,-10,o),
(284,-10,cs)
);
}
);
width = 474;
}
);
note = e;
unicode = 101;
},
{
color = 4;
glyphname = ecircumflexhookabove;
lastChange = "2023-11-24 15:18:31 +0000";
layers = (
{
background = {
anchors = (
{
name = top;
pos = (250,791);
}
);
hints = (
{
horizontal = 1;
place = (620,149);
type = Stem;
}
);
shapes = (
{
closed = 1;
nodes = (
(80,620,l),
(211,620,l),
(250,667,l),
(289,620,l),
(420,620,l),
(311,769,l),
(189,769,l)
);
},
{
closed = 1;
nodes = (
(408,787,o),
(364,765,c),
(407,713,l),
(553,751,o),
(552,930,o),
(396,930,cs),
(370,930,o),
(340,925,o),
(317,917,c),
(310,831,l),
(320,835,o),
(342,839,o),
(362,839,cs),
(416,839,o)
);
}
);
};
layerId = "C10BC21D-E45C-40C5-B032-7ED8CDD0420E";
shapes = (
{
ref = e;
},
{
pos = (250,0);
ref = circumflexcomb;
},
{
alignment = -1;
pos = (412,105);
ref = hookabovecomb;
}
);
width = 474;
}
);
unicode = 7875;
},
{
color = 4;
glyphname = eogonek;
kernLeft = c;
kernRight = e;
lastChange = "2023-11-24 15:21:46 +0000";
layers = (
{
hints = (
{
horizontal = 1;
place = (-160,68);
type = Stem;
},
{
horizontal = 1;
place = (55,-20);
target = down;
type = TopGhost;
},
{
horizontal = 1;
place = (232,206);
type = Stem;
},
{
place = (245,197);
type = Stem;
},
{
place = (245,111);
type = Stem;
},
{
horizontal = 1;
place = (7,336);
type = Stem;
},
{
place = (339,0);
type = Stem;
},
{
place = (20,330);
type = Stem;
}
);
layerId = "C10BC21D-E45C-40C5-B032-7ED8CDD0420E";
shapes = (
{
closed = 1;
nodes = (
(387,-160,o),
(413,-159,o),
(442,-154,c),
(442,-87,l),
(429,-90,o),
(413,-92,o),
(400,-92,cs),
(371,-92,o),
(356,-80,o),
(356,-45,cs),
(356,-10,o),
(370,-3,o),
(399,0,cs),
(398,0,l),
(434,7,l),
(434,143,l),
(403,136,o),
(370,130,o),
(339,130,cs),
(258,130,o),
(220,153,o),
(209,232,c),
(450,232,l),
(456,264,o),
(459,305,o),
(459,343,cs),
(459,501,o),
(397,583,o),
(250,583,cs),
(88,583,o),
(20,483,o),
(20,288,cs),
(20,62,o),
(114,-2,o),
(256,-9,c),
(249,-22,o),
(245,-36,o),
(245,-52,cs),
(245,-131,o),
(284,-160,o),
(365,-160,cs)
);
},
{
closed = 1;
nodes = (
(214,401,o),
(224,451,o),
(262,451,cs),
(290,451,o),
(292,388,o),
(292,343,c),
(211,343,l)
);
}
);
width = 474;
}
);
note = eogonek;
unicode = 281;
},
{
color = 4;
glyphname = f;
lastChange = "2023-11-24 15:19:34 +0000";
layers = (
{
background = {
shapes = (
{
closed = 1;
nodes = (
(340,633,o),
(350,632,o),
(359,631,c),
(359,758,l),
(333,761,o),
(307,763,o),
(283,763,cs),
(137,763,o),
(80,724,o),
(80,601,cs),
(80,535,l),
(20,535,l),
(20,400,l),
(80,400,l),
(80,0,l),
(260,0,l),
(260,400,l),
(359,400,l),
(359,535,l),
(260,535,l),
(260,588,ls),
(260,622,o),
(282,633,o),
(332,633,cs)
);
}
);
};
hints = (
{
horizontal = 1;
place = (0,21);
target = up;
type = BottomGhost;
},
{
horizontal = 1;
place = (440,135);
type = Stem;
},
{
horizontal = 1;
place = (633,130);
type = Stem;
},
{
place = (80,180);
type = Stem;
}
);
layerId = "C10BC21D-E45C-40C5-B032-7ED8CDD0420E";
shapes = (
{
closed = 1;
nodes = (
(260,0,l),
(260,440,l),
(359,440,l),
(359,575,l),
(260,575,l),
(260,588,ls),
(260,621,o),
(281,634,o),
(320,634,cs),
(332,634,o),
(345,633,o),
(359,631,c),
(359,760,l),
(344,762,o),
(330,763,o),
(317,763,cs),
(147,763,o),
(80,724,o),
(80,601,cs),
(80,575,l),
(20,575,l),
(20,440,l),
(80,440,l),
(80,0,l)
);
}
);
width = 379;
}
);
note = f;
unicode = 102;
},
{
color = 4;
glyphname = g;
kernLeft = c;
kernRight = g;
lastChange = "2023-04-28 11:22:42 +0000";
layers = (
{
anchors = (
{
name = top;
pos = (302,605);
}
);
background = {
shapes = (
{
closed = 1;
nodes = (
(93,583,o),
(24,505,o),
(24,305,cs),
(24,166,o),
(62,40,o),
(206,40,cs),
(252,40,o),
(293,55,o),
(322,82,c),
(322,47,ls),
(322,3,o),
(297,-23,o),
(249,-23,cs),
(208,-23,o),
(154,-19,o),
(108,-15,c),
(108,-150,l),
(108,-150,o),
(217,-164,o),
(299,-164,cs),
(432,-164,o),
(502,-92,o),
(502,32,cs),
(502,575,l),
(349,575,l),
(336,536,l),
(308,566,o),
(268,583,o),
(221,583,cs)
);
},
{
closed = 1;
nodes = (
(322,185,l),
(300,174,o),
(281,170,o),
(267,170,cs),
(223,170,o),
(210,204,o),
(210,295,cs),
(210,394,o),
(220,443,o),
(281,443,cs),
(293,443,o),
(307,441,o),
(322,438,c)
);
}
);
};
hints = (
{
horizontal = 1;
place = (22,130);
type = Stem;
},
{
horizontal = 1;
place = (452,131);
type = Stem;
},
{
place = (20,187);
type = Stem;
},
{
horizontal = 1;
place = (0,82);
type = Stem;
},
{
place = (108,141);
type = Stem;
}
);
layerId = "C10BC21D-E45C-40C5-B032-7ED8CDD0420E";
shapes = (
{
closed = 1;
nodes = (
(422,-160,o),
(502,-83,o),
(502,70,cs),
(502,575,l),
(349,575,l),
(336,536,l),
(308,566,o),
(268,583,o),
(221,583,cs),
(93,583,o),
(24,505,o),
(24,305,cs),
(24,166,o),
(62,40,o),
(206,40,cs),
(252,40,o),
(293,55,o),
(322,82,c),
(322,51,ls),
(322,2,o),
(289,-19,o),
(230,-19,cs),
(189,-19,o),
(153,-16,o),
(108,-10,c),
(108,-146,l),
(108,-146,o),
(199,-160,o),
(281,-160,cs)
);
},
{
closed = 1;
nodes = (
(223,170,o),
(210,204,o),
(210,295,cs),
(210,394,o),
(220,443,o),
(281,443,cs),
(293,443,o),
(307,441,o),
(322,438,c),
(322,185,l),
(300,174,o),
(281,170,o),
(267,170,cs)
);
}
);
width = 542;
}
);
note = g;
unicode = 103;
},
{
color = 4;
glyphname = h;
kernLeft = b;
kernRight = a;
lastChange = "2023-04-28 11:22:52 +0000";
layers = (
{
anchors = (
{
name = top.case;
pos = (131,760);
}
);
hints = (
{
horizontal = 1;
place = (0,21);
target = up;
type = BottomGhost;
},
{
horizontal = 1;
place = (443,0);
type = Stem;
},
{
horizontal = 1;
place = (755,-20);
target = down;
type = TopGhost;
},
{
place = (40,180);
type = Stem;
},
{
place = (259,235);
type = Stem;
}
);
layerId = "C10BC21D-E45C-40C5-B032-7ED8CDD0420E";
shapes = (
{
closed = 1;
nodes = (
(220,755,l),
(40,729,l),
(40,0,l),
(220,0,l),
(220,432,l),
(231,439,o),
(246,443,o),
(259,443,cs),
(297,443,o),
(314,422,o),
(314,382,cs),
(314,0,l),
(494,0,l),
(494,411,ls),
(494,526,o),
(426,583,o),
(334,583,cs),
(296,583,o),
(255,570,o),
(220,546,c)
);
}
);
width = 529;
}
);
note = h;
unicode = 104;
},
{
color = 4;
glyphname = hbar;
kernLeft = b;
kernRight = a;
lastChange = "2023-04-28 11:22:52 +0000";
layers = (
{
anchors = (
{
name = top.case;
pos = (131,760);
}
);
hints = (
{
horizontal = 1;
place = (0,21);
target = up;
type = BottomGhost;
},
{
horizontal = 1;
place = (443,0);
type = Stem;
},
{
horizontal = 1;
place = (616,75);
type = Stem;
},
{
horizontal = 1;
place = (755,-20);
target = down;
type = TopGhost;
},
{
place = (50,180);
type = Stem;
},
{
place = (269,235);
type = Stem;
},
{
horizontal = 1;
place = (0,21);
target = up;
type = BottomGhost;
},
{
horizontal = 1;
place = (443,0);
type = Stem;
},
{
horizontal = 1;
place = (755,-20);
target = down;
type = TopGhost;
},
{
place = (40,180);
type = Stem;
},
{
place = (259,235);
type = Stem;
}
);
layerId = "C10BC21D-E45C-40C5-B032-7ED8CDD0420E";
shapes = (
{
closed = 1;
nodes = (
(220,0,l),
(220,402,l),
(231,409,o),
(246,413,o),
(259,413,cs),
(297,413,o),
(314,392,o),
(314,352,cs),
(314,0,l),
(494,0,l),
(494,381,ls),
(494,496,o),
(426,553,o),
(334,553,cs),
(296,553,o),
(255,540,o),
(220,516,c),
(220,755,l),
(40,729,l),
(40,0,l)
);
},
{
closed = 1;
nodes = (
(309,616,l),
(309,691,l),
(5,691,l),
(5,616,l)
);
}
);
width = 529;
}
);
metricRight = h;
note = hbar;
unicode = 295;
},
{
color = 4;
glyphname = idotless;
lastChange = "2023-04-28 11:22:52 +0000";
layers = (
{
anchors = (
{
name = bottom;
pos = (130,-35);
},
{
name = ogonek;
pos = (116,10);
},
{
name = top;
pos = (130,605);
}
);
layerId = "C10BC21D-E45C-40C5-B032-7ED8CDD0420E";
shapes = (
{
closed = 1;
nodes = (
(40,0,l),
(220,0,l),
(220,575,l),
(40,575,l)
);
}
);
width = 260;
}
);
unicode = 305;
},
{
color = 4;
glyphname = jdotless;
lastChange = "2023-04-28 14:12:19 +0000";
layers = (
{
anchors = (
{
name = top;
pos = (130,605);
}
);
layerId = "C10BC21D-E45C-40C5-B032-7ED8CDD0420E";
shapes = (
{
closed = 1;
nodes = (
(40,-150,l),
(220,-125,l),
(220,575,l),
(40,575,l)
);
}
);
width = 260;
}
);
unicode = 567;
},
{
color = 4;
glyphname = k;
kernLeft = b;
kernRight = k;
lastChange = "2023-04-28 14:12:19 +0000";
layers = (
{
anchors = (
{
name = bottom;
pos = (265,-35);
}
);
hints = (
{
horizontal = 1;
place = (0,21);
target = up;
type = BottomGhost;
},
{
horizontal = 1;
place = (755,-20);
target = down;
type = TopGhost;
},
{
place = (40,180);
type = Stem;
}
);
layerId = "C10BC21D-E45C-40C5-B032-7ED8CDD0420E";
shapes = (
{
closed = 1;
nodes = (
(220,755,l),
(40,731,l),
(40,0,l),
(220,0,l),
(220,258,l),
(312,0,l),
(503,0,l),
(390,294,l),
(503,575,l),
(316,575,l),
(220,325,l)
);
}
);
width = 511;
}
);
note = k;
unicode = 107;
},
{
color = 4;
glyphname = kgreenlandic;
lastChange = "2023-04-28 14:12:19 +0000";
layers = (
{
anchors = (
{
name = bottom;
pos = (265,-35);
}
);
hints = (
{
horizontal = 1;
place = (0,21);
target = up;
type = BottomGhost;
},
{
horizontal = 1;
place = (755,-20);
target = down;
type = TopGhost;
},
{
place = (40,180);
type = Stem;
}
);
layerId = "C10BC21D-E45C-40C5-B032-7ED8CDD0420E";
shapes = (
{
closed = 1;
nodes = (
(220,575,l),
(40,575,l),
(40,0,l),
(220,0,l),
(220,258,l),
(312,0,l),
(503,0,l),
(390,294,l),
(503,575,l),
(316,575,l),
(220,325,l)
);
}
);
width = 511;
}
);
unicode = 312;
},
{
color = 4;
glyphname = l;
kernLeft = b;
kernRight = d;
lastChange = "2023-04-28 14:12:19 +0000";
layers = (
{
anchors = (
{
name = bottom;
pos = (130,-35);
},
{
name = caron;
pos = (323,568);
},
{
name = top.case;
pos = (131,760);
}
);
hints = (
{
horizontal = 1;
place = (0,21);
target = up;
type = BottomGhost;
},
{
horizontal = 1;
place = (755,-20);
target = down;
type = TopGhost;
},
{
place = (40,180);
type = Stem;
}
);
layerId = "C10BC21D-E45C-40C5-B032-7ED8CDD0420E";
shapes = (
{
closed = 1;
nodes = (
(220,755,l),
(40,731,l),
(40,0,l),
(220,0,l)
);
}
);
width = 260;
}
);
note = l;
unicode = 108;
},
{
color = 4;
glyphname = ldot;
lastChange = "2023-11-24 15:46:07 +0000";
layers = (
{
background = {
shapes = (
{
closed = 1;
nodes = (
(220,755,l),
(40,731,l),
(40,0,l),
(220,0,l)
);
},
{
closed = 1;
nodes = (
(274,224,l),
(464,224,l),
(464,414,l),
(274,414,l)
);
}
);
};
hints = (
{
horizontal = 1;
place = (0,21);
target = up;
type = BottomGhost;
},
{
horizontal = 1;
place = (224,190);
type = Stem;
},
{
horizontal = 1;
place = (755,-20);
target = down;
type = TopGhost;
},
{
place = (40,180);
type = Stem;
},
{
place = (267,204);
type = Stem;
}
);
layerId = "C10BC21D-E45C-40C5-B032-7ED8CDD0420E";
shapes = (
{
alignment = -1;
ref = l;
},
{
alignment = -1;
pos = (246,0);
ref = periodcentered;
}
);
width = 546;
}
);
metricLeft = l;
metricRight = periodcentered;
note = ldot;
unicode = 320;
},
{
color = 4;
glyphname = lslash;
kernLeft = b;
kernRight = d;
lastChange = "2023-04-28 14:12:19 +0000";
layers = (
{
background = {
shapes = (
{
closed = 1;
nodes = (
(306,381,l),
(306,475,l),
(159,418,l),
(159,324,l)
);
},
{
closed = 1;
nodes = (
(159,337,l),
(159,431,l),
(27,380,l),
(27,286,l)
);
}
);
};
hints = (
{
horizontal = 1;
place = (0,21);
target = up;
type = BottomGhost;
},
{
horizontal = 1;
place = (286,21);
target = up;
type = BottomGhost;
},
{
horizontal = 1;
place = (488,-20);
target = down;
type = TopGhost;
},
{
horizontal = 1;
place = (755,-20);
target = down;
type = TopGhost;
},
{
place = (65,180);
type = Stem;
}
);
layerId = "C10BC21D-E45C-40C5-B032-7ED8CDD0420E";
shapes = (
{
closed = 1;
nodes = (
(336,393,l),
(336,487,l),
(159,418,l),
(159,324,l)
);
},
{
closed = 1;
nodes = (
(159,337,l),
(159,431,l),
(-3,368,l),
(-3,274,l)
);
},
{
alignment = -1;
pos = (37,0);
ref = l;
}
);
width = 333;
}
);
note = lslash;
unicode = 322;
},
{
color = 4;
glyphname = m;
kernLeft = m;
kernRight = a;
lastChange = "2023-04-28 14:12:19 +0000";
layers = (
{
hints = (
{
horizontal = 1;
place = (0,21);
target = up;
type = BottomGhost;
},
{
horizontal = 1;
place = (443,140);
type = Stem;
},
{
place = (40,180);
type = Stem;
},
{
place = (304,180);
type = Stem;
},
{
place = (565,180);
type = Stem;
}
);
layerId = "C10BC21D-E45C-40C5-B032-7ED8CDD0420E";
shapes = (
{
closed = 1;
nodes = (
(298,0,l),
(478,0,l),
(478,411,ls),
(478,418,o),
(477,426,o),
(477,433,c),
(485,439,o),
(499,443,o),
(510,443,cs),
(542,443,o),
(556,422,o),
(556,382,cs),
(556,0,l),
(736,0,l),
(736,411,ls),
(736,526,o),
(673,583,o),
(587,583,cs),
(539,583,o),
(490,564,o),
(448,523,c),
(421,563,o),
(378,583,o),
(328,583,cs),
(285,583,o),
(243,567,o),
(206,536,c),
(193,575,l),
(40,575,l),
(40,0,l),
(220,0,l),
(220,432,l),
(229,439,o),
(242,443,o),
(252,443,cs),
(284,443,o),
(298,422,o),
(298,382,cs)
);
}
);
width = 771;
}
);
note = m;
unicode = 109;
},
{
color = 4;
glyphname = n;
kernLeft = m;
kernRight = a;
lastChange = "2023-04-28 14:12:19 +0000";
layers = (
{
anchors = (
{
name = bottom;
pos = (270,-35);
},
{
name = top;
pos = (270,605);
}
);
hints = (
{
horizontal = 1;
place = (0,21);
target = up;
type = BottomGhost;
},
{
horizontal = 1;
place = (536,39);
type = Stem;
},
{
place = (40,219);
type = Stem;
},
{
place = (206,108);
type = Stem;
}
);
layerId = "C10BC21D-E45C-40C5-B032-7ED8CDD0420E";
shapes = (
{
closed = 1;
nodes = (
(193,575,l),
(40,575,l),
(40,0,l),
(220,0,l),
(220,432,l),
(231,439,o),
(246,443,o),
(259,443,cs),
(297,443,o),
(314,422,o),
(314,382,cs),
(314,0,l),
(494,0,l),
(494,411,ls),
(494,526,o),
(426,583,o),
(334,583,cs),
(290,583,o),
(245,567,o),
(206,536,c)
);
}
);
width = 529;
}
);
note = n;
unicode = 110;
},
{
color = 4;
glyphname = eng;
kernLeft = m;
kernRight = a;
lastChange = "2023-11-24 14:34:08 +0000";
layers = (
{
background = {
anchors = (
{
name = bottom;
pos = (270,-35);
},
{
name = top;
pos = (270,605);
}
);
hints = (
{
horizontal = 1;
place = (0,21);
target = up;
type = BottomGhost;
},
{
horizontal = 1;
place = (536,39);
type = Stem;
},
{
place = (40,219);
type = Stem;
},
{
place = (206,108);
type = Stem;
}
);
shapes = (
{
closed = 1;
nodes = (
(193,575,l),
(40,575,l),
(40,0,l),
(220,0,l),
(220,432,l),
(231,439,o),
(246,443,o),
(259,443,cs),
(297,443,o),
(314,422,o),
(314,382,cs),
(314,0,l),
(494,0,l),
(494,411,ls),
(494,526,o),
(426,583,o),
(334,583,cs),
(290,583,o),
(245,567,o),
(206,536,c)
);
}
);
};
hints = (
{
horizontal = 1;
place = (-160,76);
type = Stem;
},
{
horizontal = 1;
place = (0,21);
target = up;
type = BottomGhost;
},
{
horizontal = 1;
place = (443,140);
type = Stem;
},
{
place = (40,180);
type = Stem;
},
{
place = (314,180);
type = Stem;
},
{
place = (230,264);
type = Stem;
},
{
horizontal = 1;
place = (536,39);
type = Stem;
},
{
place = (193,121);
type = Stem;
},
{
place = (259,235);
type = Stem;
}
);
layerId = "C10BC21D-E45C-40C5-B032-7ED8CDD0420E";
shapes = (
{
closed = 1;
nodes = (
(314,-18,ls),
(314,-67,o),
(277,-84,o),
(230,-84,c),
(230,-158,l),
(244,-159,o),
(259,-160,o),
(273,-160,cs),
(388,-160,o),
(494,-123,o),
(494,16,cs),
(494,411,ls),
(494,526,o),
(426,583,o),
(334,583,cs),
(290,583,o),
(245,567,o),
(206,536,c),
(193,575,l),
(40,575,l),
(40,0,l),
(220,0,l),
(220,432,l),
(231,439,o),
(246,443,o),
(259,443,cs),
(297,443,o),
(314,422,o),
(314,382,cs)
);
}
);
width = 529;
}
);
note = eng;
unicode = 331;
},
{
color = 4;
glyphname = o;
kernLeft = c;
kernRight = b;
lastChange = "2023-04-28 14:20:14 +0000";
layers = (
{
anchors = (
{
name = bottom;
pos = (267,-35);
},
{
name = horn;
pos = (399,583);
},
{
name = ogonek;
pos = (288,10);
},
{
name = top;
pos = (267,605);
}
);
hints = (
{
horizontal = 1;
place = (287,155);
type = Stem;
},
{
place = (267,61);
type = Stem;
},
{
horizontal = 1;
place = (286,156);
type = Stem;
},
{
place = (206,61);
type = Stem;
}
);
layerId = "C10BC21D-E45C-40C5-B032-7ED8CDD0420E";
shapes = (
{
closed = 1;
nodes = (
(446,-10,o),
(514,75,o),
(514,287,cs),
(514,498,o),
(446,583,o),
(267,583,cs),
(88,583,o),
(20,498,o),
(20,287,cs),
(20,75,o),
(88,-10,o),
(267,-10,cs)
);
},
{
closed = 1;
nodes = (
(222,131,o),
(206,176,o),
(206,286,cs),
(206,397,o),
(222,442,o),
(266,442,cs),
(311,442,o),
(328,397,o),
(328,286,cs),
(328,176,o),
(311,131,o),
(266,131,cs)
);
}
);
width = 534;
}
);
note = o;
unicode = 111;
},
{
color = 4;
glyphname = ocircumflexhookabove;
lastChange = "2023-11-24 15:18:31 +0000";
layers = (
{
background = {
anchors = (
{
name = top;
pos = (267,791);
}
);
hints = (
{
horizontal = 1;
place = (620,149);
type = Stem;
}
);
shapes = (
{
closed = 1;
nodes = (
(97,620,l),
(228,620,l),
(267,667,l),
(306,620,l),
(437,620,l),
(328,769,l),
(206,769,l)
);
},
{
closed = 1;
nodes = (
(425,787,o),
(381,765,c),
(424,713,l),
(570,751,o),
(569,930,o),
(413,930,cs),
(387,930,o),
(357,925,o),
(334,917,c),
(327,831,l),
(337,835,o),
(359,839,o),
(379,839,cs),
(433,839,o)
);
}
);
};
layerId = "C10BC21D-E45C-40C5-B032-7ED8CDD0420E";
shapes = (
{
ref = o;
},
{
pos = (267,0);
ref = circumflexcomb;
},
{
alignment = -1;
pos = (429,105);
ref = hookabovecomb;
}
);
width = 534;
}
);
unicode = 7893;
},
{
color = 4;
glyphname = ohorn;
lastChange = "2023-04-28 14:20:14 +0000";
layers = (
{
anchors = (
{
name = bottom;
pos = (267,-35);
},
{
name = horn;
pos = (399,583);
},
{
name = ogonek;
pos = (288,10);
},
{
name = top;
pos = (267,605);
}
);
hints = (
{
horizontal = 1;
place = (287,155);
type = Stem;
},
{
place = (267,61);
type = Stem;
},
{
horizontal = 1;
place = (286,156);
type = Stem;
},
{
place = (206,61);
type = Stem;
}
);
layerId = "C10BC21D-E45C-40C5-B032-7ED8CDD0420E";
shapes = (
{
closed = 1;
nodes = (
(463,604,o),
(448,583,o),
(414,583,cs),
(267,583,ls),
(88,583,o),
(20,498,o),
(20,287,cs),
(20,75,o),
(88,-10,o),
(267,-10,cs),
(446,-10,o),
(514,75,o),
(514,287,cs),
(514,351,o),
(508,403,o),
(494,445,c),
(582,457,o),
(615,510,o),
(615,647,cs),
(615,716,l),
(463,716,l),
(463,644,ls)
);
},
{
closed = 1;
nodes = (
(222,131,o),
(206,176,o),
(206,286,cs),
(206,397,o),
(222,442,o),
(266,442,cs),
(311,442,o),
(328,397,o),
(328,286,cs),
(328,176,o),
(311,131,o),
(266,131,cs)
);
}
);
width = 534;
}
);
unicode = 417;
},
{
color = 4;
glyphname = oslash;
kernLeft = c;
kernRight = b;
lastChange = "2023-04-28 14:20:14 +0000";
layers = (
{
anchors = (
{
name = top;
pos = (267,605);
}
);
background = {
shapes = (
{
closed = 1;
nodes = (
(88,583,o),
(20,498,o),
(20,287,cs),
(20,182,o),
(36,109,o),
(75,61,c),
(20,-25,l),
(90,-69,l),
(141,11,l),
(175,-3,o),
(216,-10,o),
(267,-10,cs),
(446,-10,o),
(514,75,o),
(514,287,cs),
(514,391,o),
(497,464,o),
(459,512,c),
(514,599,l),
(445,643,l),
(393,561,l),
(359,576,o),
(317,583,o),
(267,583,cs)
);
},
{
closed = 1;
nodes = (
(282,442,o),
(295,436,o),
(305,422,c),
(206,267,l),
(206,286,ls),
(206,397,o),
(222,442,o),
(266,442,cs)
);
},
{
closed = 1;
nodes = (
(328,286,ls),
(328,176,o),
(311,131,o),
(266,131,cs),
(250,131,o),
(238,137,o),
(229,149,c),
(328,305,l)
);
}
);
};
guides = (
{
angle = 90;
pos = (18,94);
},
{
angle = 90;
pos = (514,94);
}
);
hints = (
{
horizontal = 1;
place = (-69,21);
target = up;
type = BottomGhost;
},
{
horizontal = 1;
place = (287,155);
type = Stem;
},
{
horizontal = 1;
place = (643,-20);
target = down;
type = TopGhost;
},
{
place = (267,61);
type = Stem;
},
{
horizontal = 1;
place = (286,156);
type = Stem;
},
{
place = (206,61);
type = Stem;
}
);
layerId = "C10BC21D-E45C-40C5-B032-7ED8CDD0420E";
shapes = (
{
closed = 1;
nodes = (
(395,447,l),
(321,484,l),
(129,97,l),
(204,63,l)
);
},
{
closed = 1;
nodes = (
(193,66,l),
(120,104,l),
(36,-44,l),
(108,-85,l)
);
},
{
closed = 1;
nodes = (
(496,604,l),
(425,645,l),
(332,481,l),
(404,440,l)
);
},
{
ref = o;
}
);
width = 534;
}
);
metricLeft = o;
metricRight = o;
note = oslash;
unicode = 248;
},
{
color = 4;
glyphname = oe;
kernLeft = c;
kernRight = e;
lastChange = "2023-11-24 15:20:28 +0000";
layers = (
{
background = {
anchors = (
{
name = bottom;
pos = (267,-35);
},
{
name = horn;
pos = (399,583);
},
{
name = ogonek;
pos = (288,10);
},
{
name = top;
pos = (267,605);
}
);
hints = (
{
horizontal = 1;
place = (7,336);
type = Stem;
},
{
place = (307,330);
type = Stem;
},
{
horizontal = 1;
place = (232,206);
type = Stem;
},
{
place = (626,0);
type = Stem;
},
{
horizontal = 1;
place = (287,155);
type = Stem;
},
{
place = (267,61);
type = Stem;
},
{
horizontal = 1;
place = (286,156);
type = Stem;
},
{
place = (206,61);
type = Stem;
}
);
shapes = (
{
closed = 1;
nodes = (
(621,-10,o),
(674,-2,o),
(721,7,c),
(721,143,l),
(690,136,o),
(657,130,o),
(626,130,cs),
(519,130,o),
(496,161,o),
(496,291,cs),
(496,401,o),
(511,451,o),
(544,451,cs),
(592,451,o),
(575,320,o),
(580,301,c),
(660,343,l),
(474,343,l),
(474,232,l),
(737,232,l),
(743,264,o),
(746,305,o),
(746,343,cs),
(746,501,o),
(684,583,o),
(537,583,cs),
(375,583,o),
(307,483,o),
(307,288,cs),
(307,48,o),
(414,-10,o),
(571,-10,cs)
);
},
{
closed = 1;
nodes = (
(446,-10,o),
(514,75,o),
(514,287,cs),
(514,498,o),
(446,583,o),
(267,583,cs),
(88,583,o),
(20,498,o),
(20,287,cs),
(20,75,o),
(88,-10,o),
(267,-10,cs)
);
},
{
closed = 1;
nodes = (
(222,131,o),
(206,176,o),
(206,286,cs),
(206,397,o),
(222,442,o),
(266,442,cs),
(311,442,o),
(328,397,o),
(328,286,cs),
(328,176,o),
(311,131,o),
(266,131,cs)
);
}
);
};
hints = (
{
horizontal = 1;
place = (-11,142);
type = Stem;
},
{
horizontal = 1;
place = (232,55);
type = Stem;
},
{
horizontal = 1;
place = (442,141);
type = Stem;
},
{
place = (20,186);
type = Stem;
},
{
place = (324,190);
type = Stem;
},
{
place = (560,0);
type = Stem;
},
{
place = (613,125);
type = Stem;
},
{
horizontal = 1;
place = (-10,141);
type = Stem;
},
{
horizontal = 1;
place = (233,110);
type = Stem;
},
{
place = (20,190);
type = Stem;
},
{
horizontal = 1;
place = (7,336);
type = Stem;
},
{
place = (721,0);
type = Stem;
},
{
horizontal = 1;
place = (232,206);
type = Stem;
},
{
place = (328,168);
type = Stem;
},
{
horizontal = 1;
place = (287,296);
type = Stem;
}
);
layerId = "C10BC21D-E45C-40C5-B032-7ED8CDD0420E";
shapes = (
{
closed = 1;
nodes = (
(329,-11,o),
(377,6,o),
(412,39,c),
(456,2,o),
(516,-10,o),
(577,-10,cs),
(626,-10,o),
(676,-2,o),
(721,7,c),
(721,143,l),
(677,135,o),
(640,130,o),
(611,130,cs),
(520,130,o),
(496,167,o),
(496,292,cs),
(496,423,o),
(520,451,o),
(546,451,cs),
(589,451,o),
(576,313,o),
(579,309,c),
(660,343,l),
(475,343,l),
(475,232,l),
(735,232,l),
(741,264,o),
(746,305,o),
(746,343,cs),
(746,458,o),
(715,583,o),
(537,583,cs),
(489,583,o),
(447,571,o),
(413,549,c),
(377,574,o),
(329,583,o),
(267,583,cs),
(100,583,o),
(20,513,o),
(20,287,cs),
(20,60,o),
(100,-11,o),
(267,-11,cs)
);
},
{
closed = 1;
nodes = (
(224,131,o),
(206,169,o),
(206,287,cs),
(206,404,o),
(224,442,o),
(267,442,cs),
(310,442,o),
(328,404,o),
(328,286,cs),
(328,169,o),
(310,131,o),
(267,131,cs)
);
}
);
width = 761;
}
);
metricLeft = o;
metricRight = e;
note = oe;
unicode = 339;
},
{
color = 4;
glyphname = p;
kernLeft = m;
kernRight = b;
lastChange = "2023-04-28 14:21:49 +0000";
layers = (
{
hints = (
{
horizontal = 1;
place = (-150,21);
target = up;
type = BottomGhost;
},
{
horizontal = 1;
place = (-10,139);
type = Stem;
},
{
horizontal = 1;
place = (443,140);
type = Stem;
},
{
place = (41,180);
type = Stem;
},
{
place = (340,183);
type = Stem;
}
);
layerId = "C10BC21D-E45C-40C5-B032-7ED8CDD0420E";
shapes = (
{
closed = 1;
nodes = (
(220,-124,l),
(220,8,l),
(256,-4,o),
(288,-10,o),
(318,-10,cs),
(448,-10,o),
(518,75,o),
(518,294,cs),
(518,445,o),
(480,583,o),
(334,583,cs),
(283,583,o),
(238,563,o),
(208,529,c),
(193,575,l),
(40,575,l),
(40,-150,l)
);
},
{
closed = 1;
nodes = (
(249,130,o),
(235,132,o),
(220,136,c),
(220,426,l),
(242,438,o),
(261,443,o),
(275,443,cs),
(319,443,o),
(332,404,o),
(332,299,cs),
(332,186,o),
(322,130,o),
(261,130,cs)
);
}
);
width = 538;
}
);
note = p;
unicode = 112;
},
{
color = 4;
glyphname = thorn;
kernLeft = b;
kernRight = b;
lastChange = "2023-11-24 14:34:08 +0000";
layers = (
{
background = {
hints = (
{
horizontal = 1;
place = (-150,21);
target = up;
type = BottomGhost;
},
{
horizontal = 1;
place = (-10,139);
type = Stem;
},
{
horizontal = 1;
place = (443,140);
type = Stem;
},
{
place = (41,180);
type = Stem;
},
{
place = (340,183);
type = Stem;
}
);
shapes = (
{
closed = 1;
nodes = (
(220,-124,l),
(220,8,l),
(256,-4,o),
(288,-10,o),
(318,-10,cs),
(448,-10,o),
(518,75,o),
(518,294,cs),
(518,445,o),
(480,583,o),
(334,583,cs),
(283,583,o),
(238,563,o),
(208,529,c),
(193,575,l),
(40,575,l),
(40,-150,l)
);
},
{
closed = 1;
nodes = (
(249,130,o),
(235,132,o),
(220,136,c),
(220,426,l),
(242,438,o),
(261,443,o),
(275,443,cs),
(319,443,o),
(332,404,o),
(332,299,cs),
(332,186,o),
(322,130,o),
(261,130,cs)
);
}
);
};
hints = (
{
horizontal = 1;
place = (-150,21);
target = up;
type = BottomGhost;
},
{
horizontal = 1;
place = (-10,140);
type = Stem;
},
{
horizontal = 1;
place = (443,140);
type = Stem;
},
{
horizontal = 1;
place = (755,-20);
target = down;
type = TopGhost;
},
{
place = (40,180);
type = Stem;
},
{
place = (340,183);
type = Stem;
},
{
place = (41,180);
type = Stem;
},
{
place = (332,190);
type = Stem;
}
);
layerId = "C10BC21D-E45C-40C5-B032-7ED8CDD0420E";
shapes = (
{
closed = 1;
nodes = (
(40,731,l),
(40,-150,l),
(220,-124,l),
(220,8,l),
(256,-4,o),
(288,-10,o),
(318,-10,cs),
(448,-10,o),
(518,75,o),
(518,294,cs),
(518,445,o),
(480,583,o),
(334,583,cs),
(290,583,o),
(249,567,o),
(220,541,c),
(220,755,l)
);
},
{
closed = 1;
nodes = (
(220,426,l),
(242,438,o),
(261,443,o),
(275,443,cs),
(319,443,o),
(332,404,o),
(332,299,cs),
(332,186,o),
(322,130,o),
(261,130,cs),
(249,130,o),
(235,132,o),
(220,136,c)
);
}
);
width = 538;
}
);
note = thorn;
unicode = 254;
},
{
color = 4;
glyphname = q;
kernLeft = c;
kernRight = g;
lastChange = "2023-11-24 15:20:28 +0000";
layers = (
{
hints = (
{
horizontal = 1;
place = (-150,21);
target = up;
type = BottomGhost;
},
{
horizontal = 1;
place = (-10,138);
type = Stem;
},
{
horizontal = 1;
place = (444,139);
type = Stem;
},
{
place = (0,186);
type = Stem;
},
{
place = (302,180);
type = Stem;
}
);
layerId = "C10BC21D-E45C-40C5-B032-7ED8CDD0420E";
shapes = (
{
closed = 1;
nodes = (
(498,-156,l),
(498,539,l),
(442,567,o),
(362,583,o),
(279,583,cs),
(110,583,o),
(20,498,o),
(20,279,cs),
(20,128,o),
(58,-10,o),
(204,-10,cs),
(248,-10,o),
(289,6,o),
(318,32,c),
(318,-182,l)
);
},
{
closed = 1;
nodes = (
(219,130,o),
(206,169,o),
(206,274,cs),
(206,387,o),
(216,443,o),
(277,443,cs),
(289,443,o),
(303,441,o),
(318,437,c),
(318,147,l),
(296,135,o),
(277,130,o),
(263,130,cs)
);
}
);
width = 538;
}
);
note = q;
unicode = 113;
},
{
color = 4;
glyphname = r;
kernLeft = m;
kernRight = r;
lastChange = "2023-11-24 15:21:49 +0000";
layers = (
{
anchors = (
{
name = bottom;
pos = (124,-35);
},
{
name = top;
pos = (220,605);
}
);
hints = (
{
horizontal = 1;
place = (0,21);
target = up;
type = BottomGhost;
},
{
place = (40,180);
type = Stem;
}
);
layerId = "C10BC21D-E45C-40C5-B032-7ED8CDD0420E";
shapes = (
{
closed = 1;
nodes = (
(220,0,l),
(220,391,l),
(263,403,o),
(322,410,o),
(374,410,c),
(374,580,l),
(291,594,o),
(236,561,o),
(215,495,c),
(213,495,l),
(193,575,l),
(40,575,l),
(40,0,l)
);
}
);
width = 389;
}
);
note = r;
unicode = 114;
},
{
color = 4;
glyphname = s;
kernLeft = s;
kernRight = s;
lastChange = "2023-04-28 14:25:11 +0000";
layers = (
{
anchors = (
{
name = bottom;
pos = (191,-35);
},
{
name = cedilla;
pos = (192,10);
},
{
name = top;
pos = (235,605);
}
);
hints = (
{
horizontal = 1;
place = (-10,140);
type = Stem;
},
{
horizontal = 1;
place = (443,140);
type = Stem;
},
{
place = (15,182);
type = Stem;
},
{
place = (236,183);
type = Stem;
}
);
layerId = "C10BC21D-E45C-40C5-B032-7ED8CDD0420E";
shapes = (
{
closed = 1;
nodes = (
(225,146,o),
(206,135,o),
(170,135,cs),
(88,135,o),
(35,146,o),
(35,146,c),
(20,10,l),
(67,-2,o),
(123,-10,o),
(191,-10,cs),
(346,-9,o),
(409,50,o),
(409,169,cs),
(409,244,o),
(383,286,o),
(319,327,cs),
(231,384,ls),
(214,395,o),
(206,402,o),
(206,415,cs),
(206,437,o),
(226,444,o),
(274,444,cs),
(324,444,o),
(376,435,o),
(376,435,c),
(391,568,l),
(391,568,o),
(318,583,o),
(235,583,cs),
(85,582,o),
(25,528,o),
(25,418,cs),
(25,341,o),
(51,298,o),
(114,257,cs),
(200,201,ls),
(217,190,o),
(225,181,o),
(225,168,cs)
);
}
);
width = 429;
}
);
note = s;
unicode = 115;
},
{
color = 4;
glyphname = germandbls;
kernLeft = b;
kernRight = s;
lastChange = "2023-11-24 15:18:31 +0000";
layers = (
{
background = {
anchors = (
{
name = bottom;
pos = (433,-35);
},
{
name = cedilla;
pos = (434,10);
},
{
name = top;
pos = (477,605);
}
);
hints = (
{
horizontal = 1;
place = (-10,140);
type = Stem;
},
{
horizontal = 1;
place = (443,140);
type = Stem;
},
{
place = (257,182);
type = Stem;
},
{
place = (478,183);
type = Stem;
}
);
shapes = (
{
closed = 1;
nodes = (
(266,341,o),
(292,298,o),
(355,257,cs),
(441,201,ls),
(458,190,o),
(466,181,o),
(466,168,cs),
(466,146,o),
(447,135,o),
(411,135,cs),
(329,135,o),
(276,146,o),
(276,146,c),
(261,10,l),
(308,-2,o),
(364,-10,o),
(432,-10,cs),
(587,-9,o),
(650,50,o),
(650,169,cs),
(650,244,o),
(624,286,o),
(560,327,cs),
(472,384,ls),
(455,395,o),
(447,402,o),
(447,415,cs),
(447,458,o),
(609,467,o),
(609,593,cs),
(609,706,o),
(525,763,o),
(324,763,cs),
(117,763,o),
(40,696,o),
(40,560,cs),
(40,0,l),
(220,0,l),
(220,546,ls),
(220,609,o),
(246,640,o),
(319,640,cs),
(384,640,o),
(420,627,o),
(420,595,cs),
(420,545,o),
(266,546,o),
(266,418,cs)
);
},
{
closed = 1;
nodes = (
(467,146,o),
(448,135,o),
(412,135,cs),
(330,135,o),
(277,146,o),
(277,146,c),
(262,10,l),
(309,-2,o),
(365,-10,o),
(433,-10,cs),
(588,-9,o),
(651,50,o),
(651,169,cs),
(651,244,o),
(625,286,o),
(561,327,cs),
(473,384,ls),
(456,395,o),
(448,402,o),
(448,415,cs),
(448,437,o),
(468,444,o),
(516,444,cs),
(566,444,o),
(618,435,o),
(618,435,c),
(633,568,l),
(633,568,o),
(560,583,o),
(477,583,cs),
(327,582,o),
(267,528,o),
(267,418,cs),
(267,341,o),
(293,298,o),
(356,257,cs),
(442,201,ls),
(459,190,o),
(467,181,o),
(467,168,cs)
);
}
);
};
hints = (
{
horizontal = 1;
place = (-10,140);
type = Stem;
},
{
horizontal = 1;
place = (443,140);
type = Stem;
},
{
place = (0,21);
type = Stem;
},
{
place = (407,144);
type = Stem;
},
{
place = (859,182);
type = Stem;
},
{
place = (1080,183);
type = Stem;
}
);
layerId = "C10BC21D-E45C-40C5-B032-7ED8CDD0420E";
shapes = (
{
closed = 1;
nodes = (
(266,341,o),
(292,298,o),
(355,257,cs),
(441,201,ls),
(458,190,o),
(466,181,o),
(466,168,cs),
(466,146,o),
(447,135,o),
(411,135,cs),
(329,135,o),
(276,146,o),
(276,146,c),
(261,10,l),
(308,-2,o),
(364,-10,o),
(432,-10,cs),
(587,-9,o),
(650,50,o),
(650,169,cs),
(650,244,o),
(624,286,o),
(560,327,cs),
(472,384,ls),
(455,395,o),
(447,404,o),
(447,417,cs),
(447,430,o),
(466,438,o),
(491,449,cs),
(539,469,o),
(609,499,o),
(609,593,cs),
(609,706,o),
(525,763,o),
(324,763,cs),
(117,763,o),
(40,696,o),
(40,560,cs),
(40,0,l),
(220,0,l),
(220,546,ls),
(220,609,o),
(246,640,o),
(319,640,cs),
(384,640,o),
(420,627,o),
(420,595,cs),
(420,564,o),
(392,551,o),
(359,535,cs),
(316,515,o),
(266,491,o),
(266,418,cs)
);
}
);
width = 670;
}
);
metricLeft = l;
note = germandbls;
unicode = 223;
},
{
color = 4;
glyphname = t;
kernLeft = t;
kernRight = t;
lastChange = "2023-04-28 14:25:11 +0000";
layers = (
{
anchors = (
{
name = bottom;
pos = (237,-35);
},
{
name = caron;
pos = (385,598);
},
{
name = cedilla;
pos = (224,10);
}
);
background = {
shapes = (
{
closed = 1;
nodes = (
(265,701,l),
(85,701,l),
(85,575,l),
(10,575,l),
(10,440,l),
(85,440,l),
(85,171,ls),
(85,24,o),
(154,-10,o),
(236,-10,cs),
(303,-10,o),
(371,5,o),
(417,23,c),
(374,-30,l),
(374,191,l),
(390,143,l),
(381,142,o),
(362,141,o),
(326,141,cs),
(272,141,o),
(265,152,o),
(265,203,cs),
(265,440,l),
(374,440,l),
(374,575,l),
(265,575,l)
);
}
);
};
guides = (
{
angle = 90;
pos = (85,546);
}
);
hints = (
{
horizontal = 1;
place = (-10,-20);
target = down;
type = TopGhost;
},
{
horizontal = 1;
place = (151,424);
type = Stem;
},
{
horizontal = 1;
place = (575,21);
target = up;
type = BottomGhost;
},
{
place = (260,109);
type = Stem;
}
);
layerId = "C10BC21D-E45C-40C5-B032-7ED8CDD0420E";
shapes = (
{
closed = 1;
nodes = (
(265,701,l),
(85,701,l),
(85,575,l),
(10,575,l),
(10,440,l),
(85,440,l),
(85,171,ls),
(85,35,o),
(147,-10,o),
(270,-10,cs),
(331,-10,o),
(393,12,o),
(434,39,c),
(374,-30,l),
(374,191,l),
(390,146,l),
(381,144,o),
(362,137,o),
(326,137,cs),
(283,137,o),
(265,153,o),
(265,191,cs),
(265,440,l),
(374,440,l),
(374,575,l),
(265,575,l)
);
}
);
width = 394;
}
);
note = t;
unicode = 116;
},
{
color = 4;
glyphname = tbar;
kernLeft = t;
kernRight = t;
lastChange = "2023-04-28 14:25:11 +0000";
layers = (
{
guides = (
{
angle = 90;
pos = (373,404);
}
);
hints = (
{
horizontal = 1;
place = (-10,-20);
target = down;
type = TopGhost;
},
{
horizontal = 1;
place = (151,424);
type = Stem;
},
{
place = (260,109);
type = Stem;
},
{
horizontal = 1;
place = (301,75);
type = Stem;
},
{
horizontal = 1;
place = (575,21);
target = up;
type = BottomGhost;
}
);
layerId = "C10BC21D-E45C-40C5-B032-7ED8CDD0420E";
shapes = (
{
closed = 1;
nodes = (
(373,281,l),
(373,376,l),
(10,376,l),
(10,281,l)
);
},
{
ref = t;
}
);
width = 394;
}
);
note = tbar;
unicode = 359;
},
{
color = 4;
glyphname = u;
kernLeft = u;
kernRight = g;
lastChange = "2023-05-02 15:08:07 +0000";
layers = (
{
anchors = (
{
name = bottom;
pos = (261,-30);
},
{
name = horn;
pos = (449,575);
},
{
name = ogonek;
pos = (377,10);
},
{
name = top;
pos = (257,605);
}
);
hints = (
{
horizontal = 1;
place = (0,21);
target = up;
type = BottomGhost;
},
{
horizontal = 1;
place = (575,-20);
target = down;
type = TopGhost;
},
{
place = (35,180);
type = Stem;
},
{
place = (299,180);
type = Stem;
},
{
horizontal = 1;
place = (-10,141);
type = Stem;
}
);
layerId = "C10BC21D-E45C-40C5-B032-7ED8CDD0420E";
shapes = (
{
closed = 1;
nodes = (
(326,0,l),
(479,0,l),
(479,575,l),
(299,575,l),
(299,143,l),
(289,136,o),
(276,132,o),
(264,132,cs),
(230,132,o),
(215,153,o),
(215,193,cs),
(215,575,l),
(35,575,l),
(35,162,ls),
(35,47,o),
(101,-10,o),
(189,-10,cs),
(232,-10,o),
(275,8,o),
(313,39,c)
);
}
);
width = 519;
}
);
note = u;
unicode = 117;
},
{
color = 4;
glyphname = v;
kernLeft = v;
kernRight = v;
lastChange = "2023-11-24 15:21:52 +0000";
layers = (
{
hints = (
{
horizontal = 1;
place = (0,21);
target = up;
type = BottomGhost;
},
{
horizontal = 1;
place = (575,-20);
target = down;
type = TopGhost;
}
);
layerId = "C10BC21D-E45C-40C5-B032-7ED8CDD0420E";
shapes = (
{
closed = 1;
nodes = (
(350,0,l),
(486,575,l),
(306,575,l),
(250,194,l),
(248,194,l),
(190,575,l),
(5,575,l),
(139,0,l)
);
}
);
width = 491;
}
);
note = v;
unicode = 118;
},
{
color = 4;
glyphname = w;
kernLeft = v;
kernRight = v;
lastChange = "2023-05-02 15:08:11 +0000";
layers = (
{
anchors = (
{
name = top;
pos = (387,605);
}
);
hints = (
{
horizontal = 1;
place = (0,21);
target = up;
type = BottomGhost;
},
{
horizontal = 1;
place = (575,-20);
target = down;
type = TopGhost;
}
);
layerId = "C10BC21D-E45C-40C5-B032-7ED8CDD0420E";
shapes = (
{
closed = 1;
nodes = (
(778,575,l),
(596,575,l),
(559,288,l),
(543,194,l),
(527,288,l),
(485,575,l),
(303,575,l),
(261,288,l),
(245,194,l),
(229,288,l),
(188,575,l),
(5,575,l),
(135,0,l),
(335,0,l),
(363,118,l),
(387,274,l),
(411,118,l),
(438,0,l),
(638,0,l)
);
}
);
width = 783;
}
);
note = w;
unicode = 119;
},
{
color = 4;
glyphname = x;
kernRight = k;
lastChange = "2023-05-02 15:08:11 +0000";
layers = (
{
hints = (
{
horizontal = 1;
place = (0,21);
target = up;
type = BottomGhost;
},
{
horizontal = 1;
place = (575,-20);
target = down;
type = TopGhost;
}
);
layerId = "C10BC21D-E45C-40C5-B032-7ED8CDD0420E";
shapes = (
{
closed = 1;
nodes = (
(247,399,l),
(231,465,l),
(191,575,l),
(9,575,l),
(122,290,l),
(8,0,l),
(190,0,l),
(244,176,l),
(260,110,l),
(300,0,l),
(482,0,l),
(369,285,l),
(483,575,l),
(301,575,l)
);
}
);
width = 491;
}
);
note = x;
unicode = 120;
},
{
color = 4;
glyphname = y;
kernLeft = v;
kernRight = v;
lastChange = "2023-05-02 15:08:11 +0000";
layers = (
{
anchors = (
{
name = bottom;
pos = (453,-35);
},
{
name = top;
pos = (248,605);
}
);
hints = (
{
horizontal = 1;
place = (-150,21);
target = up;
type = BottomGhost;
},
{
horizontal = 1;
place = (0,21);
target = up;
type = BottomGhost;
},
{
horizontal = 1;
place = (575,-20);
target = down;
type = TopGhost;
}
);
layerId = "C10BC21D-E45C-40C5-B032-7ED8CDD0420E";
shapes = (
{
closed = 1;
nodes = (
(486,575,l),
(306,575,l),
(250,194,l),
(248,194,l),
(190,575,l),
(5,575,l),
(139,0,l),
(163,0,l),
(135,-150,l),
(311,-126,l),
(339,0,l)
);
}
);
width = 491;
}
);
note = y;
unicode = 121;
},
{
color = 4;
glyphname = z;
kernLeft = z;
kernRight = z;
lastChange = "2023-05-02 15:08:11 +0000";
layers = (
{
anchors = (
{
name = bottom;
pos = (236,-35);
},
{
name = top;
pos = (241,605);
}
);
hints = (
{
horizontal = 1;
place = (0,140);
type = Stem;
},
{
horizontal = 1;
place = (435,140);
type = Stem;
}
);
layerId = "C10BC21D-E45C-40C5-B032-7ED8CDD0420E";
shapes = (
{
closed = 1;
nodes = (
(30,0,l),
(427,0,l),
(427,140,l),
(244,140,l),
(418,469,l),
(418,575,l),
(37,575,l),
(37,435,l),
(202,435,l),
(30,110,l)
);
}
);
width = 457;
}
);
note = z;
unicode = 122;
},
{
color = 4;
glyphname = fi;
kernRight = d;
lastChange = "2023-11-24 15:19:46 +0000";
layers = (
{
anchors = (
{
name = caret_1;
pos = (320,0);
}
);
hints = (
{
horizontal = 1;
place = (0,21);
target = up;
type = BottomGhost;
},
{
horizontal = 1;
place = (440,135);
type = Stem;
},
{
horizontal = 1;
place = (605,181);
type = Stem;
},
{
horizontal = 1;
place = (633,130);
type = Stem;
},
{
place = (65,180);
type = Stem;
},
{
place = (382,180);
type = Stem;
},
{
horizontal = 1;
place = (0,21);
target = up;
type = BottomGhost;
},
{
horizontal = 1;
place = (440,135);
type = Stem;
},
{
horizontal = 1;
place = (633,130);
type = Stem;
},
{
place = (80,180);
type = Stem;
}
);
layerId = "C10BC21D-E45C-40C5-B032-7ED8CDD0420E";
shapes = (
{
closed = 1;
nodes = (
(260,0,l),
(260,440,l),
(519,440,l),
(519,575,l),
(260,575,l),
(260,588,ls),
(260,621,o),
(281,634,o),
(320,634,cs),
(332,634,o),
(345,633,o),
(359,631,c),
(359,760,l),
(344,762,o),
(330,763,o),
(317,763,cs),
(147,763,o),
(80,724,o),
(80,601,cs),
(80,575,l),
(20,575,l),
(20,440,l),
(80,440,l),
(80,0,l)
);
},
{
pos = (379,0);
ref = i;
}
);
width = 639;
}
);
note = fi;
unicode = 64257;
},
{
color = 4;
glyphname = fl;
kernRight = d;
lastChange = "2023-11-23 15:05:45 +0000";
layers = (
{
anchors = (
{
name = caret_1;
pos = (312,0);
}
);
hints = (
{
horizontal = 1;
place = (0,21);
target = up;
type = BottomGhost;
},
{
horizontal = 1;
place = (440,135);
type = Stem;
},
{
horizontal = 1;
place = (633,130);
type = Stem;
},
{
place = (65,180);
type = Stem;
},
{
place = (379,180);
type = Stem;
},
{
horizontal = 1;
place = (755,-20);
target = down;
type = TopGhost;
}
);
layerId = "C10BC21D-E45C-40C5-B032-7ED8CDD0420E";
shapes = (
{
closed = 1;
nodes = (
(340,633,o),
(350,632,o),
(359,631,c),
(359,758,l),
(333,761,o),
(307,763,o),
(283,763,cs),
(137,763,o),
(80,724,o),
(80,601,cs),
(80,575,l),
(20,575,l),
(20,440,l),
(80,440,l),
(80,0,l),
(260,0,l),
(260,440,l),
(442,440,l),
(442,575,l),
(260,575,l),
(260,588,ls),
(260,622,o),
(282,633,o),
(332,633,cs)
);
},
{
pos = (364,0);
ref = l;
}
);
width = 624;
}
);
note = fl;
unicode = 64258;
},
{
color = 4;
glyphname = ordfeminine;
lastChange = "2023-11-24 15:20:28 +0000";
layers = (
{
hints = (
{
horizontal = 1;
place = (-10,132);
type = Stem;
},
{
horizontal = 1;
place = (140,24);
type = Stem;
},
{
horizontal = 1;
place = (338,86);
type = Stem;
},
{
horizontal = 1;
place = (472,67);
type = Stem;
},
{
horizontal = 1;
place = (598,95);
type = Stem;
},
{
place = (30,114);
type = Stem;
},
{
place = (195,42);
type = Stem;
},
{
place = (267,25);
type = Stem;
},
{
place = (203,121);
type = Stem;
},
{
horizontal = 1;
place = (304,91);
type = Stem;
},
{
horizontal = 1;
place = (421,21);
target = up;
type = BottomGhost;
},
{
place = (60,264);
type = Stem;
}
);
layerId = "C10BC21D-E45C-40C5-B032-7ED8CDD0420E";
shapes = (
{
closed = 1;
nodes = (
(167,304,o),
(192,315,o),
(215,335,c),
(221,312,l),
(324,312,l),
(324,588,ls),
(324,655,o),
(278,693,o),
(194,693,cs),
(141,693,o),
(60,681,o),
(60,681,c),
(60,585,l),
(60,585,o),
(112,598,o),
(157,598,cs),
(180,598,o),
(203,592,o),
(203,571,cs),
(203,539,l),
(149,539,ls),
(83,539,o),
(30,491,o),
(30,420,cs),
(30,356,o),
(71,304,o),
(133,304,cs)
);
},
{
closed = 1;
nodes = (
(157,395,o),
(144,404,o),
(144,435,cs),
(144,456,o),
(159,472,o),
(183,472,cs),
(203,472,l),
(203,408,l),
(197,401,o),
(185,395,o),
(179,395,cs)
);
}
);
width = 369;
}
);
note = ordfeminine;
unicode = 170;
},
{
color = 4;
glyphname = ordmasculine;
lastChange = "2023-05-02 15:15:06 +0000";
layers = (
{
hints = (
{
horizontal = 1;
place = (302,92);
type = Stem;
},
{
horizontal = 1;
place = (601,94);
type = Stem;
},
{
place = (28,122);
type = Stem;
},
{
place = (231,122);
type = Stem;
},
{
horizontal = 1;
place = (597,96);
type = Stem;
},
{
horizontal = 1;
place = (304,96);
type = Stem;
},
{
place = (225,128);
type = Stem;
}
);
layerId = "C10BC21D-E45C-40C5-B032-7ED8CDD0420E";
shapes = (
{
closed = 1;
nodes = (
(353,647,o),
(307,693,o),
(191,693,cs),
(75,693,o),
(29,647,o),
(29,498,cs),
(29,350,o),
(75,304,o),
(191,304,cs),
(307,304,o),
(353,350,o),
(353,498,cs)
);
},
{
closed = 1;
nodes = (
(157,574,o),
(167,597,o),
(191,597,cs),
(215,597,o),
(225,574,o),
(225,499,cs),
(225,423,o),
(215,400,o),
(191,400,cs),
(167,400,o),
(157,423,o),
(157,499,cs)
);
}
);
width = 383;
}
);
note = ordmasculine;
unicode = 186;
},
{
color = 4;
glyphname = zero;
lastChange = "2023-05-02 15:25:09 +0000";
layers = (
{
background = {
shapes = (
{
closed = 1;
nodes = (
(509,-10,o),
(585,108,o),
(585,364,cs),
(585,620,o),
(509,728,o),
(327,728,cs),
(145,728,o),
(70,620,o),
(70,364,cs),
(70,108,o),
(145,-10,o),
(327,-10,cs)
);
},
{
closed = 1;
nodes = (
(293,145,o),
(279,217,o),
(279,364,cs),
(279,511,o),
(293,573,o),
(327,573,cs),
(361,573,o),
(375,511,o),
(375,364,cs),
(375,217,o),
(361,145,o),
(327,145,cs)
);
}
);
};
guides = (
{
angle = 90;
pos = (317,413);
}
);
hints = (
{
horizontal = 1;
place = (-10,155);
type = Stem;
},
{
horizontal = 1;
place = (573,155);
type = Stem;
},
{
place = (30,209);
type = Stem;
},
{
place = (335,210);
type = Stem;
}
);
layerId = "C10BC21D-E45C-40C5-B032-7ED8CDD0420E";
shapes = (
{
closed = 1;
nodes = (
(128,728,o),
(50,620,o),
(50,364,cs),
(50,108,o),
(128,-10,o),
(317,-10,cs),
(506,-10,o),
(585,108,o),
(585,364,cs),
(585,620,o),
(506,728,o),
(317,728,cs)
);
},
{
closed = 1;
nodes = (
(276,145,o),
(259,217,o),
(259,364,cs),
(259,511,o),
(276,573,o),
(317,573,cs),
(358,573,o),
(375,511,o),
(375,364,cs),
(375,217,o),
(358,145,o),
(317,145,cs)
);
}
);
width = 635;
}
);
note = zero;
unicode = 48;
},
{
color = 4;
glyphname = one;
lastChange = "2023-05-02 15:25:09 +0000";
layers = (
{
hints = (
{
horizontal = 1;
place = (0,21);
target = up;
type = BottomGhost;
},
{
horizontal = 1;
place = (720,-20);
target = down;
type = TopGhost;
},
{
place = (122,196);
type = Stem;
}
);
layerId = "C10BC21D-E45C-40C5-B032-7ED8CDD0420E";
shapes = (
{
closed = 1;
nodes = (
(32,497,l),
(142,542,l),
(142,0,l),
(338,0,l),
(338,720,l),
(181,720,l),
(15,647,l)
);
}
);
width = 383;
}
);
note = one;
unicode = 49;
},
{
color = 4;
glyphname = two;
lastChange = "2023-05-02 15:25:09 +0000";
layers = (
{
background = {
shapes = (
{
closed = 1;
nodes = (
(254,593,o),
(254,500,cs),
(254,448,o),
(219,383,o),
(179,327,cs),
(35,126,l),
(35,0,l),
(467,0,l),
(467,160,l),
(268,160,l),
(370,301,ls),
(421,372,o),
(457,449,o),
(457,530,cs),
(457,666,o),
(375,728,o),
(220,728,cs),
(145,728,o),
(50,713,o),
(-19,667,c),
(13,772,l),
(77,459,l),
(24,526,l),
(104,573,o)
);
}
);
};
guides = (
{
angle = 90;
pos = (482,237);
}
);
hints = (
{
horizontal = 1;
place = (0,160);
type = Stem;
},
{
horizontal = 1;
place = (566,162);
type = Stem;
},
{
place = (254,203);
type = Stem;
}
);
layerId = "C10BC21D-E45C-40C5-B032-7ED8CDD0420E";
shapes = (
{
closed = 1;
nodes = (
(268,448,o),
(231,383,o),
(188,327,cs),
(35,126,l),
(35,0,l),
(482,0,l),
(482,160,l),
(268,160,l),
(376,301,ls),
(430,372,o),
(469,449,o),
(469,530,cs),
(469,672,o),
(371,728,o),
(236,728,cs),
(159,728,o),
(69,709,o),
(-19,677,c),
(13,772,l),
(65,516,l),
(41,540,l),
(80,555,o),
(129,565,o),
(172,565,cs),
(225,565,o),
(268,548,o),
(268,500,cs)
);
}
);
width = 512;
}
);
note = two;
unicode = 50;
},
{
color = 4;
glyphname = three;
lastChange = "2023-11-24 15:22:03 +0000";
layers = (
{
background = {
shapes = (
{
closed = 1;
nodes = (
(99,468,l),
(36,537,l),
(79,553,o),
(141,568,o),
(193,568,cs),
(245,568,o),
(286,553,o),
(286,506,cs),
(286,455,o),
(259,432,o),
(189,432,cs),
(117,432,l),
(118,286,l),
(186,286,ls),
(258,286,o),
(286,263,o),
(286,217,cs),
(286,167,o),
(246,148,o),
(192,148,cs),
(133,148,o),
(58,171,o),
(2,203,c),
(65,258,l),
(29,-56,l),
(3,40,l),
(73,8,o),
(152,-10,o),
(226,-10,cs),
(367,-10,o),
(488,53,o),
(488,194,cs),
(488,286,o),
(432,336,o),
(348,362,c),
(348,364,l),
(436,398,o),
(479,455,o),
(479,547,cs),
(479,676,o),
(376,728,o),
(248,728,cs),
(177,728,o),
(98,712,o),
(25,684,c),
(41,781,l)
);
}
);
};
hints = (
{
horizontal = 1;
place = (-10,296);
type = Stem;
},
{
place = (53,30);
type = Stem;
},
{
place = (153,165);
type = Stem;
},
{
horizontal = 1;
place = (-10,0);
type = Stem;
},
{
horizontal = 1;
place = (178,17);
type = Stem;
}
);
layerId = "C10BC21D-E45C-40C5-B032-7ED8CDD0420E";
shapes = (
{
closed = 1;
nodes = (
(364,-10,o),
(490,53,o),
(490,194,cs),
(490,286,o),
(445,336,o),
(377,362,c),
(377,364,l),
(448,398,o),
(482,455,o),
(482,547,cs),
(480,676,o),
(374,728,o),
(241,728,cs),
(178,728,o),
(109,716,o),
(43,695,c),
(71,552,l),
(108,561,o),
(151,568,o),
(188,568,cs),
(242,568,o),
(286,553,o),
(286,506,cs),
(286,455,o),
(257,432,o),
(183,432,cs),
(107,432,l),
(107,286,l),
(180,286,ls),
(256,286,o),
(286,263,o),
(286,217,cs),
(286,167,o),
(243,148,o),
(186,148,cs),
(142,148,o),
(90,160,o),
(43,178,c),
(25,25,l),
(87,3,o),
(155,-10,o),
(219,-10,cs)
);
}
);
width = 505;
}
);
note = three;
unicode = 51;
},
{
color = 4;
glyphname = four;
lastChange = "2023-05-02 15:25:09 +0000";
layers = (
{
background = {
shapes = (
{
closed = 1;
nodes = (
(236,726,l),
(30,277,l),
(30,132,l),
(302,132,l),
(302,0,l),
(490,0,l),
(490,133,l),
(552,133,l),
(581,285,l),
(490,285,l),
(490,712,l)
);
},
{
closed = 1;
nodes = (
(198,285,l),
(302,512,l),
(302,285,l)
);
}
);
};
hints = (
{
horizontal = 1;
place = (0,21);
target = up;
type = BottomGhost;
},
{
horizontal = 1;
place = (132,153);
type = Stem;
},
{
horizontal = 1;
place = (726,-20);
target = down;
type = TopGhost;
},
{
place = (293,188);
type = Stem;
}
);
layerId = "C10BC21D-E45C-40C5-B032-7ED8CDD0420E";
shapes = (
{
closed = 1;
nodes = (
(256,726,l),
(20,277,l),
(20,132,l),
(302,132,l),
(302,0,l),
(490,0,l),
(490,133,l),
(552,133,l),
(581,285,l),
(490,285,l),
(490,712,l)
);
},
{
closed = 1;
nodes = (
(117,285,l),
(138,211,l),
(340,586,l),
(302,593,l),
(302,285,l)
);
}
);
width = 582;
}
);
note = four;
unicode = 52;
},
{
color = 4;
glyphname = five;
lastChange = "2023-05-02 15:25:09 +0000";
layers = (
{
background = {
shapes = (
{
closed = 1;
nodes = (
(288,107,o),
(104,140,o),
(-8,204,c),
(59,257,l),
(20,-56,l),
(-6,40,l),
(39,17,o),
(122,-10,o),
(209,-10,cs),
(404,-10,o),
(484,80,o),
(484,235,cs),
(484,383,o),
(402,446,o),
(280,446,cs),
(237,446,o),
(200,441,o),
(157,432,c),
(234,362,l),
(234,540,l),
(439,540,l),
(473,720,l),
(63,720,l),
(63,310,l),
(157,316,o),
(288,332,o),
(288,233,cs)
);
}
);
};
hints = (
{
horizontal = 1;
place = (-10,158);
type = Stem;
},
{
horizontal = 1;
place = (442,278);
type = Stem;
},
{
place = (254,210);
type = Stem;
},
{
place = (214,209);
type = Stem;
}
);
layerId = "C10BC21D-E45C-40C5-B032-7ED8CDD0420E";
shapes = (
{
closed = 1;
nodes = (
(288,107,o),
(91,140,o),
(-28,204,c),
(42,257,l),
(1,-56,l),
(-26,40,l),
(21,17,o),
(107,-10,o),
(198,-10,cs),
(400,-10,o),
(484,80,o),
(484,235,cs),
(484,383,o),
(398,446,o),
(271,446,cs),
(227,446,o),
(188,441,o),
(144,432,c),
(224,362,l),
(224,540,l),
(437,540,l),
(472,720,l),
(46,720,l),
(46,310,l),
(148,316,o),
(288,332,o),
(288,233,cs)
);
}
);
width = 499;
}
);
note = five;
unicode = 53;
},
{
color = 4;
glyphname = six;
lastChange = "2023-05-02 15:25:09 +0000";
layers = (
{
background = {
shapes = (
{
closed = 1;
nodes = (
(240,500,o),
(261,566,o),
(363,566,cs),
(397,566,o),
(440,558,o),
(495,542,c),
(444,467,l),
(477,761,l),
(503,705,l),
(459,717,o),
(405,727,o),
(350,727,cs),
(106,727,o),
(36,540,o),
(36,330,cs),
(36,93,o),
(130,-9,o),
(288,-9,cs),
(446,-9,o),
(522,83,o),
(522,250,cs),
(522,394,o),
(448,470,o),
(345,470,cs),
(307,470,o),
(264,458,o),
(220,438,c),
(220,316,l),
(243,326,o),
(261,331,o),
(276,331,cs),
(312,331,o),
(327,301,o),
(327,224,cs),
(327,161,o),
(316,122,o),
(291,122,cs),
(252,122,o),
(240,153,o),
(240,338,cs)
);
}
);
};
hints = (
{
horizontal = 1;
place = (-9,131);
type = Stem;
},
{
horizontal = 1;
place = (330,139);
type = Stem;
},
{
horizontal = 1;
place = (566,161);
type = Stem;
},
{
place = (35,211);
type = Stem;
},
{
place = (326,195);
type = Stem;
}
);
layerId = "C10BC21D-E45C-40C5-B032-7ED8CDD0420E";
shapes = (
{
closed = 1;
nodes = (
(239,500,o),
(264,566,o),
(385,566,cs),
(426,566,o),
(476,558,o),
(541,542,c),
(471,467,l),
(506,761,l),
(534,705,l),
(487,717,o),
(429,727,o),
(370,727,cs),
(110,727,o),
(35,540,o),
(35,330,cs),
(35,93,o),
(135,-9,o),
(304,-9,cs),
(473,-9,o),
(554,83,o),
(554,250,cs),
(554,394,o),
(475,470,o),
(365,470,cs),
(324,470,o),
(279,458,o),
(232,438,c),
(216,316,l),
(246,326,o),
(270,331,o),
(289,331,cs),
(339,331,o),
(358,301,o),
(358,224,cs),
(358,161,o),
(333,122,o),
(300,122,cs),
(244,122,o),
(239,153,o),
(239,338,cs)
);
}
);
width = 574;
}
);
note = six;
unicode = 54;
},
{
color = 4;
glyphname = seven;
lastChange = "2023-05-02 15:25:09 +0000";
layers = (
{
hints = (
{
horizontal = 1;
place = (0,21);
target = up;
type = BottomGhost;
},
{
horizontal = 1;
place = (540,180);
type = Stem;
}
);
layerId = "C10BC21D-E45C-40C5-B032-7ED8CDD0420E";
shapes = (
{
closed = 1;
nodes = (
(285,0,l),
(474,578,l),
(474,720,l),
(25,720,l),
(25,540,l),
(288,540,l),
(77,0,l)
);
}
);
width = 489;
}
);
note = seven;
unicode = 55;
},
{
color = 4;
glyphname = eight;
lastChange = "2023-05-02 15:25:09 +0000";
layers = (
{
background = {
shapes = (
{
closed = 1;
nodes = (
(446,-10,o),
(529,75,o),
(529,185,cs),
(529,285,o),
(487,348,o),
(402,380,c),
(402,382,l),
(474,406,o),
(508,460,o),
(508,539,cs),
(508,661,o),
(430,727,o),
(275,727,cs),
(120,727,o),
(42,661,o),
(42,539,cs),
(42,460,o),
(76,406,o),
(148,382,c),
(148,380,l),
(63,348,o),
(21,285,o),
(21,185,cs),
(21,75,o),
(104,-10,o),
(275,-10,cs)
);
},
{
closed = 1;
nodes = (
(239,104,o),
(225,137,o),
(225,207,cs),
(225,276,o),
(239,310,o),
(275,310,cs),
(311,310,o),
(325,276,o),
(325,207,cs),
(325,137,o),
(311,104,o),
(275,104,cs)
);
},
{
closed = 1;
nodes = (
(244,441,o),
(233,466,o),
(233,528,cs),
(233,578,o),
(244,605,o),
(275,605,cs),
(306,605,o),
(317,578,o),
(317,528,cs),
(317,466,o),
(306,441,o),
(275,441,cs)
);
}
);
};
hints = (
{
horizontal = 1;
place = (200,7);
type = Stem;
},
{
place = (151,118);
type = Stem;
},
{
place = (274,0);
type = Stem;
},
{
horizontal = 1;
place = (200,182);
type = Stem;
},
{
place = (28,246);
type = Stem;
},
{
horizontal = 1;
place = (207,321);
type = Stem;
}
);
layerId = "C10BC21D-E45C-40C5-B032-7ED8CDD0420E";
shapes = (
{
closed = 1;
nodes = (
(464,-10,o),
(550,75,o),
(550,185,cs),
(550,285,o),
(507,348,o),
(418,380,c),
(418,382,l),
(493,406,o),
(529,460,o),
(529,539,cs),
(529,661,o),
(447,727,o),
(285,727,cs),
(123,727,o),
(41,661,o),
(41,539,cs),
(41,460,o),
(77,406,o),
(152,382,c),
(152,380,l),
(63,348,o),
(20,285,o),
(20,185,cs),
(20,75,o),
(106,-10,o),
(285,-10,cs)
);
},
{
closed = 1;
nodes = (
(241,104,o),
(224,137,o),
(224,207,cs),
(224,276,o),
(241,310,o),
(285,310,cs),
(329,310,o),
(346,276,o),
(346,207,cs),
(346,137,o),
(329,104,o),
(285,104,cs)
);
},
{
closed = 1;
nodes = (
(248,441,o),
(234,466,o),
(234,528,cs),
(234,578,o),
(248,605,o),
(285,605,cs),
(322,605,o),
(336,578,o),
(336,528,cs),
(336,466,o),
(322,441,o),
(285,441,cs)
);
}
);
width = 570;
}
);
note = eight;
unicode = 56;
},
{
glyphname = zero.osf;
lastChange = "2023-04-27 14:21:07 +0000";
layers = (
{
hints = (
{
horizontal = 1;
place = (-10,155);
type = Stem;
},
{
horizontal = 1;
place = (573,155);
type = Stem;
},
{
place = (30,209);
type = Stem;
},
{
place = (335,210);
type = Stem;
}
);
layerId = "C10BC21D-E45C-40C5-B032-7ED8CDD0420E";
shapes = (
{
closed = 1;
nodes = (
(469,-10,o),
(545,108,o),
(545,364,cs),
(545,620,o),
(469,728,o),
(287,728,cs),
(105,728,o),
(30,620,o),
(30,364,cs),
(30,108,o),
(105,-10,o),
(287,-10,cs)
);
},
{
closed = 1;
nodes = (
(253,145,o),
(239,217,o),
(239,364,cs),
(239,511,o),
(253,573,o),
(287,573,cs),
(321,573,o),
(335,511,o),
(335,364,cs),
(335,217,o),
(321,145,o),
(287,145,cs)
);
}
);
width = 575;
}
);
note = zero;
},
{
glyphname = one.osf;
lastChange = "2023-04-27 14:21:07 +0000";
layers = (
{
hints = (
{
horizontal = 1;
place = (0,21);
target = up;
type = BottomGhost;
},
{
horizontal = 1;
place = (720,-20);
target = down;
type = TopGhost;
},
{
place = (122,196);
type = Stem;
}
);
layerId = "C10BC21D-E45C-40C5-B032-7ED8CDD0420E";
shapes = (
{
closed = 1;
nodes = (
(32,497,l),
(122,542,l),
(122,0,l),
(318,0,l),
(318,720,l),
(161,720,l),
(15,647,l)
);
}
);
width = 363;
}
);
note = one;
},
{
glyphname = two.osf;
lastChange = "2023-11-24 15:19:56 +0000";
layers = (
{
background = {
shapes = (
{
closed = 1;
nodes = (
(254,593,o),
(254,500,cs),
(254,448,o),
(219,383,o),
(179,327,cs),
(35,126,l),
(35,0,l),
(467,0,l),
(467,160,l),
(268,160,l),
(370,301,ls),
(421,372,o),
(457,449,o),
(457,530,cs),
(457,666,o),
(375,728,o),
(220,728,cs),
(145,728,o),
(50,713,o),
(-19,667,c),
(13,772,l),
(77,459,l),
(24,526,l),
(104,573,o)
);
}
);
};
hints = (
{
horizontal = 1;
place = (0,160);
type = Stem;
},
{
horizontal = 1;
place = (566,162);
type = Stem;
},
{
place = (254,203);
type = Stem;
}
);
layerId = "C10BC21D-E45C-40C5-B032-7ED8CDD0420E";
shapes = (
{
closed = 1;
nodes = (
(467,0,l),
(467,160,l),
(268,160,l),
(370,301,ls),
(421,372,o),
(457,449,o),
(457,530,cs),
(457,672,o),
(361,728,o),
(230,728,cs),
(169,728,o),
(99,715,o),
(29,693,c),
(59,547,l),
(92,558,o),
(131,565,o),
(164,565,cs),
(214,565,o),
(254,548,o),
(254,500,cs),
(254,448,o),
(219,383,o),
(179,327,cs),
(35,126,l),
(35,0,l)
);
}
);
width = 497;
}
);
note = two;
},
{
glyphname = three.osf;
lastChange = "2023-11-24 15:22:15 +0000";
layers = (
{
background = {
hints = (
{
horizontal = 1;
place = (0,160);
type = Stem;
},
{
horizontal = 1;
place = (566,162);
type = Stem;
},
{
place = (254,203);
type = Stem;
}
);
shapes = (
{
closed = 1;
nodes = (
(268,448,o),
(231,383,o),
(188,327,cs),
(35,126,l),
(35,0,l),
(482,0,l),
(482,160,l),
(268,160,l),
(376,301,ls),
(430,372,o),
(469,449,o),
(469,530,cs),
(469,672,o),
(371,728,o),
(236,728,cs),
(159,728,o),
(69,709,o),
(-19,677,c),
(13,772,l),
(65,516,l),
(41,540,l),
(80,555,o),
(129,565,o),
(172,565,cs),
(225,565,o),
(268,548,o),
(268,500,cs)
);
}
);
};
hints = (
{
horizontal = 1;
place = (-10,296);
type = Stem;
},
{
place = (53,30);
type = Stem;
},
{
place = (153,165);
type = Stem;
},
{
horizontal = 1;
place = (-10,0);
type = Stem;
},
{
horizontal = 1;
place = (178,17);
type = Stem;
}
);
layerId = "C10BC21D-E45C-40C5-B032-7ED8CDD0420E";
shapes = (
{
closed = 1;
nodes = (
(55,552,l),
(91,561,o),
(130,568,o),
(165,568,cs),
(217,568,o),
(258,553,o),
(258,506,cs),
(258,455,o),
(231,432,o),
(161,432,cs),
(90,432,l),
(90,286,l),
(158,286,ls),
(230,286,o),
(258,263,o),
(258,217,cs),
(258,167,o),
(218,148,o),
(164,148,cs),
(122,148,o),
(73,159,o),
(28,177,c),
(10,25,l),
(71,3,o),
(136,-10,o),
(198,-10,cs),
(339,-10,o),
(460,53,o),
(460,194,cs),
(460,286,o),
(404,336,o),
(320,362,c),
(320,364,l),
(408,398,o),
(451,455,o),
(451,547,cs),
(451,676,o),
(348,728,o),
(220,728,cs),
(159,728,o),
(93,716,o),
(29,695,c)
);
}
);
width = 474;
}
);
note = three;
},
{
glyphname = four.osf;
lastChange = "2023-04-27 14:21:07 +0000";
layers = (
{
hints = (
{
horizontal = 1;
place = (0,21);
target = up;
type = BottomGhost;
},
{
horizontal = 1;
place = (132,153);
type = Stem;
},
{
horizontal = 1;
place = (726,-20);
target = down;
type = TopGhost;
},
{
place = (293,188);
type = Stem;
}
);
layerId = "C10BC21D-E45C-40C5-B032-7ED8CDD0420E";
shapes = (
{
closed = 1;
nodes = (
(227,726,l),
(21,277,l),
(21,132,l),
(293,132,l),
(293,0,l),
(481,0,l),
(481,133,l),
(543,133,l),
(572,285,l),
(481,285,l),
(481,712,l)
);
},
{
closed = 1;
nodes = (
(189,285,l),
(293,512,l),
(293,285,l)
);
}
);
width = 573;
}
);
note = four;
},
{
glyphname = five.osf;
lastChange = "2023-04-27 14:21:07 +0000";
layers = (
{
background = {
shapes = (
{
closed = 1;
nodes = (
(76,468,l),
(13,537,l),
(56,553,o),
(118,568,o),
(170,568,cs),
(222,568,o),
(263,553,o),
(263,506,cs),
(263,455,o),
(236,432,o),
(166,432,cs),
(94,432,l),
(95,286,l),
(163,286,ls),
(235,286,o),
(263,263,o),
(263,217,cs),
(263,167,o),
(223,148,o),
(169,148,cs),
(110,148,o),
(35,171,o),
(-21,203,c),
(42,258,l),
(6,-56,l),
(-20,40,l),
(50,8,o),
(129,-10,o),
(203,-10,cs),
(344,-10,o),
(465,53,o),
(465,194,cs),
(465,286,o),
(409,336,o),
(325,362,c),
(325,364,l),
(413,398,o),
(456,455,o),
(456,547,cs),
(456,676,o),
(353,728,o),
(225,728,cs),
(154,728,o),
(75,712,o),
(2,684,c),
(18,781,l)
);
}
);
};
hints = (
{
horizontal = 1;
place = (-10,158);
type = Stem;
},
{
horizontal = 1;
place = (442,278);
type = Stem;
},
{
place = (254,210);
type = Stem;
},
{
place = (214,209);
type = Stem;
}
);
layerId = "C10BC21D-E45C-40C5-B032-7ED8CDD0420E";
shapes = (
{
closed = 1;
nodes = (
(268,107,o),
(84,140,o),
(-28,204,c),
(39,257,l),
(0,-56,l),
(-26,40,l),
(19,17,o),
(102,-10,o),
(189,-10,cs),
(384,-10,o),
(464,80,o),
(464,235,cs),
(464,383,o),
(382,446,o),
(260,446,cs),
(217,446,o),
(180,441,o),
(137,432,c),
(214,362,l),
(214,540,l),
(419,540,l),
(453,720,l),
(43,720,l),
(43,310,l),
(137,316,o),
(268,332,o),
(268,233,cs)
);
}
);
width = 479;
}
);
note = five;
},
{
glyphname = six.osf;
lastChange = "2023-04-27 14:21:07 +0000";
layers = (
{
background = {
shapes = (
{
closed = 1;
nodes = (
(239,509,o),
(255,566,o),
(358,566,cs),
(394,566,o),
(427,560,o),
(452,548,c),
(469,707,l),
(427,717,o),
(368,727,o),
(308,727,cs),
(96,727,o),
(35,540,o),
(35,330,cs),
(35,93,o),
(129,-9,o),
(287,-9,cs),
(445,-9,o),
(521,83,o),
(521,250,cs),
(521,405,o),
(452,469,o),
(349,469,cs),
(322,469,o),
(296,464,o),
(272,455,c),
(219,316,l),
(224,317,o),
(282,330,o),
(285,330,cs),
(316,330,o),
(326,282,o),
(326,224,cs),
(326,161,o),
(315,122,o),
(290,122,cs),
(252,122,o),
(239,161,o),
(239,338,cs)
);
}
);
};
hints = (
{
horizontal = 1;
place = (-9,131);
type = Stem;
},
{
horizontal = 1;
place = (330,139);
type = Stem;
},
{
horizontal = 1;
place = (566,161);
type = Stem;
},
{
place = (35,211);
type = Stem;
},
{
place = (326,195);
type = Stem;
}
);
layerId = "C10BC21D-E45C-40C5-B032-7ED8CDD0420E";
shapes = (
{
closed = 1;
nodes = (
(239,500,o),
(260,566,o),
(362,566,cs),
(396,566,o),
(439,558,o),
(494,542,c),
(443,467,l),
(476,761,l),
(502,705,l),
(458,717,o),
(404,727,o),
(349,727,cs),
(105,727,o),
(35,540,o),
(35,330,cs),
(35,93,o),
(129,-9,o),
(287,-9,cs),
(445,-9,o),
(521,83,o),
(521,250,cs),
(521,394,o),
(447,470,o),
(344,470,cs),
(306,470,o),
(263,458,o),
(219,438,c),
(219,316,l),
(242,326,o),
(260,331,o),
(275,331,cs),
(311,331,o),
(326,301,o),
(326,224,cs),
(326,161,o),
(315,122,o),
(290,122,cs),
(251,122,o),
(239,153,o),
(239,338,cs)
);
}
);
width = 541;
}
);
note = six;
},
{
glyphname = seven.osf;
lastChange = "2023-04-27 14:21:07 +0000";
layers = (
{
hints = (
{
horizontal = 1;
place = (0,21);
target = up;
type = BottomGhost;
},
{
horizontal = 1;
place = (540,180);
type = Stem;
}
);
layerId = "C10BC21D-E45C-40C5-B032-7ED8CDD0420E";
shapes = (
{
closed = 1;
nodes = (
(285,0,l),
(454,578,l),
(454,720,l),
(25,720,l),
(25,540,l),
(268,540,l),
(77,0,l)
);
}
);
width = 469;
}
);
note = seven;
},
{
glyphname = eight.osf;
lastChange = "2023-04-27 14:21:07 +0000";
layers = (
{
background = {
shapes = (
{
closed = 1;
nodes = (
(147,380,l),
(47,344,o),
(20,294,o),
(20,200,cs),
(20,63,o),
(107,-10,o),
(274,-10,cs),
(441,-10,o),
(528,63,o),
(528,200,cs),
(528,294,o),
(501,344,o),
(401,380,c),
(401,382,l),
(473,406,o),
(507,450,o),
(507,549,cs),
(507,677,o),
(429,727,o),
(274,727,cs),
(119,727,o),
(41,677,o),
(41,549,cs),
(41,450,o),
(75,406,o),
(147,382,c)
);
},
{
closed = 1;
nodes = (
(310,310,o),
(324,276,o),
(324,207,cs),
(324,137,o),
(310,104,o),
(274,104,cs),
(238,104,o),
(224,137,o),
(224,207,cs),
(224,276,o),
(238,310,o),
(274,310,cs)
);
},
{
closed = 1;
nodes = (
(305,605,o),
(316,578,o),
(316,528,cs),
(316,466,o),
(305,441,o),
(274,441,cs),
(243,441,o),
(232,466,o),
(232,528,cs),
(232,578,o),
(243,605,o),
(274,605,cs)
);
}
);
};
hints = (
{
horizontal = 1;
place = (200,7);
type = Stem;
},
{
place = (151,118);
type = Stem;
},
{
place = (274,0);
type = Stem;
},
{
horizontal = 1;
place = (200,182);
type = Stem;
},
{
place = (28,246);
type = Stem;
},
{
horizontal = 1;
place = (207,321);
type = Stem;
}
);
layerId = "C10BC21D-E45C-40C5-B032-7ED8CDD0420E";
shapes = (
{
closed = 1;
nodes = (
(445,-10,o),
(528,75,o),
(528,185,cs),
(528,285,o),
(486,348,o),
(401,380,c),
(401,382,l),
(473,406,o),
(507,460,o),
(507,539,cs),
(507,661,o),
(429,727,o),
(274,727,cs),
(119,727,o),
(41,661,o),
(41,539,cs),
(41,460,o),
(75,406,o),
(147,382,c),
(147,380,l),
(62,348,o),
(20,285,o),
(20,185,cs),
(20,75,o),
(103,-10,o),
(274,-10,cs)
);
},
{
closed = 1;
nodes = (
(238,104,o),
(224,137,o),
(224,207,cs),
(224,276,o),
(238,310,o),
(274,310,cs),
(310,310,o),
(324,276,o),
(324,207,cs),
(324,137,o),
(310,104,o),
(274,104,cs)
);
},
{
closed = 1;
nodes = (
(243,441,o),
(232,466,o),
(232,528,cs),
(232,578,o),
(243,605,o),
(274,605,cs),
(305,605,o),
(316,578,o),
(316,528,cs),
(316,466,o),
(305,441,o),
(274,441,cs)
);
}
);
width = 548;
}
);
note = eight;
},
{
color = 4;
glyphname = fraction;
lastChange = "2023-05-02 15:28:15 +0000";
layers = (
{
hints = (
{
horizontal = 1;
place = (4,21);
target = up;
type = BottomGhost;
},
{
horizontal = 1;
place = (748,-20);
target = down;
type = TopGhost;
}
);
layerId = "C10BC21D-E45C-40C5-B032-7ED8CDD0420E";
shapes = (
{
closed = 1;
nodes = (
(-166,59,l),
(-92,4,l),
(369,693,l),
(295,748,l)
);
}
);
width = 180;
}
);
note = fraction;
unicode = 8260;
},
{
color = 4;
glyphname = onehalf;
lastChange = "2023-05-02 15:28:15 +0000";
layers = (
{
background = {
shapes = (
{
closed = 1;
nodes = (
(33,565,l),
(89,593,l),
(89,332,l),
(210,332,l),
(210,710,l),
(113,710,l),
(22,665,l)
);
},
{
closed = 1;
nodes = (
(570,227,o),
(556,201,o),
(536,175,cs),
(467,83,l),
(467,0,l),
(691,0,l),
(691,95,l),
(599,95,l),
(642,159,ls),
(668,197,o),
(688,239,o),
(688,283,cs),
(688,355,o),
(627,383,o),
(565,383,cs),
(526,383,o),
(484,369,o),
(455,350,c),
(488,269,l),
(501,278,o),
(516,282,o),
(533,282,cs),
(551,282,o),
(570,272,o),
(570,251,cs)
);
},
{
closed = 1;
nodes = (
(94,59,l),
(168,4,l),
(629,693,l),
(555,748,l)
);
}
);
};
hints = (
{
horizontal = 1;
place = (0,95);
type = Stem;
},
{
horizontal = 1;
place = (282,101);
type = Stem;
},
{
horizontal = 1;
place = (710,-20);
target = down;
type = TopGhost;
},
{
horizontal = 1;
place = (748,-20);
target = down;
type = TopGhost;
},
{
place = (89,121);
type = Stem;
},
{
place = (570,118);
type = Stem;
},
{
place = (467,224);
type = Stem;
},
{
horizontal = 1;
place = (4,21);
target = up;
type = BottomGhost;
}
);
layerId = "C10BC21D-E45C-40C5-B032-7ED8CDD0420E";
shapes = (
{
ref = onesuperior;
},
{
pos = (280,0);
ref = fraction;
},
{
alignment = -1;
pos = (441,-332);
ref = twosuperior;
}
);
width = 765;
}
);
metricLeft = onesuperior;
note = onehalf;
unicode = 189;
},
{
color = 4;
glyphname = onesuperior;
lastChange = "2023-05-02 15:28:15 +0000";
layers = (
{
background = {
shapes = (
{
closed = 1;
nodes = (
(26,565,l),
(82,593,l),
(82,332,l),
(223,332,l),
(223,710,l),
(106,710,l),
(15,665,l)
);
}
);
};
layerId = "C10BC21D-E45C-40C5-B032-7ED8CDD0420E";
shapes = (
{
closed = 1;
nodes = (
(28,545,l),
(94,566,l),
(94,332,l),
(235,332,l),
(235,710,l),
(138,710,l),
(15,665,l)
);
}
);
width = 280;
}
);
metricLeft = one;
metricRight = one;
unicode = 185;
},
{
color = 4;
glyphname = twosuperior;
lastChange = "2023-05-02 15:28:15 +0000";
layers = (
{
background = {
shapes = (
{
closed = 1;
nodes = (
(80,590,l),
(146,611,l),
(146,377,l),
(287,377,l),
(287,755,l),
(190,755,l),
(67,710,l)
);
}
);
};
guides = (
{
pos = (343,332);
}
);
layerId = "C10BC21D-E45C-40C5-B032-7ED8CDD0420E";
shapes = (
{
closed = 1;
nodes = (
(294,332,l),
(294,427,l),
(175,427,l),
(229,483,ls),
(270,526,o),
(290,571,o),
(290,615,cs),
(290,681,o),
(226,715,o),
(141,715,cs),
(97,715,o),
(60,708,o),
(29,695,c),
(42,606,l),
(53,610,o),
(71,613,o),
(89,613,cs),
(115,613,o),
(143,604,o),
(143,581,cs),
(143,557,o),
(129,530,o),
(57,447,cs),
(29,415,l),
(29,332,l)
);
}
);
width = 324;
}
);
metricLeft = two;
metricRight = two;
unicode = 178;
},
{
color = 4;
glyphname = threesuperior;
lastChange = "2023-11-24 15:19:59 +0000";
layers = (
{
background = {
shapes = (
{
closed = 1;
nodes = (
(68,407,o),
(25,429,c),
(10,344,l),
(123,303,o),
(299,320,o),
(299,433,cs),
(299,483,o),
(268,505,o),
(220,521,c),
(220,523,l),
(269,536,o),
(294,566,o),
(294,618,cs),
(294,716,o),
(121,735,o),
(20,697,c),
(35,611,l),
(63,629,o),
(144,631,o),
(142,594,cs),
(143,568,o),
(122,562,o),
(68,562,cs),
(61,562,l),
(61,487,l),
(70,487,ls),
(128,487,o),
(150,482,o),
(150,450,cs),
(150,406,o)
);
}
);
};
layerId = "C10BC21D-E45C-40C5-B032-7ED8CDD0420E";
shapes = (
{
closed = 1;
nodes = (
(123,303,o),
(299,320,o),
(299,433,cs),
(299,483,o),
(267,505,o),
(218,521,c),
(218,523,l),
(268,536,o),
(294,566,o),
(294,618,cs),
(294,716,o),
(121,735,o),
(20,697,c),
(35,614,l),
(64,626,o),
(144,631,o),
(142,594,cs),
(143,568,o),
(122,562,o),
(68,562,cs),
(61,562,l),
(61,487,l),
(70,487,ls),
(128,487,o),
(150,482,o),
(150,450,cs),
(150,406,o),
(68,412,o),
(25,426,c),
(10,344,l)
);
}
);
width = 313;
}
);
unicode = 179;
},
{
color = 4;
glyphname = foursuperior;
lastChange = "2023-05-02 15:28:15 +0000";
layers = (
{
background = {
shapes = (
{
closed = 1;
nodes = (
(115,545,l),
(181,566,l),
(181,332,l),
(322,332,l),
(322,710,l),
(225,710,l),
(102,665,l)
);
}
);
};
guides = (
{
pos = (111,332);
}
);
layerId = "C10BC21D-E45C-40C5-B032-7ED8CDD0420E";
shapes = (
{
closed = 1;
nodes = (
(133,710,l),
(74,638,o),
(45,555,o),
(21,469,c),
(21,380,l),
(180,380,l),
(180,332,l),
(311,332,l),
(311,380,l),
(343,380,l),
(358,483,l),
(311,483,l),
(311,692,l)
);
},
{
closed = 1;
nodes = (
(140,483,l),
(145,508,o),
(149,530,o),
(161,557,cs),
(186,613,l),
(180,512,l),
(180,483,l)
);
}
);
width = 363;
}
);
unicode = 8308;
},
{
glyphname = .notdef;
lastChange = "2023-04-27 14:21:07 +0000";
layers = (
{
background = {
shapes = (
{
closed = 1;
nodes = (
(424,225,o),
(373,174,o),
(311,174,cs),
(249,174,o),
(198,225,o),
(198,287,cs),
(198,349,o),
(249,400,o),
(311,400,cs),
(373,400,o),
(424,349,o),
(424,287,cs)
);
},
{
closed = 1;
nodes = (
(148,583,o),
(15,450,o),
(15,287,cs),
(15,124,o),
(148,-9,o),
(311,-9,cs),
(474,-9,o),
(607,124,o),
(607,287,cs),
(607,450,o),
(474,583,o),
(311,583,cs)
);
},
{
closed = 1;
nodes = (
(74,319,o),
(80,348,o),
(91,376,c),
(90,369,o),
(90,361,o),
(90,354,cs),
(90,238,o),
(181,141,o),
(295,134,cs),
(301,133,o),
(306,133,o),
(311,133,cs),
(396,133,o),
(466,202,o),
(466,287,cs),
(466,297,o),
(464,306,o),
(463,315,c),
(480,288,o),
(491,255,o),
(491,220,cs),
(491,159,o),
(459,105,o),
(412,73,c),
(382,58,o),
(347,50,o),
(311,50,cs),
(180,50,o),
(74,156,o),
(74,287,cs)
);
},
{
closed = 1;
nodes = (
(548,256,o),
(542,226,o),
(531,198,c),
(532,205,o),
(532,213,o),
(532,220,cs),
(532,337,o),
(441,433,o),
(327,441,cs),
(322,441,o),
(316,442,o),
(311,442,cs),
(226,442,o),
(157,372,o),
(157,287,cs),
(157,278,o),
(158,268,o),
(160,259,c),
(142,286,o),
(132,319,o),
(132,354,cs),
(132,415,o),
(163,469,o),
(210,501,c),
(241,516,o),
(275,524,o),
(311,524,cs),
(442,524,o),
(548,418,o),
(548,287,cs)
);
},
{
closed = 1;
nodes = (
(424,225,o),
(373,174,o),
(311,174,cs),
(249,174,o),
(198,225,o),
(198,287,cs),
(198,349,o),
(249,400,o),
(311,400,cs),
(373,400,o),
(424,349,o),
(424,287,cs)
);
}
);
};
hints = (
{
horizontal = 1;
place = (-9,59);
type = Stem;
},
{
horizontal = 1;
place = (133,41);
type = Stem;
},
{
horizontal = 1;
place = (400,42);
type = Stem;
},
{
horizontal = 1;
place = (524,59);
type = Stem;
},
{
place = (15,59);
type = Stem;
},
{
place = (157,41);
type = Stem;
},
{
place = (424,42);
type = Stem;
},
{
place = (548,59);
type = Stem;
},
{
place = (90,42);
type = Stem;
},
{
place = (491,41);
type = Stem;
}
);
layerId = "C10BC21D-E45C-40C5-B032-7ED8CDD0420E";
shapes = (
{
closed = 1;
nodes = (
(474,-9,o),
(607,124,o),
(607,287,cs),
(607,450,o),
(474,583,o),
(311,583,cs),
(148,583,o),
(15,450,o),
(15,287,cs),
(15,117,o),
(148,-9,o),
(311,-9,cs)
);
},
{
closed = 1;
nodes = (
(180,50,o),
(74,156,o),
(74,287,cs),
(74,319,o),
(80,348,o),
(91,376,c),
(90,369,o),
(90,361,o),
(90,354,cs),
(90,230,o),
(193,133,o),
(311,133,cs),
(396,133,o),
(466,202,o),
(466,287,cs),
(466,297,o),
(464,306,o),
(463,315,c),
(480,288,o),
(491,255,o),
(491,220,cs),
(491,116,o),
(415,50,o),
(311,50,cs)
);
},
{
closed = 1;
nodes = (
(249,174,o),
(198,225,o),
(198,287,cs),
(198,349,o),
(249,400,o),
(311,400,cs),
(373,400,o),
(424,349,o),
(424,287,cs),
(424,225,o),
(373,174,o),
(311,174,cs)
);
},
{
closed = 1;
nodes = (
(532,205,o),
(532,213,o),
(532,220,cs),
(532,350,o),
(422,442,o),
(311,442,cs),
(226,442,o),
(157,372,o),
(157,287,cs),
(157,278,o),
(158,268,o),
(160,259,c),
(142,286,o),
(132,319,o),
(132,354,cs),
(132,444,o),
(189,524,o),
(311,524,cs),
(442,524,o),
(548,418,o),
(548,287,cs),
(548,256,o),
(542,226,o),
(531,198,c)
);
}
);
width = 622;
}
);
note = ".notdef";
},
{
color = 4;
glyphname = period;
kernLeft = comma;
kernRight = comma;
lastChange = "2023-05-02 15:44:32 +0000";
layers = (
{
hints = (
{
horizontal = 1;
place = (-10,183);
type = Stem;
},
{
place = (60,178);
type = Stem;
}
);
layerId = "C10BC21D-E45C-40C5-B032-7ED8CDD0420E";
shapes = (
{
closed = 1;
nodes = (
(62,0,l),
(238,0,l),
(238,165,l),
(62,165,l)
);
}
);
width = 300;
}
);
note = period;
unicode = 46;
},
{
color = 4;
glyphname = comma;
kernLeft = comma;
kernRight = comma;
lastChange = "2023-05-02 15:44:32 +0000";
layers = (
{
guides = (
{
pos = (137,164);
}
);
hints = (
{
horizontal = 1;
place = (-128,21);
target = up;
type = BottomGhost;
},
{
horizontal = 1;
place = (120,-20);
target = down;
type = TopGhost;
}
);
layerId = "C10BC21D-E45C-40C5-B032-7ED8CDD0420E";
shapes = (
{
closed = 1;
nodes = (
(20,-84,l),
(161,-84,l),
(255,164,l),
(75,164,l)
);
}
);
width = 300;
}
);
note = comma;
unicode = 44;
},
{
color = 4;
glyphname = exclam;
lastChange = "2023-05-02 15:44:32 +0000";
layers = (
{
hints = (
{
horizontal = 1;
place = (-10,173);
type = Stem;
},
{
horizontal = 1;
place = (779,-20);
target = down;
type = TopGhost;
},
{
place = (68,165);
type = Stem;
},
{
place = (53,195);
type = Stem;
}
);
layerId = "C10BC21D-E45C-40C5-B032-7ED8CDD0420E";
shapes = (
{
closed = 1;
nodes = (
(218,224,l),
(248,610,l),
(248,779,l),
(52,779,l),
(52,610,l),
(82,224,l)
);
},
{
closed = 1;
nodes = (
(241,0,l),
(241,136,l),
(60,136,l),
(60,0,l)
);
}
);
width = 300;
}
);
note = exclam;
unicode = 33;
},
{
color = 4;
glyphname = question;
lastChange = "2023-05-02 15:44:32 +0000";
layers = (
{
background = {
shapes = (
{
closed = 1;
nodes = (
(242,224,l),
(242,350,l),
(357,370,o),
(416,460,o),
(416,575,cs),
(416,730,o),
(296,788,o),
(164,788,cs),
(97,788,o),
(56,784,o),
(10,774,c),
(28,614,l),
(47,617,o),
(68,620,o),
(100,620,cs),
(168,620,o),
(205,586,o),
(205,543,cs),
(205,471,o),
(134,455,o),
(72,455,cs),
(62,455,l),
(62,224,l)
);
},
{
closed = 1;
nodes = (
(242,0,l),
(242,136,l),
(62,136,l),
(62,0,l)
);
}
);
};
hints = (
{
horizontal = 1;
place = (-10,173);
type = Stem;
},
{
horizontal = 1;
place = (350,105);
type = Stem;
},
{
horizontal = 1;
place = (620,168);
type = Stem;
},
{
place = (205,211);
type = Stem;
},
{
place = (62,180);
type = Stem;
}
);
layerId = "C10BC21D-E45C-40C5-B032-7ED8CDD0420E";
shapes = (
{
closed = 1;
nodes = (
(242,224,l),
(242,350,l),
(357,370,o),
(416,460,o),
(416,575,cs),
(416,730,o),
(296,788,o),
(164,788,cs),
(97,788,o),
(56,784,o),
(10,774,c),
(28,615,l),
(47,618,o),
(68,620,o),
(100,620,cs),
(168,620,o),
(205,589,o),
(205,550,cs),
(205,485,o),
(134,470,o),
(72,470,cs),
(62,470,l),
(62,224,l)
);
},
{
closed = 1;
nodes = (
(242,0,l),
(242,136,l),
(62,136,l),
(62,0,l)
);
}
);
width = 441;
}
);
note = question;
unicode = 63;
},
{
color = 4;
glyphname = questiondown;
lastChange = "2023-11-24 14:34:08 +0000";
layers = (
{
background = {
hints = (
{
horizontal = 1;
origin = (0,5);
place = (405,-173);
type = Stem;
},
{
horizontal = 1;
origin = (0,5);
target = up;
type = BottomGhost;
},
{
origin = (0,5);
place = (97,-165);
type = Stem;
},
{
origin = (0,5);
place = (97,-195);
type = Stem;
}
);
shapes = (
{
closed = 1;
nodes = (
(67,19,l),
(67,-150,l),
(263,-150,l),
(263,19,l),
(233,405,l),
(97,405,l)
);
},
{
closed = 1;
nodes = (
(75,493,l),
(256,493,l),
(256,629,l),
(75,629,l)
);
}
);
};
hints = (
{
horizontal = 1;
place = (-10,168);
type = Stem;
},
{
horizontal = 1;
place = (323,105);
type = Stem;
},
{
horizontal = 1;
place = (615,173);
type = Stem;
},
{
place = (25,211);
type = Stem;
},
{
place = (199,180);
type = Stem;
}
);
layerId = "C10BC21D-E45C-40C5-B032-7ED8CDD0420E";
shapes = (
{
angle = 180;
pos = (441,629);
ref = question;
}
);
width = 441;
}
);
metricLeft = "=|question";
metricRight = "=|question";
note = questiondown;
unicode = 191;
},
{
color = 4;
glyphname = bullet;
kernLeft = bullet;
kernRight = bullet;
lastChange = "2023-05-02 15:44:32 +0000";
layers = (
{
hints = (
{
horizontal = 1;
place = (174,21);
target = up;
type = BottomGhost;
},
{
horizontal = 1;
place = (465,-20);
target = down;
type = TopGhost;
}
);
layerId = "C10BC21D-E45C-40C5-B032-7ED8CDD0420E";
shapes = (
{
closed = 1;
nodes = (
(295,174,o),
(345,228,o),
(345,319,cs),
(345,409,o),
(295,465,o),
(199,465,cs),
(101,465,o),
(55,409,o),
(55,319,cs),
(55,228,o),
(101,174,o),
(199,174,cs)
);
}
);
width = 400;
}
);
note = bullet;
unicode = 8226;
},
{
color = 4;
glyphname = asterisk;
lastChange = "2023-05-02 15:44:32 +0000";
layers = (
{
background = {
shapes = (
{
closed = 1;
nodes = (
(302,794,l),
(180,794,l),
(204,656,l),
(96,745,l),
(34,641,l),
(166,590,l),
(33,541,l),
(94,436,l),
(204,526,l),
(180,386,l),
(302,386,l),
(278,525,l),
(386,436,l),
(449,540,l),
(316,590,l),
(447,640,l),
(386,745,l),
(279,656,l)
);
}
);
};
hints = (
{
horizontal = 1;
place = (466,21);
target = up;
type = BottomGhost;
},
{
horizontal = 1;
place = (794,-20);
target = down;
type = TopGhost;
}
);
layerId = "C10BC21D-E45C-40C5-B032-7ED8CDD0420E";
shapes = (
{
closed = 1;
nodes = (
(302,386,l),
(278,525,l),
(386,436,l),
(449,540,l),
(316,590,l),
(447,640,l),
(386,745,l),
(279,656,l),
(302,794,l),
(180,794,l),
(204,656,l),
(96,745,l),
(34,641,l),
(166,590,l),
(33,541,l),
(94,436,l),
(204,526,l),
(180,386,l)
);
}
);
width = 482;
}
);
note = asterisk;
unicode = 42;
},
{
color = 4;
glyphname = numbersign;
lastChange = "2023-05-02 15:44:32 +0000";
layers = (
{
background = {
shapes = (
{
closed = 1;
nodes = (
(485,0,l),
(613,0,l),
(721,720,l),
(593,720,l)
);
}
);
};
guides = (
{
angle = 265.9504;
pos = (567,518);
}
);
hints = (
{
horizontal = 1;
place = (0,21);
target = up;
type = BottomGhost;
},
{
horizontal = 1;
place = (575,-20);
target = down;
type = TopGhost;
}
);
layerId = "C10BC21D-E45C-40C5-B032-7ED8CDD0420E";
shapes = (
{
closed = 1;
nodes = (
(294,0,l),
(422,0,l),
(530,720,l),
(402,720,l)
);
},
{
closed = 1;
nodes = (
(564,461,l),
(581,574,l),
(89,574,l),
(71,461,l)
);
},
{
closed = 1;
nodes = (
(518,154,l),
(534,267,l),
(42,267,l),
(24,154,l)
);
},
{
closed = 1;
nodes = (
(80,0,l),
(208,0,l),
(316,720,l),
(188,720,l)
);
}
);
width = 605;
}
);
note = numbersign;
unicode = 35;
},
{
color = 4;
glyphname = slash;
lastChange = "2023-05-02 15:44:32 +0000";
layers = (
{
hints = (
{
horizontal = 1;
place = (-36,21);
target = up;
type = BottomGhost;
},
{
horizontal = 1;
place = (755,-20);
target = down;
type = TopGhost;
}
);
layerId = "C10BC21D-E45C-40C5-B032-7ED8CDD0420E";
shapes = (
{
closed = 1;
nodes = (
(0,-36,l),
(169,-36,l),
(427,755,l),
(258,755,l)
);
}
);
width = 427;
}
);
note = slash;
unicode = 47;
},
{
color = 4;
glyphname = hyphen;
kernLeft = hyphen;
kernRight = hyphen;
lastChange = "2023-05-02 15:44:32 +0000";
layers = (
{
hints = (
{
horizontal = 1;
place = (269,21);
target = up;
type = BottomGhost;
},
{
horizontal = 1;
place = (408,-20);
target = down;
type = TopGhost;
}
);
layerId = "C10BC21D-E45C-40C5-B032-7ED8CDD0420E";
shapes = (
{
closed = 1;
nodes = (
(30,408,l),
(30,269,l),
(270,269,l),
(270,408,l)
);
}
);
width = 300;
}
);
note = hyphen;
unicode = 45;
},
{
color = 4;
glyphname = endash;
kernLeft = hyphen;
kernRight = hyphen;
lastChange = "2023-05-02 15:44:32 +0000";
layers = (
{
hints = (
{
horizontal = 1;
place = (279,21);
target = up;
type = BottomGhost;
},
{
horizontal = 1;
place = (398,-20);
target = down;
type = TopGhost;
}
);
layerId = "C10BC21D-E45C-40C5-B032-7ED8CDD0420E";
shapes = (
{
closed = 1;
nodes = (
(10,398,l),
(10,279,l),
(440,279,l),
(440,398,l)
);
}
);
width = 450;
}
);
note = endash;
unicode = 8211;
},
{
color = 4;
glyphname = emdash;
kernLeft = hyphen;
kernRight = hyphen;
lastChange = "2023-05-02 15:44:32 +0000";
layers = (
{
hints = (
{
horizontal = 1;
place = (279,21);
target = up;
type = BottomGhost;
},
{
horizontal = 1;
place = (398,-20);
target = down;
type = TopGhost;
}
);
layerId = "C10BC21D-E45C-40C5-B032-7ED8CDD0420E";
shapes = (
{
closed = 1;
nodes = (
(50,398,l),
(50,279,l),
(625,279,l),
(625,398,l)
);
}
);
width = 675;
}
);
note = emdash;
unicode = 8212;
},
{
color = 4;
glyphname = parenleft;
lastChange = "2023-05-02 15:44:32 +0000";
layers = (
{
background = {
shapes = (
{
closed = 0;
nodes = (
(387,-60,ls),
(128,201,ls)
);
},
{
closed = 0;
nodes = (
(-10,97,ls),
(281,-196,ls)
);
},
{
closed = 1;
nodes = (
(342,-35,l),
(236,68,ls),
(221,83,o),
(219,99,o),
(219,120,cs),
(219,516,ls),
(219,537,o),
(221,553,o),
(236,568,cs),
(342,671,l),
(232,782,l),
(71,620,ls),
(44,593,o),
(35,575,o),
(35,540,cs),
(35,96,ls),
(35,61,o),
(44,43,o),
(71,16,cs),
(232,-146,l)
);
}
);
};
guides = (
{
pos = (126,516);
},
{
angle = -40.9153;
pos = (184,613);
}
);
hints = (
{
horizontal = 1;
place = (-146,21);
target = up;
type = BottomGhost;
},
{
horizontal = 1;
place = (782,-20);
target = down;
type = TopGhost;
},
{
place = (50,169);
type = Stem;
}
);
layerId = "C10BC21D-E45C-40C5-B032-7ED8CDD0420E";
shapes = (
{
closed = 1;
nodes = (
(348,-29,l),
(236,80,ls),
(220,95,o),
(219,111,o),
(219,132,cs),
(219,504,ls),
(219,525,o),
(220,541,o),
(236,556,cs),
(348,665,l),
(232,782,l),
(71,620,ls),
(44,593,o),
(35,575,o),
(35,540,cs),
(35,96,ls),
(35,61,o),
(44,43,o),
(71,16,cs),
(232,-146,l)
);
}
);
width = 380;
}
);
note = parenleft;
unicode = 40;
},
{
color = 4;
glyphname = braceleft;
lastChange = "2023-05-02 15:44:32 +0000";
layers = (
{
background = {
shapes = (
{
closed = 1;
nodes = (
(426,-29,l),
(314,80,ls),
(298,95,o),
(297,111,o),
(297,132,cs),
(297,504,ls),
(297,525,o),
(298,541,o),
(314,556,cs),
(426,665,l),
(310,782,l),
(149,620,ls),
(122,593,o),
(113,575,o),
(113,540,cs),
(113,96,ls),
(113,61,o),
(122,43,o),
(149,16,cs),
(310,-146,l)
);
}
);
};
hints = (
{
place = (15,264);
type = Stem;
},
{
place = (120,255);
type = Stem;
},
{
place = (120,159);
type = Stem;
}
);
layerId = "C10BC21D-E45C-40C5-B032-7ED8CDD0420E";
shapes = (
{
closed = 1;
nodes = (
(387,-123,l),
(387,25,l),
(343,25,ls),
(306,25,o),
(291,42,o),
(291,96,cs),
(291,167,ls),
(291,261,o),
(244,297,o),
(171,315,c),
(171,317,l),
(244,335,o),
(291,371,o),
(291,465,cs),
(291,536,ls),
(291,590,o),
(306,607,o),
(343,607,cs),
(387,607,l),
(387,755,l),
(337,755,ls),
(174,755,o),
(115,709,o),
(115,565,cs),
(115,510,ls),
(115,415,o),
(86,385,o),
(10,385,c),
(10,247,l),
(86,247,o),
(115,217,o),
(115,122,cs),
(115,67,ls),
(115,-77,o),
(174,-123,o),
(337,-123,cs)
);
}
);
width = 436;
}
);
note = braceleft;
unicode = 123;
},
{
color = 4;
glyphname = bracketleft;
lastChange = "2023-05-02 15:44:32 +0000";
layers = (
{
hints = (
{
horizontal = 1;
place = (-124,130);
type = Stem;
},
{
horizontal = 1;
place = (625,130);
type = Stem;
},
{
place = (55,259);
type = Stem;
},
{
place = (55,160);
type = Stem;
}
);
layerId = "C10BC21D-E45C-40C5-B032-7ED8CDD0420E";
shapes = (
{
closed = 1;
nodes = (
(55,-124,l),
(314,-124,l),
(314,24,l),
(215,24,l),
(215,607,l),
(314,607,l),
(314,755,l),
(55,755,l)
);
}
);
width = 349;
}
);
note = bracketleft;
unicode = 91;
},
{
color = 4;
glyphname = quotedblbase;
kernLeft = comma;
kernRight = comma;
lastChange = "2023-11-24 14:34:08 +0000";
layers = (
{
background = {
hints = (
{
horizontal = 1;
place = (-117,-20);
target = down;
type = TopGhost;
},
{
horizontal = 1;
place = (145,21);
target = up;
type = BottomGhost;
},
{
place = (30,165);
type = Stem;
},
{
horizontal = 1;
place = (102,-20);
target = down;
type = TopGhost;
},
{
horizontal = 1;
place = (-160,21);
target = up;
type = BottomGhost;
},
{
place = (227,-165);
type = Stem;
}
);
shapes = (
{
closed = 1;
nodes = (
(212,45,ls),
(212,112,o),
(177,145,o),
(105,145,cs),
(20,145,l),
(20,-160,l),
(212,-134,l)
);
}
);
};
hints = (
{
horizontal = 1;
place = (-133,-20);
target = down;
type = TopGhost;
},
{
horizontal = 1;
place = (129,21);
target = up;
type = BottomGhost;
},
{
place = (30,165);
type = Stem;
},
{
place = (242,165);
type = Stem;
}
);
layerId = "C10BC21D-E45C-40C5-B032-7ED8CDD0420E";
shapes = (
{
pos = (0,-618);
ref = quotedblright;
}
);
width = 488;
}
);
metricLeft = quoteright;
metricRight = quoteright;
note = quotedblbase;
unicode = 8222;
},
{
color = 4;
glyphname = quoteleft;
kernLeft = quoteleft;
kernRight = quoteleft;
lastChange = "2023-05-02 15:44:32 +0000";
layers = (
{
hints = (
{
horizontal = 1;
place = (501,21);
target = up;
type = BottomGhost;
},
{
horizontal = 1;
place = (763,-20);
target = down;
type = TopGhost;
},
{
place = (30,165);
type = Stem;
}
);
layerId = "C10BC21D-E45C-40C5-B032-7ED8CDD0420E";
shapes = (
{
closed = 1;
nodes = (
(45,558,ls),
(45,491,o),
(80,458,o),
(152,458,cs),
(237,458,l),
(237,763,l),
(45,737,l)
);
}
);
width = 257;
}
);
metricLeft = "=|comma";
metricRight = "=|comma";
note = quoteleft;
unicode = 8216;
},
{
color = 4;
glyphname = guilsinglleft;
kernLeft = guilsinglleft;
kernRight = guilsinglleft;
lastChange = "2023-05-02 15:44:32 +0000";
layers = (
{
hints = (
{
horizontal = 1;
place = (59,21);
target = up;
type = BottomGhost;
},
{
horizontal = 1;
place = (459,-20);
target = down;
type = TopGhost;
}
);
layerId = "C10BC21D-E45C-40C5-B032-7ED8CDD0420E";
shapes = (
{
closed = 1;
nodes = (
(176,259,l),
(306,459,l),
(150,459,l),
(20,264,l),
(20,254,l),
(150,59,l),
(306,59,l)
);
}
);
width = 346;
}
);
note = guilsinglleft;
unicode = 8249;
},
{
color = 4;
glyphname = quotesingle;
lastChange = "2023-05-02 15:44:32 +0000";
layers = (
{
background = {
shapes = (
{
closed = 1;
nodes = (
(30,558,ls),
(30,491,o),
(65,458,o),
(137,458,cs),
(222,458,l),
(222,763,l),
(30,737,l)
);
}
);
};
hints = (
{
horizontal = 1;
place = (530,21);
target = up;
type = BottomGhost;
},
{
horizontal = 1;
place = (754,-20);
target = down;
type = TopGhost;
},
{
place = (38,117);
type = Stem;
}
);
layerId = "C10BC21D-E45C-40C5-B032-7ED8CDD0420E";
shapes = (
{
closed = 1;
nodes = (
(51,458,l),
(184,458,l),
(206,754,l),
(30,754,l)
);
}
);
width = 236;
}
);
note = quotesingle;
unicode = 39;
},
{
color = 4;
glyphname = florin;
lastChange = "2023-05-02 16:24:39 +0000";
layers = (
{
hints = (
{
horizontal = 1;
place = (-149,344);
type = Stem;
},
{
horizontal = 1;
place = (335,103);
type = Stem;
},
{
horizontal = 1;
place = (335,248);
type = Stem;
}
);
layerId = "C10BC21D-E45C-40C5-B032-7ED8CDD0420E";
shapes = (
{
closed = 1;
nodes = (
(28,-149,l),
(210,-149,l),
(260,195,l),
(359,195,l),
(379,335,l),
(280,335,l),
(288,395,ls),
(293,429,o),
(316,440,o),
(366,440,cs),
(374,440,o),
(384,439,o),
(393,438,c),
(412,578,l),
(387,581,o),
(361,583,o),
(337,583,cs),
(191,583,o),
(125,544,o),
(111,421,cs),
(100,335,l),
(40,335,l),
(20,195,l),
(79,195,l)
);
}
);
width = 422;
}
);
note = florin;
unicode = 402;
},
{
color = 4;
glyphname = at;
lastChange = "2023-11-24 15:20:28 +0000";
layers = (
{
hints = (
{
horizontal = 1;
place = (-10,132);
type = Stem;
},
{
horizontal = 1;
place = (140,24);
type = Stem;
},
{
horizontal = 1;
place = (338,86);
type = Stem;
},
{
place = (195,42);
type = Stem;
},
{
place = (267,25);
type = Stem;
},
{
place = (464,18);
type = Stem;
},
{
place = (567,48);
type = Stem;
},
{
horizontal = 1;
place = (138,79);
type = Stem;
},
{
place = (531,84);
type = Stem;
},
{
horizontal = 1;
place = (0,276);
type = Stem;
},
{
horizontal = 1;
place = (334,99);
type = Stem;
},
{
horizontal = 1;
place = (259,279);
type = Stem;
}
);
layerId = "C10BC21D-E45C-40C5-B032-7ED8CDD0420E";
shapes = (
{
closed = 1;
nodes = (
(511,-141,o),
(581,-137,o),
(636,-121,c),
(615,22,l),
(556,2,o),
(509,0,o),
(440,0,cs),
(315,0,o),
(229,66,o),
(229,270,cs),
(229,473,o),
(315,538,o),
(440,538,cs),
(522,538,o),
(567,507,o),
(567,433,c),
(524,433,ls),
(396,433,o),
(307,373,o),
(307,259,cs),
(307,148,o),
(381,85,o),
(461,85,cs),
(502,85,o),
(545,102,o),
(579,138,c),
(591,95,l),
(747,95,l),
(747,463,ls),
(747,615,o),
(620,679,o),
(460,679,cs),
(206,679,o),
(45,561,o),
(45,267,cs),
(45,-27,o),
(206,-141,o),
(460,-141,cs)
);
},
{
closed = 1;
nodes = (
(505,217,o),
(482,238,o),
(482,276,cs),
(482,314,o),
(514,334,o),
(554,334,cs),
(567,334,l),
(567,235,l),
(556,223,o),
(543,217,o),
(531,217,cs)
);
}
);
width = 797;
}
);
note = at;
unicode = 64;
},
{
color = 4;
glyphname = ampersand;
lastChange = "2023-05-02 16:24:39 +0000";
layers = (
{
background = {
shapes = (
{
closed = 1;
nodes = (
(363,417,ls),
(333,452,o),
(319,477,o),
(319,502,cs),
(319,551,o),
(357,566,o),
(399,566,cs),
(434,566,o),
(471,556,o),
(493,546,c),
(507,702,l),
(443,719,o),
(388,726,o),
(342,726,cs),
(191,726,o),
(119,645,o),
(119,526,cs),
(119,484,o),
(132,442,o),
(156,397,c),
(71,361,o),
(45,283,o),
(45,213,cs),
(45,101,o),
(132,-10,o),
(275,-10,cs),
(346,-10,o),
(407,7,o),
(444,38,c),
(476,1,l),
(731,1,l),
(588,162,l),
(652,253,o),
(670,374,o),
(670,451,c),
(484,451,l),
(484,413,o),
(481,354,o),
(466,300,c)
);
},
{
closed = 1;
nodes = (
(264,137,o),
(230,188,o),
(230,250,cs),
(230,264,o),
(232,278,o),
(235,290,c),
(364,138,l),
(356,137,o),
(349,137,o),
(342,137,cs)
);
}
);
};
hints = (
{
horizontal = 1;
place = (1,21);
target = up;
type = BottomGhost;
},
{
horizontal = 1;
place = (566,160);
type = Stem;
},
{
place = (113,125);
type = Stem;
},
{
place = (469,195);
type = Stem;
},
{
horizontal = 1;
place = (-9,151);
type = Stem;
},
{
place = (40,198);
type = Stem;
}
);
layerId = "C10BC21D-E45C-40C5-B032-7ED8CDD0420E";
shapes = (
{
closed = 1;
nodes = (
(363,417,ls),
(333,452,o),
(319,477,o),
(319,502,cs),
(319,547,o),
(352,567,o),
(406,567,cs),
(434,567,o),
(465,560,o),
(493,549,c),
(507,705,l),
(453,719,o),
(401,727,o),
(352,727,cs),
(220,727,o),
(119,668,o),
(119,526,cs),
(119,484,o),
(132,442,o),
(156,397,c),
(71,361,o),
(45,283,o),
(45,213,cs),
(45,101,o),
(132,-10,o),
(275,-10,cs),
(346,-10,o),
(407,7,o),
(444,38,c),
(476,1,l),
(731,1,l),
(588,162,l),
(652,253,o),
(670,374,o),
(670,451,c),
(484,451,l),
(484,413,o),
(481,354,o),
(466,300,c)
);
},
{
closed = 1;
nodes = (
(264,137,o),
(230,188,o),
(230,250,cs),
(230,264,o),
(232,278,o),
(235,290,c),
(364,138,l),
(356,137,o),
(349,137,o),
(342,137,cs)
);
}
);
width = 746;
}
);
note = ampersand;
unicode = 38;
},
{
color = 4;
glyphname = paragraph;
lastChange = "2023-11-24 14:34:08 +0000";
layers = (
{
background = {
hints = (
{
horizontal = 1;
origin = (0,11);
target = up;
type = BottomGhost;
},
{
horizontal = 1;
origin = (0,11);
place = (0,144);
type = Stem;
},
{
horizontal = 1;
origin = (0,11);
place = (0,143);
type = Stem;
},
{
origin = (0,11);
place = (523,205);
type = Stem;
},
{
origin = (0,11);
place = (523,76);
type = Stem;
}
);
shapes = (
{
closed = 1;
nodes = (
(523,583,l),
(578,720,l),
(290,720,ls),
(111,720,o),
(24,655,o),
(24,455,cs),
(24,271,o),
(111,195,o),
(290,195,cs),
(328,195,l),
(328,0,l),
(523,0,l)
);
},
{
closed = 1;
nodes = (
(264,338,o),
(233,368,o),
(233,457,cs),
(233,559,o),
(254,579,o),
(328,579,c),
(328,338,l)
);
}
);
};
hints = (
{
horizontal = 1;
place = (0,21);
target = up;
type = BottomGhost;
},
{
horizontal = 1;
place = (634,86);
type = Stem;
},
{
place = (286,84);
type = Stem;
},
{
place = (399,83);
type = Stem;
}
);
layerId = "C10BC21D-E45C-40C5-B032-7ED8CDD0420E";
shapes = (
{
closed = 1;
nodes = (
(286,227,l),
(286,0,l),
(391,0,l),
(391,634,l),
(420,634,l),
(420,0,l),
(525,0,l),
(525,583,l),
(580,720,l),
(242,720,ls),
(103,720,o),
(35,651,o),
(35,473,cs),
(35,296,o),
(99,227,o),
(242,227,cs)
);
}
);
width = 580;
}
);
note = paragraph;
unicode = 182;
},
{
color = 4;
glyphname = section;
lastChange = "2023-05-02 16:24:39 +0000";
layers = (
{
hints = (
{
horizontal = 1;
place = (-139,140);
type = Stem;
},
{
horizontal = 1;
place = (-137,140);
type = Stem;
},
{
horizontal = 1;
place = (-16,140);
type = Stem;
},
{
horizontal = 1;
place = (-10,140);
type = Stem;
},
{
horizontal = 1;
place = (314,140);
type = Stem;
},
{
horizontal = 1;
place = (437,140);
type = Stem;
},
{
horizontal = 1;
place = (443,140);
type = Stem;
},
{
horizontal = 1;
place = (539,140);
type = Stem;
},
{
place = (-2,181);
type = Stem;
},
{
place = (-2,182);
type = Stem;
},
{
place = (218,184);
type = Stem;
},
{
place = (219,183);
type = Stem;
},
{
place = (332,183);
type = Stem;
},
{
place = (679,182);
type = Stem;
},
{
place = (707,182);
type = Stem;
},
{
place = (900,183);
type = Stem;
},
{
place = (928,183);
type = Stem;
}
);
layerId = "C10BC21D-E45C-40C5-B032-7ED8CDD0420E";
shapes = (
{
closed = 1;
nodes = (
(362,-100,o),
(424,-45,o),
(424,67,cs),
(424,126,o),
(405,162,o),
(362,196,c),
(426,220,o),
(454,268,o),
(454,343,cs),
(454,436,o),
(417,473,o),
(360,510,cs),
(276,564,ls),
(259,575,o),
(251,582,o),
(251,595,cs),
(251,617,o),
(271,624,o),
(319,624,cs),
(369,624,o),
(421,615,o),
(421,615,c),
(436,748,l),
(436,748,o),
(363,763,o),
(280,763,cs),
(131,762,o),
(70,711,o),
(70,606,cs),
(70,538,o),
(92,501,o),
(127,472,c),
(66,448,o),
(40,399,o),
(40,327,cs),
(40,234,o),
(80,199,o),
(137,161,cs),
(217,108,ls),
(231,99,o),
(240,93,o),
(240,76,cs),
(240,55,o),
(221,44,o),
(185,44,cs),
(103,44,o),
(50,55,o),
(50,55,c),
(35,-81,l),
(82,-93,o),
(138,-101,o),
(206,-101,cs)
);
},
{
closed = 1;
nodes = (
(231,283,ls),
(210,297,o),
(198,308,o),
(198,334,cs),
(198,359,o),
(223,382,o),
(255,390,c),
(277,377,ls),
(299,364,o),
(310,352,o),
(310,326,cs),
(310,300,o),
(285,278,o),
(252,269,c)
);
}
);
width = 489;
}
);
note = section;
unicode = 167;
},
{
color = 4;
glyphname = copyright;
lastChange = "2023-05-02 16:24:39 +0000";
layers = (
{
background = {
shapes = (
{
closed = 1;
nodes = (
(35,225,o),
(188,72,o),
(380,72,cs),
(573,72,o),
(726,225,o),
(726,418,cs),
(726,610,o),
(573,763,o),
(380,763,cs),
(188,763,o),
(35,610,o),
(35,418,cs)
);
},
{
closed = 1;
nodes = (
(120,563,o),
(235,678,o),
(380,678,cs),
(526,678,o),
(640,563,o),
(640,418,cs),
(640,272,o),
(526,158,o),
(380,158,cs),
(235,158,o),
(120,272,o),
(120,418,cs)
);
},
{
closed = 1;
nodes = (
(419,444,l),
(480,444,l),
(480,591,l),
(451,605,o),
(419,609,o),
(393,609,cs),
(272,609,o),
(227,535,o),
(227,414,cs),
(227,288,o),
(278,224,o),
(403,224,cs),
(428,224,o),
(461,226,o),
(484,232,c),
(484,328,l),
(466,326,o),
(451,324,o),
(433,324,cs),
(374,324,o),
(348,345,o),
(348,416,cs),
(348,475,o),
(365,511,o),
(411,513,c)
);
}
);
};
hints = (
{
horizontal = 1;
place = (-10,155);
type = Stem;
},
{
horizontal = 1;
place = (221,100);
type = Stem;
},
{
horizontal = 1;
place = (507,99);
type = Stem;
},
{
horizontal = 1;
place = (678,85);
type = Stem;
},
{
place = (-605,210);
type = Stem;
},
{
place = (-269,210);
type = Stem;
},
{
place = (20,85);
type = Stem;
},
{
place = (205,137);
type = Stem;
},
{
place = (642,0);
type = Stem;
},
{
horizontal = 1;
place = (72,86);
type = Stem;
},
{
place = (625,86);
type = Stem;
},
{
place = (212,121);
type = Stem;
}
);
layerId = "C10BC21D-E45C-40C5-B032-7ED8CDD0420E";
shapes = (
{
closed = 1;
nodes = (
(577,72,o),
(726,218,o),
(726,418,cs),
(726,617,o),
(577,763,o),
(380,763,cs),
(184,763,o),
(35,617,o),
(35,418,cs),
(35,218,o),
(184,72,o),
(380,72,cs)
);
},
{
closed = 1;
nodes = (
(425,223,o),
(472,227,o),
(502,235,c),
(502,334,l),
(410,314,o),
(342,315,o),
(342,420,cs),
(342,493,o),
(364,517,o),
(408,517,c),
(423,449,l),
(499,449,l),
(499,596,l),
(468,604,o),
(443,609,o),
(408,609,cs),
(306,609,o),
(205,559,o),
(205,417,cs),
(205,280,o),
(284,223,o),
(391,223,cs)
);
},
{
closed = 1;
nodes = (
(231,158,o),
(120,265,o),
(120,418,cs),
(120,570,o),
(231,678,o),
(380,678,cs),
(530,678,o),
(640,570,o),
(640,418,cs),
(640,265,o),
(530,158,o),
(380,158,cs)
);
}
);
width = 761;
},
{
associatedMasterId = "C10BC21D-E45C-40C5-B032-7ED8CDD0420E";
background = {
shapes = (
{
closed = 1;
nodes = (
(20,225,o),
(173,72,o),
(365,72,cs),
(558,72,o),
(711,225,o),
(711,418,cs),
(711,610,o),
(558,763,o),
(365,763,cs),
(173,763,o),
(20,610,o),
(20,418,cs)
);
},
{
closed = 1;
nodes = (
(105,563,o),
(220,678,o),
(365,678,cs),
(511,678,o),
(625,563,o),
(625,418,cs),
(625,272,o),
(511,158,o),
(365,158,cs),
(220,158,o),
(105,272,o),
(105,418,cs)
);
},
{
closed = 1;
nodes = (
(404,444,l),
(465,444,l),
(465,591,l),
(436,605,o),
(404,609,o),
(378,609,cs),
(257,609,o),
(212,535,o),
(212,414,cs),
(212,288,o),
(263,224,o),
(388,224,cs),
(413,224,o),
(446,226,o),
(469,232,c),
(469,328,l),
(451,326,o),
(436,324,o),
(418,324,cs),
(359,324,o),
(333,345,o),
(333,416,cs),
(333,475,o),
(350,511,o),
(396,513,c)
);
}
);
};
hints = (
{
horizontal = 1;
place = (-10,155);
type = Stem;
},
{
horizontal = 1;
place = (221,100);
type = Stem;
},
{
horizontal = 1;
place = (507,99);
type = Stem;
},
{
horizontal = 1;
place = (678,85);
type = Stem;
},
{
place = (-605,210);
type = Stem;
},
{
place = (-269,210);
type = Stem;
},
{
place = (20,85);
type = Stem;
},
{
place = (205,137);
type = Stem;
},
{
place = (642,0);
type = Stem;
},
{
horizontal = 1;
place = (72,86);
type = Stem;
},
{
place = (625,86);
type = Stem;
},
{
place = (212,121);
type = Stem;
}
);
layerId = "76F1F733-3245-4A0A-B3A0-DD780B24D029";
name = "Mar 19 20, 17:45";
shapes = (
{
closed = 1;
nodes = (
(20,225,o),
(173,72,o),
(365,72,cs),
(558,72,o),
(711,225,o),
(711,418,cs),
(711,610,o),
(558,763,o),
(365,763,cs),
(173,763,o),
(20,610,o),
(20,418,cs)
);
},
{
closed = 1;
nodes = (
(105,563,o),
(220,678,o),
(365,678,cs),
(511,678,o),
(625,563,o),
(625,418,cs),
(625,272,o),
(511,158,o),
(365,158,cs),
(220,158,o),
(105,272,o),
(105,418,cs)
);
},
{
closed = 1;
nodes = (
(404,444,l),
(465,444,l),
(465,591,l),
(436,605,o),
(404,609,o),
(378,609,cs),
(257,609,o),
(212,535,o),
(212,414,cs),
(212,288,o),
(263,224,o),
(388,224,cs),
(413,224,o),
(446,226,o),
(469,232,c),
(469,328,l),
(451,326,o),
(436,324,o),
(418,324,cs),
(359,324,o),
(333,345,o),
(333,416,cs),
(333,475,o),
(350,511,o),
(396,513,c)
);
}
);
width = 731;
}
);
note = copyright;
unicode = 169;
},
{
color = 4;
glyphname = registered;
lastChange = "2023-05-02 16:24:39 +0000";
layers = (
{
background = {
shapes = (
{
closed = 1;
nodes = (
(229,606,l),
(258,535,l),
(258,228,l),
(366,228,l),
(366,351,l),
(380,351,l),
(420,228,l),
(531,228,l),
(475,372,l),
(500,396,o),
(517,432,o),
(517,483,cs),
(517,555,o),
(485,606,o),
(386,606,cs)
);
},
{
closed = 1;
nodes = (
(370,530,ls),
(396,530,o),
(406,518,o),
(406,475,cs),
(406,434,o),
(396,422,o),
(370,422,cs),
(366,422,l),
(366,530,l)
);
},
{
closed = 1;
nodes = (
(35,218,o),
(184,72,o),
(380,72,cs),
(577,72,o),
(726,218,o),
(726,418,cs),
(726,617,o),
(577,763,o),
(380,763,cs),
(184,763,o),
(35,617,o),
(35,418,cs)
);
},
{
closed = 1;
nodes = (
(120,570,o),
(231,678,o),
(380,678,cs),
(530,678,o),
(640,570,o),
(640,418,cs),
(640,265,o),
(530,158,o),
(380,158,cs),
(231,158,o),
(120,265,o),
(120,418,cs)
);
}
);
};
hints = (
{
horizontal = 1;
place = (0,21);
target = up;
type = BottomGhost;
},
{
horizontal = 1;
place = (72,86);
type = Stem;
},
{
horizontal = 1;
place = (234,92);
type = Stem;
},
{
horizontal = 1;
place = (579,141);
type = Stem;
},
{
place = (-603,195);
type = Stem;
},
{
place = (-327,200);
type = Stem;
},
{
place = (20,85);
type = Stem;
},
{
place = (243,108);
type = Stem;
},
{
place = (390,1);
type = Stem;
},
{
place = (625,86);
type = Stem;
},
{
horizontal = 1;
place = (530,76);
type = Stem;
},
{
horizontal = 1;
place = (678,85);
type = Stem;
},
{
horizontal = 1;
place = (228,194);
type = Stem;
}
);
layerId = "C10BC21D-E45C-40C5-B032-7ED8CDD0420E";
shapes = (
{
closed = 1;
nodes = (
(577,72,o),
(726,218,o),
(726,418,cs),
(726,617,o),
(577,763,o),
(380,763,cs),
(184,763,o),
(35,617,o),
(35,418,cs),
(35,218,o),
(184,72,o),
(380,72,cs)
);
},
{
closed = 1;
nodes = (
(231,158,o),
(120,265,o),
(120,418,cs),
(120,570,o),
(231,678,o),
(380,678,cs),
(530,678,o),
(640,570,o),
(640,418,cs),
(640,265,o),
(530,158,o),
(380,158,cs)
);
},
{
closed = 1;
nodes = (
(366,228,l),
(366,359,l),
(380,359,l),
(420,228,l),
(541,228,l),
(485,380,l),
(510,404,o),
(527,440,o),
(527,491,cs),
(527,563,o),
(495,614,o),
(396,614,cs),
(229,614,l),
(248,543,l),
(248,228,l)
);
},
{
closed = 1;
nodes = (
(366,538,l),
(370,538,ls),
(396,538,o),
(406,526,o),
(406,483,cs),
(406,442,o),
(396,430,o),
(370,430,cs),
(366,430,l)
);
}
);
width = 761;
}
);
metricLeft = copyright;
metricRight = copyright;
note = registered;
unicode = 174;
},
{
color = 4;
glyphname = trademark;
lastChange = "2023-05-02 16:24:39 +0000";
layers = (
{
hints = (
{
horizontal = 1;
place = (318,21);
target = up;
type = BottomGhost;
},
{
horizontal = 1;
place = (626,94);
type = Stem;
},
{
place = (-518,180);
type = Stem;
},
{
place = (20,273);
type = Stem;
},
{
place = (339,114);
type = Stem;
},
{
place = (588,114);
type = Stem;
},
{
place = (97,119);
type = Stem;
}
);
layerId = "C10BC21D-E45C-40C5-B032-7ED8CDD0420E";
shapes = (
{
closed = 1;
nodes = (
(555,413,l),
(594,517,l),
(594,318,l),
(707,318,l),
(707,720,l),
(582,720,l),
(525,585,l),
(468,720,l),
(313,720,l),
(344,644,l),
(344,318,l),
(458,318,l),
(458,506,l),
(496,413,l)
);
},
{
closed = 1;
nodes = (
(15,720,l),
(15,626,l),
(97,626,l),
(97,318,l),
(216,318,l),
(216,626,l),
(298,626,l),
(298,720,l)
);
}
);
width = 757;
}
);
note = trademark;
unicode = 8482;
},
{
color = 4;
glyphname = degree;
lastChange = "2023-05-02 15:47:35 +0000";
layers = (
{
hints = (
{
horizontal = 1;
place = (417,66);
type = Stem;
},
{
horizontal = 1;
place = (663,66);
type = Stem;
},
{
place = (57,66);
type = Stem;
},
{
place = (284,66);
type = Stem;
}
);
layerId = "C10BC21D-E45C-40C5-B032-7ED8CDD0420E";
shapes = (
{
closed = 1;
nodes = (
(352,341,o),
(428,419,o),
(428,535,cs),
(428,652,o),
(352,729,o),
(234,729,cs),
(116,729,o),
(40,652,o),
(40,535,cs),
(40,419,o),
(116,341,o),
(234,341,cs)
);
},
{
closed = 1;
nodes = (
(169,423,o),
(127,469,o),
(127,535,cs),
(127,602,o),
(169,647,o),
(234,647,cs),
(299,647,o),
(341,602,o),
(341,536,cs),
(341,469,o),
(299,423,o),
(234,423,cs)
);
}
);
width = 468;
}
);
note = degree;
unicode = 176;
},
{
color = 4;
glyphname = bar;
lastChange = "2023-05-04 10:45:33 +0000";
layers = (
{
hints = (
{
horizontal = 1;
place = (0,21);
target = up;
type = BottomGhost;
},
{
horizontal = 1;
place = (755,-20);
target = down;
type = TopGhost;
},
{
place = (70,149);
type = Stem;
}
);
layerId = "C10BC21D-E45C-40C5-B032-7ED8CDD0420E";
shapes = (
{
closed = 1;
nodes = (
(200,805,l),
(80,805,l),
(80,-120,l),
(200,-120,l)
);
}
);
width = 280;
}
);
note = bar;
unicode = 124;
},
{
color = 4;
glyphname = brokenbar;
lastChange = "2023-05-04 10:45:33 +0000";
layers = (
{
background = {
shapes = (
{
closed = 1;
nodes = (
(219,755,l),
(70,755,l),
(70,418,l),
(219,418,l)
);
},
{
closed = 1;
nodes = (
(219,358,l),
(70,358,l),
(70,1,l),
(219,1,l)
);
}
);
};
hints = (
{
horizontal = 1;
place = (1,21);
target = up;
type = BottomGhost;
},
{
horizontal = 1;
place = (755,-20);
target = down;
type = TopGhost;
},
{
place = (70,149);
type = Stem;
}
);
layerId = "C10BC21D-E45C-40C5-B032-7ED8CDD0420E";
shapes = (
{
closed = 1;
nodes = (
(80,283,l),
(80,-120,l),
(200,-120,l),
(200,283,l)
);
},
{
closed = 1;
nodes = (
(200,402,l),
(200,805,l),
(80,805,l),
(80,402,l)
);
}
);
width = 280;
}
);
metricLeft = bar;
metricRight = bar;
note = brokenbar;
unicode = 166;
},
{
color = 4;
glyphname = dagger;
lastChange = "2023-11-24 15:22:41 +0000";
layers = (
{
hints = (
{
horizontal = 1;
place = (44,48);
type = Stem;
},
{
horizontal = 1;
place = (692,-20);
target = down;
type = TopGhost;
},
{
place = (192,63);
type = Stem;
},
{
place = (83,151);
type = Stem;
}
);
layerId = "C10BC21D-E45C-40C5-B032-7ED8CDD0420E";
shapes = (
{
closed = 1;
nodes = (
(263,179,l),
(263,415,l),
(277,415,l),
(277,612,ls),
(277,719,o),
(105,716,o),
(105,616,cs),
(105,574,o),
(126,574,o),
(126,534,cs),
(126,493,o),
(83,437,o),
(83,430,cs),
(83,422,o),
(91,415,o),
(92,415,c),
(127,415,l),
(105,204,ls),
(101,170,o),
(99,139,o),
(99,112,cs),
(99,54,o),
(141,10,o),
(219,-1,c)
);
},
{
closed = 1;
nodes = (
(179,599,o),
(168,610,o),
(168,623,cs),
(168,637,o),
(179,647,o),
(192,647,cs),
(206,647,o),
(216,637,o),
(216,623,cs),
(216,610,o),
(206,599,o),
(192,599,cs)
);
}
);
width = 347;
}
);
note = dagger;
unicode = 8224;
},
{
color = 4;
glyphname = litre;
lastChange = "2023-05-04 10:45:33 +0000";
layers = (
{
background = {
shapes = (
{
closed = 1;
nodes = (
(103,212,l),
(49,186,o),
(21,174,o),
(-7,165,c),
(27,62,l),
(54,72,o),
(80,83,o),
(124,107,c)
);
},
{
closed = 1;
nodes = (
(351,245,l),
(517,393,o),
(605,728,o),
(369,728,cs),
(150,728,o),
(71,522,o),
(71,244,cs),
(71,95,o),
(138,-10,o),
(292,-10,cs),
(349,-10,o),
(389,-2,o),
(432,9,c),
(452,129,l),
(432,121,o),
(412,115,o),
(385,115,cs),
(290,115,o),
(261,218,o),
(261,332,cs),
(261,493,o),
(316,626,o),
(358,626,cs),
(419,626,o),
(383,476,o),
(315,388,c)
);
}
);
};
hints = (
{
horizontal = 1;
place = (-10,125);
type = Stem;
},
{
horizontal = 1;
place = (626,102);
type = Stem;
},
{
place = (80,183);
type = Stem;
},
{
place = (350,139);
type = Stem;
}
);
layerId = "C10BC21D-E45C-40C5-B032-7ED8CDD0420E";
shapes = (
{
closed = 1;
nodes = (
(103,212,l),
(49,186,o),
(21,174,o),
(-7,165,c),
(27,62,l),
(54,72,o),
(80,83,o),
(124,107,c)
);
},
{
closed = 1;
nodes = (
(268,160,l),
(428,286,o),
(513,459,o),
(513,577,cs),
(513,664,o),
(465,728,o),
(347,728,cs),
(176,728,o),
(71,571,o),
(71,301,cs),
(71,64,o),
(202,-10,o),
(316,-10,cs),
(353,-10,o),
(392,-3,o),
(432,9,c),
(452,129,l),
(427,119,o),
(405,114,o),
(384,115,cs),
(299,118,o),
(261,203,o),
(261,332,cs),
(261,493,o),
(304,619,o),
(359,619,cs),
(379,619,o),
(393,610,o),
(393,578,cs),
(393,511,o),
(363,375,o),
(222,245,c)
);
}
);
width = 531;
},
{
associatedMasterId = "C10BC21D-E45C-40C5-B032-7ED8CDD0420E";
hints = (
{
horizontal = 1;
place = (-10,125);
type = Stem;
},
{
horizontal = 1;
place = (626,102);
type = Stem;
},
{
place = (80,183);
type = Stem;
},
{
place = (350,139);
type = Stem;
}
);
layerId = "0D64D927-DA86-42C2-9AD6-C7C96D63C70C";
name = "Mar 19 20, 18:09";
shapes = (
{
closed = 1;
nodes = (
(74,62,l),
(99,72,o),
(123,83,o),
(145,94,c),
(192,25,o),
(263,-10,o),
(350,-10,cs),
(407,-10,o),
(446,-2,o),
(487,9,c),
(488,129,l),
(469,121,o),
(450,115,o),
(423,115,cs),
(372,115,o),
(325,133,o),
(296,193,c),
(427,305,o),
(489,441,o),
(489,555,cs),
(489,658,o),
(431,728,o),
(301,728,cs),
(145,728,o),
(80,642,o),
(80,361,cs),
(80,299,o),
(87,245,o),
(99,198,c),
(76,186,o),
(50,174,o),
(23,165,c)
);
},
{
closed = 1;
nodes = (
(339,626,o),
(350,600,o),
(350,561,cs),
(350,493,o),
(322,410,o),
(264,336,c),
(263,353,o),
(263,370,o),
(263,390,cs),
(263,583,o),
(283,626,o),
(316,626,cs)
);
}
);
width = 591;
}
);
note = litre;
unicode = 8467;
},
{
color = 4;
glyphname = estimated;
lastChange = "2023-05-04 11:00:17 +0000";
layers = (
{
background = {
shapes = (
{
closed = 0;
nodes = (
(647,286,ls),
(647,80,o),
(544,-10,o),
(348,-10,cs)
);
},
{
closed = 0;
nodes = (
(610,286,ls),
(610,106,o),
(520,27,o),
(348,27,cs)
);
}
);
};
guides = (
{
angle = 90;
pos = (648,195);
},
{
angle = 90;
pos = (610,203);
},
{
angle = 90;
pos = (348,183);
}
);
hints = (
{
horizontal = 1;
place = (-10,135);
type = Stem;
},
{
horizontal = 1;
place = (286,35);
type = Stem;
},
{
horizontal = 1;
place = (546,37);
type = Stem;
},
{
place = (49,112);
type = Stem;
},
{
place = (536,112);
type = Stem;
},
{
horizontal = 1;
place = (-10,37);
type = Stem;
}
);
layerId = "C10BC21D-E45C-40C5-B032-7ED8CDD0420E";
shapes = (
{
closed = 1;
nodes = (
(518,-10,o),
(641,70,o),
(641,181,c),
(602,181,l),
(602,91,o),
(489,27,o),
(363,27,cs),
(246,27,o),
(173,63,o),
(128,121,c),
(161,50,l),
(161,286,l),
(648,286,l),
(648,493,o),
(545,583,o),
(348,583,cs),
(152,583,o),
(49,493,o),
(49,286,cs),
(49,104,o),
(152,-10,o),
(363,-10,cs)
);
},
{
closed = 1;
nodes = (
(162,497,l),
(207,531,o),
(269,546,o),
(348,546,cs),
(429,546,o),
(491,530,o),
(536,495,c),
(536,321,l),
(162,321,l)
);
}
);
width = 697;
}
);
note = estimated;
unicode = 8494;
},
{
color = 4;
glyphname = numero;
kernLeft = B;
lastChange = "2023-11-24 15:46:07 +0000";
layers = (
{
hints = (
{
horizontal = 1;
place = (0,21);
target = up;
type = BottomGhost;
},
{
horizontal = 1;
place = (194,77);
type = Stem;
},
{
horizontal = 1;
place = (302,92);
type = Stem;
},
{
horizontal = 1;
place = (601,94);
type = Stem;
},
{
horizontal = 1;
place = (720,-20);
target = down;
type = TopGhost;
},
{
place = (61,190);
type = Stem;
},
{
place = (383,190);
type = Stem;
},
{
place = (632,122);
type = Stem;
},
{
place = (835,122);
type = Stem;
},
{
horizontal = 1;
place = (597,96);
type = Stem;
},
{
horizontal = 1;
place = (304,96);
type = Stem;
},
{
place = (829,128);
type = Stem;
}
);
layerId = "C10BC21D-E45C-40C5-B032-7ED8CDD0420E";
shapes = (
{
closed = 1;
nodes = (
(964,194,l),
(964,271,l),
(665,271,l),
(665,194,l)
);
},
{
ref = N;
},
{
pos = (623,0);
ref = ordmasculine;
}
);
width = 1006;
}
);
metricLeft = N;
metricRight = ordmasculine;
note = numero;
unicode = 8470;
},
{
color = 4;
glyphname = Euro;
lastChange = "2023-11-24 15:20:04 +0000";
layers = (
{
background = {
anchors = (
{
name = bottom;
pos = (367,-35);
},
{
name = top.case;
pos = (371,740);
}
);
hints = (
{
horizontal = 1;
place = (-10,160);
type = Stem;
},
{
horizontal = 1;
place = (560,168);
type = Stem;
},
{
place = (55,210);
type = Stem;
},
{
place = (387,180);
type = Stem;
}
);
shapes = (
{
closed = 1;
nodes = (
(265,515,o),
(307,557,o),
(412,557,cs),
(444,557,o),
(472,552,o),
(516,544,c),
(534,708,l),
(481,719,o),
(430,728,o),
(383,728,cs),
(187,728,o),
(55,620,o),
(55,355,cs),
(55,90,o),
(175,-10,o),
(367,-10,cs),
(455,-10,o),
(524,6,o),
(567,34,c),
(567,356,l),
(332,356,l),
(387,219,l),
(387,150,l),
(293,158,o),
(265,207,o),
(265,356,cs)
);
}
);
};
guides = (
{
angle = 90;
pos = (538,303);
}
);
hints = (
{
horizontal = 1;
place = (-10,135);
type = Stem;
},
{
horizontal = 1;
place = (173,97);
type = Stem;
},
{
horizontal = 1;
place = (302,97);
type = Stem;
},
{
horizontal = 1;
place = (497,135);
type = Stem;
},
{
place = (80,186);
type = Stem;
},
{
place = (20,246);
type = Stem;
}
);
layerId = "C10BC21D-E45C-40C5-B032-7ED8CDD0420E";
shapes = (
{
closed = 1;
nodes = (
(436,-12,o),
(485,-4,o),
(538,12,c),
(538,166,l),
(499,156,o),
(464,151,o),
(434,151,cs),
(334,151,o),
(285,211,o),
(285,368,cs),
(285,507,o),
(329,577,o),
(431,577,cs),
(460,577,o),
(482,574,o),
(518,563,c),
(534,706,l),
(482,721,o),
(433,729,o),
(387,729,cs),
(199,729,o),
(83,636,o),
(83,357,cs),
(83,91,o),
(193,-12,o),
(390,-12,cs)
);
},
{
closed = 1;
nodes = (
(481,223,l),
(481,334,l),
(20,334,l),
(20,223,l)
);
},
{
closed = 1;
nodes = (
(481,386,l),
(481,497,l),
(20,497,l),
(20,386,l)
);
}
);
width = 563;
},
{
associatedMasterId = "C10BC21D-E45C-40C5-B032-7ED8CDD0420E";
hints = (
{
horizontal = 1;
place = (-10,135);
type = Stem;
},
{
horizontal = 1;
place = (173,97);
type = Stem;
},
{
horizontal = 1;
place = (302,97);
type = Stem;
},
{
horizontal = 1;
place = (448,135);
type = Stem;
},
{
place = (80,186);
type = Stem;
},
{
place = (20,246);
type = Stem;
}
);
layerId = "2FDB717C-55E8-46AA-A5E7-F198D8949D44";
name = "Mar 16 20, 17:30";
shapes = (
{
closed = 1;
nodes = (
(80,302,l),
(80,270,l),
(20,270,l),
(20,173,l),
(89,173,l),
(115,41,o),
(192,-10,o),
(326,-10,cs),
(373,-10,o),
(429,-8,o),
(488,8,c),
(488,136,l),
(449,130,o),
(416,125,o),
(380,125,cs),
(340,125,o),
(310,140,o),
(290,173,c),
(436,173,l),
(436,270,l),
(266,270,l),
(266,302,l),
(436,302,l),
(436,399,l),
(285,399,l),
(303,434,o),
(334,448,o),
(377,448,cs),
(413,448,o),
(449,445,o),
(484,436,c),
(484,565,l),
(426,581,o),
(370,583,o),
(324,583,cs),
(190,583,o),
(114,531,o),
(89,399,c),
(20,399,l),
(20,302,l)
);
}
);
width = 508;
}
);
metricRight = C;
note = Euro;
unicode = 8364;
},
{
color = 4;
glyphname = cedi;
lastChange = "2023-05-04 11:00:17 +0000";
layers = (
{
background = {
shapes = (
{
closed = 1;
nodes = (
(324,729,cs),
(136,729,o),
(20,636,o),
(20,357,cs),
(20,91,o),
(130,-12,o),
(327,-12,cs),
(373,-12,o),
(422,-4,o),
(475,12,c),
(475,166,l),
(436,156,o),
(401,151,o),
(371,151,cs),
(271,151,o),
(222,211,o),
(222,368,cs),
(222,507,o),
(266,577,o),
(368,577,cs),
(397,577,o),
(419,574,o),
(455,563,c),
(471,706,l),
(419,721,o),
(370,729,o)
);
}
);
};
hints = (
{
horizontal = 1;
place = (-10,155);
type = Stem;
},
{
horizontal = 1;
place = (152,296);
type = Stem;
},
{
horizontal = 1;
place = (573,155);
type = Stem;
},
{
place = (-605,210);
type = Stem;
},
{
place = (-269,210);
type = Stem;
},
{
place = (323,62);
type = Stem;
},
{
place = (337,0);
type = Stem;
},
{
place = (356,210);
type = Stem;
}
);
layerId = "C10BC21D-E45C-40C5-B032-7ED8CDD0420E";
shapes = (
{
closed = 1;
nodes = (
(373,-9,o),
(422,-1,o),
(475,16,c),
(475,170,l),
(436,160,o),
(401,155,o),
(371,155,cs),
(271,155,o),
(222,215,o),
(222,372,cs),
(222,511,o),
(266,581,o),
(368,581,cs),
(397,581,o),
(420,579,o),
(456,568,c),
(471,706,l),
(419,721,o),
(370,733,o),
(324,733,cs),
(136,733,o),
(20,640,o),
(20,361,cs),
(20,95,o),
(130,-9,o),
(327,-9,cs)
);
},
{
closed = 1;
nodes = (
(386,-74,l),
(386,798,l),
(308,798,l),
(308,-74,l)
);
}
);
width = 500;
}
);
unicode = 8373;
},
{
color = 4;
glyphname = cent;
lastChange = "2023-11-24 15:46:22 +0000";
layers = (
{
hints = (
{
horizontal = 1;
place = (-123,128);
type = Stem;
},
{
horizontal = 1;
place = (148,295);
type = Stem;
},
{
horizontal = 1;
place = (704,-20);
target = down;
type = TopGhost;
},
{
place = (182,162);
type = Stem;
},
{
place = (424,0);
type = Stem;
},
{
horizontal = 1;
place = (-10,575);
type = Stem;
}
);
layerId = "C10BC21D-E45C-40C5-B032-7ED8CDD0420E";
shapes = (
{
closed = 1;
nodes = (
(305,-103,l),
(305,-9,l),
(345,-7,o),
(390,-1,o),
(423,8,c),
(423,150,l),
(297,117,o),
(206,119,o),
(206,286,cs),
(206,403,o),
(236,442,o),
(296,442,c),
(316,338,l),
(419,338,l),
(419,565,l),
(387,574,o),
(344,580,o),
(305,582,c),
(305,682,l),
(203,682,l),
(203,576,l),
(71,543,o),
(20,400,o),
(20,288,cs),
(20,93,o),
(95,16,o),
(203,-4,c),
(203,-103,l)
);
}
);
width = 445;
}
);
note = cent;
unicode = 162;
},
{
color = 4;
glyphname = colonsign;
lastChange = "2023-05-04 11:00:17 +0000";
layers = (
{
background = {
shapes = (
{
closed = 1;
nodes = (
(387,729,cs),
(199,729,o),
(83,636,o),
(83,357,cs),
(83,91,o),
(193,-12,o),
(390,-12,cs),
(436,-12,o),
(485,-4,o),
(538,12,c),
(538,166,l),
(499,156,o),
(464,151,o),
(434,151,cs),
(334,151,o),
(285,211,o),
(285,368,cs),
(285,507,o),
(329,577,o),
(431,577,cs),
(460,577,o),
(482,574,o),
(518,563,c),
(534,706,l),
(482,721,o),
(433,729,o)
);
}
);
};
guides = (
{
angle = 90;
pos = (354,647);
}
);
layerId = "C10BC21D-E45C-40C5-B032-7ED8CDD0420E";
shapes = (
{
closed = 1;
nodes = (
(412,-9,o),
(471,-1,o),
(535,16,c),
(535,169,l),
(485,159,o),
(440,154,o),
(401,154,cs),
(281,154,o),
(222,213,o),
(222,369,cs),
(222,507,o),
(275,577,o),
(398,577,cs),
(436,577,o),
(471,574,o),
(518,563,c),
(534,703,l),
(471,718,o),
(410,728,o),
(354,728,cs),
(145,728,o),
(20,636,o),
(20,359,cs),
(20,90,o),
(141,-9,o),
(357,-9,cs)
);
},
{
closed = 1;
nodes = (
(399,782,l),
(333,797,l),
(181,-62,l),
(247,-77,l)
);
},
{
closed = 1;
nodes = (
(513,786,l),
(447,801,l),
(295,-58,l),
(361,-73,l)
);
}
);
width = 560;
}
);
unicode = 8353;
},
{
color = 4;
glyphname = currency;
lastChange = "2023-05-02 16:06:53 +0000";
layers = (
{
hints = (
{
horizontal = 1;
place = (46,21);
target = up;
type = BottomGhost;
},
{
horizontal = 1;
place = (97,142);
type = Stem;
},
{
horizontal = 1;
place = (406,142);
type = Stem;
},
{
horizontal = 1;
place = (600,-20);
target = down;
type = TopGhost;
},
{
place = (79,139);
type = Stem;
},
{
place = (382,140);
type = Stem;
}
);
layerId = "C10BC21D-E45C-40C5-B032-7ED8CDD0420E";
shapes = (
{
closed = 1;
nodes = (
(203,159,l),
(233,145,o),
(265,137,o),
(301,137,cs),
(335,137,o),
(368,145,o),
(397,159,c),
(466,86,l),
(566,190,l),
(499,261,l),
(514,291,o),
(522,326,o),
(522,362,cs),
(522,398,o),
(513,433,o),
(498,464,c),
(566,536,l),
(466,640,l),
(396,566,l),
(367,580,o),
(335,588,o),
(301,588,cs),
(266,588,o),
(233,580,o),
(204,566,c),
(135,640,l),
(35,536,l),
(102,464,l),
(87,433,o),
(79,398,o),
(79,362,cs),
(79,326,o),
(87,291,o),
(102,261,c),
(35,190,l),
(135,86,l)
);
},
{
closed = 1;
nodes = (
(238,250,o),
(190,300,o),
(190,362,cs),
(190,424,o),
(238,475,o),
(300,475,cs),
(362,475,o),
(410,424,o),
(410,362,cs),
(410,300,o),
(362,250,o),
(300,250,cs)
);
}
);
width = 601;
}
);
note = currency;
unicode = 164;
},
{
color = 4;
glyphname = dollar;
lastChange = "2023-11-24 15:18:31 +0000";
layers = (
{
hints = (
{
horizontal = 1;
place = (-103,108);
type = Stem;
},
{
horizontal = 1;
place = (443,140);
type = Stem;
},
{
horizontal = 1;
place = (684,-20);
target = down;
type = TopGhost;
},
{
place = (173,102);
type = Stem;
},
{
horizontal = 1;
place = (-10,140);
type = Stem;
},
{
horizontal = 1;
place = (579,105);
type = Stem;
}
);
layerId = "C10BC21D-E45C-40C5-B032-7ED8CDD0420E";
shapes = (
{
closed = 1;
nodes = (
(218,86,l),
(218,-74,l),
(296,-74,l),
(296,86,l)
);
},
{
closed = 1;
nodes = (
(296,618,l),
(296,798,l),
(218,798,l),
(218,618,l)
);
},
{
ref = S;
}
);
width = 523;
},
{
associatedMasterId = "C10BC21D-E45C-40C5-B032-7ED8CDD0420E";
hints = (
{
horizontal = 1;
place = (-103,108);
type = Stem;
},
{
horizontal = 1;
place = (443,140);
type = Stem;
},
{
horizontal = 1;
place = (684,-20);
target = down;
type = TopGhost;
},
{
place = (173,102);
type = Stem;
},
{
horizontal = 1;
place = (-10,140);
type = Stem;
},
{
horizontal = 1;
place = (579,105);
type = Stem;
}
);
layerId = "3BE12041-663C-47F9-875B-D2DAB74BB6CA";
name = "Mar 19 20, 17:48";
shapes = (
{
closed = 1;
nodes = (
(275,-103,l),
(275,-2,l),
(369,18,o),
(409,74,o),
(409,169,cs),
(409,244,o),
(383,286,o),
(319,327,cs),
(231,384,ls),
(214,395,o),
(206,402,o),
(206,415,cs),
(206,437,o),
(226,444,o),
(274,444,cs),
(324,444,o),
(376,435,o),
(376,435,c),
(391,568,l),
(391,568,o),
(340,578,o),
(275,582,c),
(275,684,l),
(173,682,l),
(173,579,l),
(68,564,o),
(25,511,o),
(25,418,cs),
(25,341,o),
(51,299,o),
(114,257,cs),
(200,201,ls),
(217,190,o),
(225,181,o),
(225,168,cs),
(225,146,o),
(206,135,o),
(170,135,cs),
(88,135,o),
(35,146,o),
(35,146,c),
(20,10,l),
(63,-1,o),
(113,-8,o),
(173,-10,c),
(173,-103,l)
);
}
);
width = 429;
}
);
metricLeft = S;
metricRight = S;
note = dollar;
unicode = 36;
},
{
color = 4;
glyphname = dong;
lastChange = "2023-11-24 15:20:23 +0000";
layers = (
{
background = {
hints = (
{
horizontal = 1;
place = (0,77);
type = Stem;
}
);
shapes = (
{
closed = 1;
nodes = (
(345,140,l),
(498,140,l),
(498,845,l),
(318,818,l),
(318,705,l),
(282,717,o),
(250,723,o),
(220,723,cs),
(90,723,o),
(20,638,o),
(20,419,cs),
(20,268,o),
(58,130,o),
(204,130,cs),
(255,130,o),
(300,150,o),
(330,184,c)
);
},
{
closed = 1;
nodes = (
(318,287,l),
(296,275,o),
(277,270,o),
(263,270,cs),
(219,270,o),
(206,309,o),
(206,414,cs),
(206,527,o),
(216,583,o),
(277,583,cs),
(289,583,o),
(303,581,o),
(318,577,c)
);
}
);
};
layerId = "C10BC21D-E45C-40C5-B032-7ED8CDD0420E";
shapes = (
{
closed = 1;
nodes = (
(255,130,o),
(300,149,o),
(330,183,c),
(345,138,l),
(498,138,l),
(498,755,l),
(318,734,l),
(318,567,l),
(282,576,o),
(250,580,o),
(220,580,cs),
(90,580,o),
(20,516,o),
(20,349,cs),
(20,235,o),
(58,130,o),
(204,130,cs)
);
},
{
closed = 1;
nodes = (
(498,0,l),
(498,77,l),
(30,77,l),
(30,0,l)
);
},
{
closed = 1;
nodes = (
(219,266,o),
(206,288,o),
(206,348,cs),
(206,412,o),
(216,444,o),
(277,444,cs),
(289,444,o),
(303,443,o),
(318,440,c),
(318,284,l),
(296,271,o),
(277,266,o),
(263,266,cs)
);
},
{
closed = 1;
nodes = (
(558,622,l),
(558,689,l),
(170,689,l),
(170,622,l)
);
}
);
width = 563;
}
);
metricLeft = d;
unicode = 8363;
},
{
color = 4;
glyphname = franc;
lastChange = "2023-05-04 13:24:57 +0000";
layers = (
{
hints = (
{
horizontal = 1;
place = (0,160);
type = Stem;
},
{
horizontal = 1;
place = (323,83);
type = Stem;
},
{
horizontal = 1;
place = (560,160);
type = Stem;
},
{
place = (537,195);
type = Stem;
},
{
place = (852,210);
type = Stem;
}
);
layerId = "C10BC21D-E45C-40C5-B032-7ED8CDD0420E";
shapes = (
{
closed = 1;
nodes = (
(366,97,l),
(366,190,l),
(0,190,l),
(0,97,l)
);
},
{
ref = F;
}
);
width = 474;
}
);
unicode = 8355;
},
{
color = 4;
glyphname = guarani;
lastChange = "2023-11-24 14:34:08 +0000";
layers = (
{
anchors = (
{
name = bottom;
pos = (332,-35);
},
{
name = top.case;
pos = (336,740);
}
);
background = {
anchors = (
{
name = bottom;
pos = (332,-35);
},
{
name = top.case;
pos = (336,740);
}
);
hints = (
{
horizontal = 1;
place = (-10,160);
type = Stem;
},
{
horizontal = 1;
place = (560,168);
type = Stem;
},
{
place = (20,210);
type = Stem;
},
{
place = (352,180);
type = Stem;
}
);
shapes = (
{
closed = 1;
nodes = (
(230,515,o),
(272,557,o),
(377,557,cs),
(409,557,o),
(437,552,o),
(481,544,c),
(499,708,l),
(446,719,o),
(395,728,o),
(348,728,cs),
(152,728,o),
(20,620,o),
(20,355,cs),
(20,90,o),
(140,-10,o),
(332,-10,cs),
(420,-10,o),
(489,6,o),
(532,34,c),
(532,356,l),
(297,356,l),
(352,219,l),
(352,150,l),
(258,158,o),
(230,207,o),
(230,356,cs)
);
}
);
};
hints = (
{
horizontal = 1;
place = (-10,160);
type = Stem;
},
{
horizontal = 1;
place = (560,168);
type = Stem;
},
{
place = (20,210);
type = Stem;
},
{
place = (352,180);
type = Stem;
}
);
layerId = "C10BC21D-E45C-40C5-B032-7ED8CDD0420E";
shapes = (
{
closed = 1;
nodes = (
(443,-10,o),
(524,15,o),
(560,58,c),
(552,-10,l),
(552,356,l),
(415,356,l),
(419,79,l),
(466,189,l),
(413,161,o),
(370,150,o),
(338,150,cs),
(249,150,o),
(230,231,o),
(230,356,cs),
(230,504,o),
(277,557,o),
(387,557,cs),
(419,557,o),
(457,552,o),
(501,544,c),
(519,710,l),
(463,722,o),
(410,728,o),
(362,728,cs),
(146,728,o),
(20,605,o),
(20,355,cs),
(20,89,o),
(117,-10,o),
(332,-10,cs)
);
},
{
closed = 1;
nodes = (
(378,-74,l),
(378,798,l),
(300,798,l),
(300,-74,l)
);
}
);
width = 567;
}
);
metricLeft = G;
metricRight = G;
unicode = 8370;
},
{
color = 4;
glyphname = kip;
lastChange = "2023-05-04 13:24:57 +0000";
layers = (
{
layerId = "C10BC21D-E45C-40C5-B032-7ED8CDD0420E";
shapes = (
{
closed = 1;
nodes = (
(591,313,l),
(591,424,l),
(20,424,l),
(20,313,l)
);
},
{
pos = (40,0);
ref = K;
}
);
width = 605;
}
);
unicode = 8365;
},
{
color = 4;
glyphname = lira;
lastChange = "2023-05-04 13:24:57 +0000";
layers = (
{
background = {
shapes = (
{
closed = 1;
nodes = (
(515,0,l),
(515,160,l),
(168,160,l),
(204,145,l),
(271,178,o),
(290,226,o),
(290,278,cs),
(290,337,o),
(267,401,o),
(267,454,cs),
(267,541,o),
(310,573,o),
(377,573,cs),
(407,573,o),
(442,567,o),
(480,556,c),
(480,711,l),
(436,722,o),
(394,728,o),
(353,728,cs),
(190,728,o),
(78,646,o),
(78,480,cs),
(78,375,o),
(120,295,o),
(120,233,cs),
(120,196,o),
(104,165,o),
(56,141,cs),
(24,125,l),
(24,0,l)
);
},
{
closed = 1;
nodes = (
(450,298,l),
(450,409,l),
(5,409,l),
(5,298,l)
);
}
);
};
layerId = "C10BC21D-E45C-40C5-B032-7ED8CDD0420E";
shapes = (
{
closed = 1;
nodes = (
(515,0,l),
(515,160,l),
(168,160,l),
(204,145,l),
(271,178,o),
(290,226,o),
(290,278,cs),
(290,337,o),
(267,401,o),
(267,454,cs),
(267,541,o),
(310,573,o),
(377,573,cs),
(407,573,o),
(442,567,o),
(480,556,c),
(480,711,l),
(436,722,o),
(394,728,o),
(353,728,cs),
(190,728,o),
(78,646,o),
(78,480,cs),
(78,375,o),
(120,295,o),
(120,233,cs),
(120,196,o),
(104,165,o),
(56,141,cs),
(24,125,l),
(24,0,l)
);
},
{
closed = 1;
nodes = (
(466,386,l),
(466,497,l),
(5,497,l),
(5,386,l)
);
},
{
closed = 1;
nodes = (
(466,223,l),
(466,334,l),
(5,334,l),
(5,223,l)
);
}
);
width = 525;
}
);
metricLeft = sterling;
metricRight = sterling;
unicode = 8356;
},
{
color = 4;
glyphname = liraTurkish;
lastChange = "2023-05-04 13:24:57 +0000";
layers = (
{
background = {
hints = (
{
horizontal = 1;
place = (-10,155);
type = Stem;
},
{
horizontal = 1;
place = (573,155);
type = Stem;
},
{
place = (384,210);
type = Stem;
},
{
place = (720,210);
type = Stem;
}
);
shapes = (
{
closed = 1;
nodes = (
(524,0,o),
(634,86,o),
(634,369,c),
(446,369,l),
(446,214,o),
(410,178,o),
(286,178,c),
(243,0,l)
);
},
{
closed = 1;
nodes = (
(115,0,l),
(243,0,l),
(310,50,l),
(310,720,l),
(115,720,l)
);
},
{
closed = 1;
nodes = (
(217,483,l),
(481,600,l),
(481,711,l),
(217,594,l)
);
},
{
closed = 1;
nodes = (
(217,320,l),
(481,437,l),
(481,548,l),
(217,431,l)
);
},
{
closed = 1;
nodes = (
(217,441,l),
(20,354,l),
(20,243,l),
(217,330,l)
);
},
{
closed = 1;
nodes = (
(217,604,l),
(20,517,l),
(20,406,l),
(217,493,l)
);
}
);
};
hints = (
{
horizontal = 1;
place = (0,21);
target = up;
type = BottomGhost;
},
{
horizontal = 1;
place = (720,-20);
target = down;
type = TopGhost;
},
{
place = (45,195);
type = Stem;
}
);
layerId = "C10BC21D-E45C-40C5-B032-7ED8CDD0420E";
shapes = (
{
closed = 1;
nodes = (
(524,0,o),
(634,119,o),
(634,369,c),
(446,369,l),
(446,240,o),
(410,178,o),
(286,178,c),
(243,0,l)
);
},
{
closed = 1;
nodes = (
(115,0,l),
(243,0,l),
(310,50,l),
(310,720,l),
(115,720,l)
);
},
{
closed = 1;
nodes = (
(217,483,l),
(481,600,l),
(481,711,l),
(217,594,l)
);
},
{
closed = 1;
nodes = (
(217,320,l),
(481,437,l),
(481,548,l),
(217,431,l)
);
},
{
closed = 1;
nodes = (
(217,441,l),
(20,354,l),
(20,243,l),
(217,330,l)
);
},
{
closed = 1;
nodes = (
(217,604,l),
(20,517,l),
(20,406,l),
(217,493,l)
);
}
);
width = 654;
}
);
unicode = 8378;
},
{
color = 4;
glyphname = manat;
lastChange = "2023-05-04 13:24:57 +0000";
layers = (
{
background = {
shapes = (
{
closed = 1;
nodes = (
(586,640,o),
(509,728,o),
(313,728,cs),
(117,728,o),
(40,640,o),
(40,359,cs),
(40,0,l),
(250,0,l),
(250,361,ls),
(250,532,o),
(264,573,o),
(313,573,cs),
(362,573,o),
(376,532,o),
(376,361,cs),
(376,2,l),
(586,2,l),
(586,359,ls)
);
}
);
};
layerId = "C10BC21D-E45C-40C5-B032-7ED8CDD0420E";
shapes = (
{
closed = 1;
nodes = (
(235,0,l),
(235,361,ls),
(235,520,o),
(252,558,o),
(333,558,cs),
(414,558,o),
(431,520,o),
(431,361,cs),
(431,2,l),
(626,2,l),
(626,359,ls),
(626,640,o),
(549,728,o),
(333,728,cs),
(117,728,o),
(40,640,o),
(40,359,cs),
(40,0,l)
);
},
{
closed = 1;
nodes = (
(372,-74,l),
(372,798,l),
(294,798,l),
(294,-74,l)
);
}
);
width = 666;
}
);
unicode = 8380;
},
{
color = 4;
glyphname = naira;
lastChange = "2023-05-04 13:24:57 +0000";
layers = (
{
layerId = "C10BC21D-E45C-40C5-B032-7ED8CDD0420E";
shapes = (
{
closed = 1;
nodes = (
(195,348,l),
(195,426,l),
(5,426,l),
(5,348,l)
);
},
{
closed = 1;
nodes = (
(725,348,l),
(725,426,l),
(537,426,l),
(537,348,l)
);
},
{
pos = (48,0);
ref = N;
}
);
width = 730;
}
);
metricLeft = peseta;
metricRight = peseta;
unicode = 8358;
},
{
color = 4;
glyphname = peseta;
lastChange = "2023-05-04 13:24:57 +0000";
layers = (
{
layerId = "C10BC21D-E45C-40C5-B032-7ED8CDD0420E";
shapes = (
{
closed = 1;
nodes = (
(668,428,l),
(668,506,l),
(5,506,l),
(5,428,l)
);
},
{
pos = (35,0);
ref = P;
}
);
width = 673;
}
);
unicode = 8359;
},
{
color = 4;
glyphname = peso;
lastChange = "2023-05-04 13:24:57 +0000";
layers = (
{
layerId = "C10BC21D-E45C-40C5-B032-7ED8CDD0420E";
shapes = (
{
closed = 1;
nodes = (
(668,480,l),
(668,546,l),
(5,546,l),
(5,480,l)
);
},
{
closed = 1;
nodes = (
(668,381,l),
(668,447,l),
(5,447,l),
(5,381,l)
);
},
{
pos = (35,0);
ref = P;
}
);
width = 673;
}
);
metricLeft = peseta;
metricRight = peseta;
unicode = 8369;
},
{
color = 4;
glyphname = ruble;
lastChange = "2023-05-04 13:24:57 +0000";
layers = (
{
layerId = "C10BC21D-E45C-40C5-B032-7ED8CDD0420E";
shapes = (
{
closed = 1;
nodes = (
(466,53,l),
(466,164,l),
(5,164,l),
(5,53,l)
);
},
{
closed = 1;
nodes = (
(356,216,l),
(356,327,l),
(5,327,l),
(5,216,l)
);
},
{
pos = (55,0);
ref = P;
}
);
width = 624;
}
);
unicode = 8381;
},
{
color = 4;
glyphname = rupeeIndian;
lastChange = "2023-05-04 13:24:57 +0000";
layers = (
{
background = {
shapes = (
{
closed = 0;
nodes = (
(237,234,l),
(509,0,l)
);
}
);
};
guides = (
{
angle = 90;
pos = (100,487);
},
{
angle = 90;
pos = (109,487);
}
);
hints = (
{
horizontal = 1;
place = (0,21);
target = up;
type = BottomGhost;
},
{
horizontal = 1;
place = (246,80);
type = Stem;
},
{
horizontal = 1;
place = (579,141);
type = Stem;
},
{
place = (55,195);
type = Stem;
},
{
place = (331,200);
type = Stem;
},
{
horizontal = 1;
place = (234,92);
type = Stem;
},
{
horizontal = 1;
place = (246,122);
type = Stem;
}
);
layerId = "C10BC21D-E45C-40C5-B032-7ED8CDD0420E";
shapes = (
{
closed = 1;
nodes = (
(20,368,l),
(20,259,l),
(97,259,ls),
(298,259,o),
(420,315,o),
(420,492,cs),
(420,654,o),
(331,720,o),
(109,720,cs),
(20,720,l),
(20,579,l),
(100,579,ls),
(187,579,o),
(211,556,o),
(211,472,cs),
(211,394,o),
(175,368,o),
(100,368,cs)
);
},
{
closed = 1;
nodes = (
(491,609,l),
(491,720,l),
(20,720,l),
(20,609,l)
);
},
{
closed = 1;
nodes = (
(491,420,l),
(491,531,l),
(20,531,l),
(20,420,l)
);
},
{
closed = 1;
nodes = (
(20,287,l),
(20,234,l),
(272,0,l),
(509,0,l),
(167,314,l)
);
}
);
width = 514;
}
);
unicode = 8377;
},
{
color = 4;
glyphname = sterling;
lastChange = "2023-05-04 13:24:57 +0000";
layers = (
{
background = {
shapes = (
{
closed = 1;
nodes = (
(534,0,l),
(534,160,l),
(174,160,l),
(203,145,l),
(275,178,o),
(294,226,o),
(294,278,cs),
(294,337,o),
(270,401,o),
(270,454,cs),
(270,541,o),
(316,573,o),
(388,573,cs),
(420,573,o),
(457,567,o),
(497,556,c),
(497,711,l),
(452,722,o),
(408,728,o),
(366,728,cs),
(197,728,o),
(81,646,o),
(81,480,cs),
(81,375,o),
(124,295,o),
(124,233,cs),
(124,196,o),
(108,165,o),
(58,141,cs),
(25,125,l),
(25,0,l)
);
},
{
closed = 1;
nodes = (
(466,298,l),
(466,409,l),
(5,409,l),
(5,298,l)
);
}
);
};
guides = (
{
angle = 90;
pos = (497,353);
}
);
hints = (
{
horizontal = 1;
place = (0,21);
target = up;
type = BottomGhost;
},
{
horizontal = 1;
place = (242,173);
type = Stem;
},
{
horizontal = 1;
place = (443,140);
type = Stem;
},
{
place = (219,173);
type = Stem;
},
{
place = (468,175);
type = Stem;
},
{
place = (735,180);
type = Stem;
},
{
horizontal = 1;
place = (-10,132);
type = Stem;
},
{
horizontal = 1;
place = (242,97);
type = Stem;
},
{
place = (259,64);
type = Stem;
},
{
horizontal = 1;
place = (96,347);
type = Stem;
}
);
layerId = "C10BC21D-E45C-40C5-B032-7ED8CDD0420E";
shapes = (
{
closed = 1;
nodes = (
(515,0,l),
(515,160,l),
(168,160,l),
(204,145,l),
(271,178,o),
(290,226,o),
(290,278,cs),
(290,337,o),
(267,401,o),
(267,454,cs),
(267,541,o),
(310,573,o),
(377,573,cs),
(407,573,o),
(442,567,o),
(480,556,c),
(480,711,l),
(436,722,o),
(394,728,o),
(353,728,cs),
(190,728,o),
(78,646,o),
(78,480,cs),
(78,375,o),
(120,295,o),
(120,233,cs),
(120,196,o),
(104,165,o),
(56,141,cs),
(24,125,l),
(24,0,l)
);
},
{
closed = 1;
nodes = (
(450,298,l),
(450,409,l),
(5,409,l),
(5,298,l)
);
}
);
width = 525;
}
);
note = sterling;
unicode = 163;
},
{
color = 4;
glyphname = won;
lastChange = "2023-05-04 13:24:57 +0000";
layers = (
{
layerId = "C10BC21D-E45C-40C5-B032-7ED8CDD0420E";
shapes = (
{
closed = 1;
nodes = (
(826,268,l),
(826,346,l),
(30,346,l),
(30,268,l)
);
},
{
pos = (5,0);
ref = W;
}
);
width = 856;
}
);
unicode = 8361;
},
{
color = 4;
glyphname = yen;
lastChange = "2023-11-24 15:18:31 +0000";
layers = (
{
hints = (
{
horizontal = 1;
place = (-12,168);
type = Stem;
},
{
horizontal = 1;
place = (158,86);
type = Stem;
},
{
horizontal = 1;
place = (563,-20);
target = down;
type = TopGhost;
},
{
place = (157,180);
type = Stem;
},
{
horizontal = 1;
place = (59,97);
type = Stem;
},
{
horizontal = 1;
place = (194,50);
type = Stem;
},
{
horizontal = 1;
place = (194,97);
type = Stem;
}
);
layerId = "C10BC21D-E45C-40C5-B032-7ED8CDD0420E";
shapes = (
{
closed = 1;
nodes = (
(526,256,l),
(526,367,l),
(45,367,l),
(45,256,l)
);
},
{
closed = 1;
nodes = (
(526,93,l),
(526,204,l),
(45,204,l),
(45,93,l)
);
},
{
ref = Y;
}
);
width = 570;
}
);
metricLeft = Y;
metricRight = Y;
note = yen;
unicode = 165;
},
{
color = 4;
glyphname = bulletoperator;
lastChange = "2023-05-04 11:01:19 +0000";
layers = (
{
background = {
shapes = (
{
closed = 1;
nodes = (
(420,341,l),
(420,418,l),
(267,418,l),
(267,573,l),
(184,573,l),
(184,418,l),
(30,418,l),
(30,341,l),
(184,341,l),
(184,183,l),
(267,183,l),
(267,341,l)
);
}
);
};
layerId = "C10BC21D-E45C-40C5-B032-7ED8CDD0420E";
shapes = (
{
closed = 1;
nodes = (
(297,250,o),
(355,308,o),
(355,380,cs),
(355,451,o),
(297,509,o),
(226,509,cs),
(154,509,o),
(95,451,o),
(95,380,cs),
(95,308,o),
(154,250,o),
(226,250,cs)
);
}
);
width = 450;
}
);
unicode = 8729;
},
{
color = 4;
glyphname = plus;
lastChange = "2023-05-04 11:30:45 +0000";
layers = (
{
hints = (
{
horizontal = 1;
place = (183,21);
target = up;
type = BottomGhost;
},
{
horizontal = 1;
place = (341,77);
type = Stem;
},
{
horizontal = 1;
place = (573,-20);
target = down;
type = TopGhost;
},
{
place = (184,236);
type = Stem;
},
{
place = (30,237);
type = Stem;
},
{
place = (184,83);
type = Stem;
}
);
layerId = "C10BC21D-E45C-40C5-B032-7ED8CDD0420E";
shapes = (
{
closed = 1;
nodes = (
(420,341,l),
(420,418,l),
(267,418,l),
(267,573,l),
(184,573,l),
(184,418,l),
(30,418,l),
(30,341,l),
(184,341,l),
(184,183,l),
(267,183,l),
(267,341,l)
);
}
);
width = 450;
}
);
note = plus;
unicode = 43;
},
{
color = 4;
glyphname = minus;
lastChange = "2023-05-04 11:01:54 +0000";
layers = (
{
hints = (
{
horizontal = 1;
place = (341,77);
type = Stem;
}
);
layerId = "C10BC21D-E45C-40C5-B032-7ED8CDD0420E";
shapes = (
{
closed = 1;
nodes = (
(420,341,l),
(420,418,l),
(30,418,l),
(30,341,l)
);
}
);
width = 450;
}
);
note = minus;
unicode = 8722;
},
{
color = 4;
glyphname = multiply;
lastChange = "2023-05-04 11:30:45 +0000";
layers = (
{
hints = (
{
horizontal = 1;
place = (240,21);
target = up;
type = BottomGhost;
},
{
horizontal = 1;
place = (517,-20);
target = down;
type = TopGhost;
}
);
layerId = "C10BC21D-E45C-40C5-B032-7ED8CDD0420E";
shapes = (
{
closed = 1;
nodes = (
(389,490,l),
(335,544,l),
(226,436,l),
(117,546,l),
(58,487,l),
(168,377,l),
(59,268,l),
(113,214,l),
(222,323,l),
(330,214,l),
(389,273,l),
(281,382,l)
);
}
);
width = 450;
}
);
note = multiply;
unicode = 215;
},
{
color = 4;
glyphname = divide;
lastChange = "2023-05-04 11:30:45 +0000";
layers = (
{
hints = (
{
horizontal = 1;
place = (136,173);
type = Stem;
},
{
horizontal = 1;
place = (341,77);
type = Stem;
},
{
horizontal = 1;
place = (449,173);
type = Stem;
},
{
place = (140,169);
type = Stem;
}
);
layerId = "C10BC21D-E45C-40C5-B032-7ED8CDD0420E";
shapes = (
{
closed = 1;
nodes = (
(155,482,l),
(294,482,l),
(294,598,l),
(155,598,l)
);
},
{
closed = 1;
nodes = (
(155,149,l),
(294,149,l),
(294,265,l),
(155,265,l)
);
},
{
closed = 1;
nodes = (
(420,341,l),
(420,418,l),
(30,418,l),
(30,341,l)
);
}
);
width = 450;
}
);
note = divide;
unicode = 247;
},
{
color = 4;
glyphname = equal;
lastChange = "2023-05-04 11:30:45 +0000";
layers = (
{
hints = (
{
horizontal = 1;
place = (205,77);
type = Stem;
},
{
horizontal = 1;
place = (405,77);
type = Stem;
}
);
layerId = "C10BC21D-E45C-40C5-B032-7ED8CDD0420E";
shapes = (
{
closed = 1;
nodes = (
(420,205,l),
(420,282,l),
(30,282,l),
(30,205,l)
);
},
{
closed = 1;
nodes = (
(420,405,l),
(420,482,l),
(30,482,l),
(30,405,l)
);
}
);
width = 450;
}
);
metricLeft = minus;
metricRight = minus;
note = equal;
unicode = 61;
},
{
color = 4;
glyphname = notequal;
lastChange = "2023-05-04 11:30:45 +0000";
layers = (
{
background = {
shapes = (
{
closed = 1;
nodes = (
(420,205,l),
(420,282,l),
(234,282,l),
(312,405,l),
(420,405,l),
(420,482,l),
(361,482,l),
(420,574,l),
(328,574,l),
(269,482,l),
(30,482,l),
(30,405,l),
(220,405,l),
(142,282,l),
(30,282,l),
(30,205,l),
(93,205,l),
(30,106,l),
(122,106,l),
(185,205,l)
);
}
);
};
hints = (
{
horizontal = 1;
place = (106,21);
target = up;
type = BottomGhost;
},
{
horizontal = 1;
place = (205,77);
type = Stem;
},
{
horizontal = 1;
place = (405,77);
type = Stem;
},
{
horizontal = 1;
place = (574,-20);
target = down;
type = TopGhost;
}
);
layerId = "C10BC21D-E45C-40C5-B032-7ED8CDD0420E";
shapes = (
{
closed = 1;
nodes = (
(400,574,l),
(318,574,l),
(50,106,l),
(132,106,l)
);
},
{
ref = equal;
}
);
width = 450;
}
);
metricLeft = equal;
metricRight = equal;
note = notequal;
unicode = 8800;
},
{
color = 4;
glyphname = greater;
lastChange = "2023-05-04 11:30:45 +0000";
layers = (
{
guides = (
{
angle = 90;
pos = (354,394);
}
);
layerId = "C10BC21D-E45C-40C5-B032-7ED8CDD0420E";
shapes = (
{
closed = 1;
nodes = (
(344,319,l),
(410,308,l),
(410,372,l),
(40,542,l),
(40,462,l)
);
},
{
closed = 1;
nodes = (
(40,138,l),
(410,308,l),
(410,372,l),
(344,361,l),
(40,218,l)
);
}
);
width = 450;
}
);
unicode = 62;
},
{
color = 4;
glyphname = greaterequal;
lastChange = "2023-11-24 14:34:08 +0000";
layers = (
{
background = {
hints = (
{
horizontal = 1;
place = (137,77);
type = Stem;
},
{
horizontal = 1;
place = (244,21);
target = up;
type = BottomGhost;
},
{
horizontal = 1;
place = (402,77);
type = Stem;
},
{
horizontal = 1;
place = (634,-20);
target = down;
type = TopGhost;
},
{
place = (184,236);
type = Stem;
},
{
place = (30,237);
type = Stem;
},
{
place = (184,83);
type = Stem;
},
{
horizontal = 1;
place = (243,21);
target = up;
type = BottomGhost;
},
{
horizontal = 1;
place = (401,77);
type = Stem;
},
{
horizontal = 1;
place = (633,-20);
target = down;
type = TopGhost;
},
{
place = (184,236);
type = Stem;
},
{
place = (30,237);
type = Stem;
},
{
place = (184,83);
type = Stem;
},
{
horizontal = 1;
place = (139,77);
type = Stem;
}
);
shapes = (
{
closed = 1;
nodes = (
(420,401,l),
(420,478,l),
(267,478,l),
(267,633,l),
(184,633,l),
(184,478,l),
(30,478,l),
(30,401,l),
(184,401,l),
(184,243,l),
(267,243,l),
(267,401,l)
);
},
{
closed = 1;
nodes = (
(420,139,l),
(420,216,l),
(30,216,l),
(30,139,l)
);
}
);
};
layerId = "C10BC21D-E45C-40C5-B032-7ED8CDD0420E";
shapes = (
{
closed = 1;
nodes = (
(354,407,l),
(420,396,l),
(420,460,l),
(30,600,l),
(30,520,l)
);
},
{
closed = 1;
nodes = (
(30,256,l),
(420,396,l),
(420,460,l),
(354,449,l),
(30,336,l)
);
},
{
pos = (0,-202);
ref = minus;
}
);
width = 450;
}
);
unicode = 8805;
},
{
color = 4;
glyphname = approxequal;
lastChange = "2023-11-24 14:34:08 +0000";
layers = (
{
background = {
hints = (
{
horizontal = 1;
place = (205,77);
type = Stem;
},
{
horizontal = 1;
place = (405,77);
type = Stem;
}
);
shapes = (
{
closed = 1;
nodes = (
(420,205,l),
(420,282,l),
(30,282,l),
(30,205,l)
);
},
{
closed = 1;
nodes = (
(420,405,l),
(420,482,l),
(30,482,l),
(30,405,l)
);
}
);
};
layerId = "C10BC21D-E45C-40C5-B032-7ED8CDD0420E";
shapes = (
{
pos = (0,62);
ref = asciitilde;
},
{
pos = (0,-136);
ref = asciitilde;
}
);
width = 450;
}
);
unicode = 8776;
},
{
color = 4;
glyphname = asciitilde;
lastChange = "2023-05-04 11:30:45 +0000";
layers = (
{
hints = (
{
horizontal = 1;
place = (341,77);
type = Stem;
}
);
layerId = "C10BC21D-E45C-40C5-B032-7ED8CDD0420E";
shapes = (
{
closed = 1;
nodes = (
(365,309,o),
(392,318,o),
(420,341,c),
(420,418,l),
(393,395,o),
(365,386,o),
(338,386,cs),
(301,386,o),
(263,402,o),
(226,418,cs),
(188,434,o),
(151,450,o),
(113,450,cs),
(85,450,o),
(58,441,o),
(30,418,c),
(30,341,l),
(57,364,o),
(85,373,o),
(112,373,cs),
(150,373,o),
(187,357,o),
(225,341,cs),
(262,325,o),
(300,309,o),
(337,309,cs)
);
}
);
width = 450;
}
);
unicode = 126;
},
{
color = 4;
glyphname = logicalnot;
lastChange = "2023-11-23 15:06:30 +0000";
layers = (
{
layerId = "C10BC21D-E45C-40C5-B032-7ED8CDD0420E";
shapes = (
{
closed = 1;
nodes = (
(440,418,l),
(10,418,l),
(10,341,l),
(357,341,l),
(357,183,l),
(440,183,l)
);
}
);
width = 450;
}
);
unicode = 172;
},
{
color = 4;
glyphname = asciicircum;
lastChange = "2023-05-04 11:30:45 +0000";
layers = (
{
background = {
shapes = (
{
closed = 1;
nodes = (
(246,654,l),
(257,720,l),
(193,720,l),
(23,350,l),
(103,350,l)
);
},
{
closed = 1;
nodes = (
(427,350,l),
(257,720,l),
(193,720,l),
(204,654,l),
(347,350,l)
);
}
);
};
layerId = "C10BC21D-E45C-40C5-B032-7ED8CDD0420E";
shapes = (
{
closed = 1;
nodes = (
(246,654,l),
(257,720,l),
(193,720,l),
(43,440,l),
(123,440,l)
);
},
{
closed = 1;
nodes = (
(407,440,l),
(257,720,l),
(193,720,l),
(204,654,l),
(327,440,l)
);
}
);
width = 450;
}
);
unicode = 94;
},
{
color = 4;
glyphname = micro;
lastChange = "2023-11-24 15:18:31 +0000";
layers = (
{
hints = (
{
horizontal = 1;
place = (0,21);
target = up;
type = BottomGhost;
},
{
horizontal = 1;
place = (575,-20);
target = down;
type = TopGhost;
},
{
place = (35,180);
type = Stem;
},
{
place = (299,180);
type = Stem;
},
{
horizontal = 1;
place = (-10,141);
type = Stem;
}
);
layerId = "C10BC21D-E45C-40C5-B032-7ED8CDD0420E";
shapes = (
{
closed = 1;
nodes = (
(268,-10,o),
(294,8,o),
(318,39,c),
(331,0,l),
(484,0,l),
(484,575,l),
(304,575,l),
(304,143,l),
(294,136,o),
(281,132,o),
(269,132,cs),
(235,132,o),
(220,153,o),
(220,193,cs),
(220,575,l),
(40,575,l),
(40,162,l),
(173,32,l),
(190,4,o),
(214,-10,o),
(241,-10,cs)
);
},
{
closed = 1;
nodes = (
(220,-150,l),
(220,196,l),
(40,196,l),
(40,-150,l)
);
}
);
width = 524;
}
);
metricLeft = n;
metricRight = u;
unicode = 181;
},
{
color = 4;
glyphname = percent;
lastChange = "2023-11-24 14:34:08 +0000";
layers = (
{
background = {
hints = (
{
horizontal = 1;
place = (4,21);
target = up;
type = BottomGhost;
},
{
horizontal = 1;
place = (748,-20);
target = down;
type = TopGhost;
}
);
shapes = (
{
closed = 1;
nodes = (
(164,545,l),
(230,566,l),
(230,332,l),
(371,332,l),
(371,710,l),
(274,710,l),
(151,665,l)
);
},
{
closed = 1;
nodes = (
(250,59,l),
(324,4,l),
(785,693,l),
(711,748,l)
);
},
{
closed = 1;
nodes = (
(871,0,l),
(871,95,l),
(752,95,l),
(806,151,ls),
(847,194,o),
(867,239,o),
(867,283,cs),
(867,349,o),
(803,383,o),
(718,383,cs),
(674,383,o),
(637,376,o),
(606,363,c),
(619,274,l),
(630,278,o),
(648,281,o),
(666,281,cs),
(692,281,o),
(720,272,o),
(720,249,cs),
(720,225,o),
(706,198,o),
(634,115,cs),
(606,83,l),
(606,0,l)
);
}
);
};
hints = (
{
horizontal = 1;
place = (-10,81);
type = Stem;
},
{
horizontal = 1;
place = (299,83);
type = Stem;
},
{
horizontal = 1;
place = (630,83);
type = Stem;
},
{
horizontal = 1;
place = (748,-20);
target = down;
type = TopGhost;
},
{
place = (15,111);
type = Stem;
},
{
place = (178,111);
type = Stem;
},
{
place = (440,123);
type = Stem;
},
{
place = (609,123);
type = Stem;
},
{
horizontal = 1;
place = (4,21);
target = up;
type = BottomGhost;
},
{
horizontal = 1;
place = (325,81);
type = Stem;
}
);
layerId = "C10BC21D-E45C-40C5-B032-7ED8CDD0420E";
shapes = (
{
closed = 1;
nodes = (
(787,-10,o),
(846,60,o),
(846,185,cs),
(846,312,o),
(787,382,o),
(669,382,cs),
(550,382,o),
(492,312,o),
(492,185,cs),
(492,60,o),
(550,-10,o),
(669,-10,cs)
);
},
{
closed = 1;
nodes = (
(315,325,o),
(374,395,o),
(374,520,cs),
(374,647,o),
(315,717,o),
(197,717,cs),
(78,717,o),
(20,647,o),
(20,520,cs),
(20,395,o),
(78,325,o),
(197,325,cs)
);
},
{
closed = 1;
nodes = (
(167,410,o),
(160,444,o),
(160,520,cs),
(160,596,o),
(167,630,o),
(197,630,cs),
(226,630,o),
(234,596,o),
(234,520,cs),
(234,444,o),
(226,410,o),
(197,410,cs)
);
},
{
closed = 1;
nodes = (
(639,75,o),
(632,109,o),
(632,185,cs),
(632,261,o),
(639,295,o),
(669,295,cs),
(698,295,o),
(706,261,o),
(706,185,cs),
(706,109,o),
(698,75,o),
(669,75,cs)
);
},
{
pos = (334,0);
ref = fraction;
}
);
width = 856;
}
);
note = percent;
unicode = 37;
},
{
color = 4;
glyphname = perthousand;
lastChange = "2023-05-04 13:30:15 +0000";
layers = (
{
hints = (
{
horizontal = 1;
place = (-10,81);
type = Stem;
},
{
horizontal = 1;
place = (299,83);
type = Stem;
},
{
horizontal = 1;
place = (634,83);
type = Stem;
},
{
horizontal = 1;
place = (748,-20);
target = down;
type = TopGhost;
},
{
place = (15,111);
type = Stem;
},
{
place = (178,111);
type = Stem;
},
{
place = (450,111);
type = Stem;
},
{
place = (613,111);
type = Stem;
},
{
place = (751,111);
type = Stem;
},
{
place = (914,111);
type = Stem;
},
{
horizontal = 1;
place = (325,81);
type = Stem;
},
{
horizontal = 1;
place = (4,21);
target = up;
type = BottomGhost;
}
);
layerId = "C10BC21D-E45C-40C5-B032-7ED8CDD0420E";
shapes = (
{
closed = 1;
nodes = (
(1175,-10,o),
(1234,60,o),
(1234,185,cs),
(1234,312,o),
(1175,382,o),
(1057,382,cs),
(938,382,o),
(880,312,o),
(880,185,cs),
(880,60,o),
(938,-10,o),
(1057,-10,cs)
);
},
{
closed = 1;
nodes = (
(1027,75,o),
(1020,109,o),
(1020,185,cs),
(1020,261,o),
(1027,295,o),
(1057,295,cs),
(1086,295,o),
(1094,261,o),
(1094,185,cs),
(1094,109,o),
(1086,75,o),
(1057,75,cs)
);
},
{
ref = percent;
}
);
width = 1244;
}
);
metricLeft = percent;
metricRight = percent;
note = perthousand;
unicode = 8240;
},
